<svg width="24" height="24" viewBox="0 0 24 24" fill="none" xmlns="http://www.w3.org/2000/svg">
<path d="M12 19.7143V23.1428M16.2857 18V21.4285M7.71429 18V21.4285M21.4286 0.857117H2.57143C2.11677 0.857117 1.68074 1.03773 1.35925 1.35922C1.03776 1.68071 0.857143 2.11675 0.857143 2.5714V12.8571C0.857143 13.3118 1.03776 13.7478 1.35925 14.0693C1.68074 14.3908 2.11677 14.5714 2.57143 14.5714H21.4286C21.8832 14.5714 22.3193 14.3908 22.6408 14.0693C22.9622 13.7478 23.1429 13.3118 23.1429 12.8571V2.5714C23.1429 2.11675 22.9622 1.68071 22.6408 1.35922C22.3193 1.03773 21.8832 0.857117 21.4286 0.857117Z" stroke="#A66CFE" stroke-width="1.5" stroke-linecap="round" stroke-linejoin="round"/>
<path d="M12 10.7142C12.394 10.7142 12.7841 10.6366 13.1481 10.4859C13.512 10.3351 13.8427 10.1141 14.1213 9.83555C14.3999 9.55698 14.6209 9.22626 14.7716 8.86228C14.9224 8.49831 15 8.1082 15 7.71423C15 7.32027 14.9224 6.93016 14.7716 6.56618C14.6209 6.20221 14.3999 5.87149 14.1213 5.59291C13.8427 5.31434 13.512 5.09336 13.1481 4.94259C12.7841 4.79183 12.394 4.71423 12 4.71423C11.2044 4.71423 10.4413 5.0303 9.87868 5.59291C9.31607 6.15552 9 6.91858 9 7.71423C9 8.50988 9.31607 9.27294 9.87868 9.83555C10.4413 10.3982 11.2044 10.7142 12 10.7142ZM4.75714 8.1428C4.64348 8.1428 4.53447 8.09765 4.4541 8.01728C4.37372 7.93691 4.32857 7.8279 4.32857 7.71423C4.32857 7.60057 4.37372 7.49156 4.4541 7.41119C4.53447 7.33081 4.64348 7.28566 4.75714 7.28566M4.75714 8.1428C4.87081 8.1428 4.97982 8.09765 5.06019 8.01728C5.14056 7.93691 5.18571 7.8279 5.18571 7.71423C5.18571 7.60057 5.14056 7.49156 5.06019 7.41119C4.97982 7.33081 4.87081 7.28566 4.75714 7.28566M19.2429 8.1428C19.1292 8.1428 19.0202 8.09765 18.9398 8.01728C18.8594 7.93691 18.8143 7.8279 18.8143 7.71423C18.8143 7.60057 18.8594 7.49156 18.9398 7.41119C19.0202 7.33081 19.1292 7.28566 19.2429 7.28566M19.2429 8.1428C19.3565 8.1428 19.4655 8.09765 19.5459 8.01728C19.6263 7.93691 19.6714 7.8279 19.6714 7.71423C19.6714 7.60057 19.6263 7.49156 19.5459 7.41119C19.4655 7.33081 19.3565 7.28566 19.2429 7.28566" stroke="#A66CFE" stroke-width="1.5" stroke-linecap="round" stroke-linejoin="round"/>
</svg>
