<svg width="22" height="18" viewBox="0 0 22 18" fill="none" xmlns="http://www.w3.org/2000/svg">
<path d="M21 8.429V15C21 15.5304 20.7893 16.0391 20.4142 16.4142C20.0391 16.7893 19.5304 17 19 17H6C5.46957 17 4.96086 16.7893 4.58579 16.4142C4.21071 16.0391 4 15.5304 4 15V13.5M21 8.429V7C21 6.46957 20.7893 5.96086 20.4142 5.58579C20.0391 5.21071 19.5304 5 19 5H18M21 8.429H18" stroke="#A66CFE" stroke-width="1.5" stroke-linecap="round" stroke-linejoin="round"/>
<path d="M18 5V11.5C18 12.0304 17.7893 12.5391 17.4142 12.9142C17.0391 13.2893 16.5304 13.5 16 13.5H3C2.46957 13.5 1.96086 13.2893 1.58579 12.9142C1.21071 12.5391 1 12.0304 1 11.5V3.5C1 2.96957 1.21071 2.46086 1.58579 2.08579C1.96086 1.71071 2.46957 1.5 3 1.5H16C16.5304 1.5 17.0391 1.71071 17.4142 2.08579C17.7893 2.46086 18 2.96957 18 3.5V5ZM18 5H4.5" stroke="#A66CFE" stroke-width="1.5" stroke-linecap="round" stroke-linejoin="round"/>
</svg>
