<svg width="20" height="16" viewBox="0 0 20 16" fill="none" xmlns="http://www.w3.org/2000/svg">
<path d="M1.66669 7.99998C1.66669 4.85748 1.66669 3.28581 2.64335 2.30998C3.62002 1.33415 5.19085 1.33331 8.33335 1.33331H11.6667C14.8092 1.33331 16.3809 1.33331 17.3567 2.30998C18.3325 3.28665 18.3334 4.85748 18.3334 7.99998C18.3334 11.1425 18.3334 12.7141 17.3567 13.69C16.38 14.6658 14.8092 14.6666 11.6667 14.6666H8.33335C5.19085 14.6666 3.61919 14.6666 2.64335 13.69C1.66752 12.7133 1.66669 11.1425 1.66669 7.99998Z" stroke="#5A5665" stroke-width="1.5"/>
<path d="M8.33335 11.3333H5.00002M11.6667 11.3333H10.4167M1.66669 6.33331H18.3334" stroke="#5A5665" stroke-width="1.5" stroke-linecap="round"/>
</svg>
