<svg width="18" height="19" viewBox="0 0 18 19" fill="none" xmlns="http://www.w3.org/2000/svg">
<g clip-path="url(#clip0_299_1434)">
<path d="M16 3.48499H2C1.46957 3.48499 0.960859 3.6957 0.585786 4.07077C0.210714 4.44584 0 4.95455 0 5.48499L0 9.98499H18V5.48499C18 4.95455 17.7893 4.44584 17.4142 4.07077C17.0391 3.6957 16.5304 3.48499 16 3.48499Z" fill="#005BBB"/>
<path d="M18 14.485C18 15.0154 17.7893 15.5241 17.4142 15.8992C17.0391 16.2743 16.5304 16.485 16 16.485H2C1.46957 16.485 0.960859 16.2743 0.585786 15.8992C0.210714 15.5241 0 15.0154 0 14.485V9.98499H18V14.485Z" fill="#FFD500"/>
</g>
<defs>
<clipPath id="clip0_299_1434">
<rect width="18" height="18" fill="white" transform="translate(0 0.984985)"/>
</clipPath>
</defs>
</svg>
