<svg width="18" height="19" viewBox="0 0 18 19" fill="none" xmlns="http://www.w3.org/2000/svg">
<g clip-path="url(#clip0_299_1779)">
<path d="M17.7225 4.45984C17.376 3.86434 16.7385 3.45984 16 3.45984H9V4.45984H17.7225ZM0 13.4598H18V14.4598H0V13.4598ZM9 9.45984H18V10.4598H9V9.45984ZM9 7.45984H18V8.45984H9V7.45984ZM0 11.4598H18V12.4598H0V11.4598ZM2 16.4598H16C16.7385 16.4598 17.376 16.0553 17.7225 15.4598H0.2775C0.624 16.0553 1.2615 16.4598 2 16.4598ZM9 5.45984H18V6.45984H9V5.45984Z" fill="#B22334"/>
<path d="M0.034 14.7993C0.0423333 14.846 0.0521667 14.8922 0.0635 14.9378C0.0768333 14.9878 0.0921667 15.0372 0.1095 15.0858C0.154 15.2153 0.208 15.3403 0.276 15.4573L0.2775 15.4598H17.7225L17.7235 15.4578C17.7913 15.3403 17.8469 15.2161 17.8895 15.0873C17.922 14.9934 17.9474 14.8971 17.9655 14.7993C17.986 14.6893 18 14.5763 18 14.4598H0C0 14.5763 0.014 14.6888 0.034 14.7993ZM0 12.4598H18V13.4598H0V12.4598ZM0 10.4598V11.4598H18V10.4598H9H0ZM9 8.45984H18V9.45984H9V8.45984ZM9 6.45984H18V7.45984H9V6.45984ZM0.064 4.98184C0.0765 4.93084 0.094 4.88234 0.11 4.83334C0.0927479 4.88222 0.077403 4.93176 0.064 4.98184ZM9 5.45984H18C18 5.34334 17.986 5.23034 17.9655 5.11984C17.948 5.02189 17.9224 4.92556 17.889 4.83184C17.8463 4.70249 17.7905 4.57785 17.7225 4.45984H9V5.45984Z" fill="#EEEEEE"/>
<path d="M9 3.45984H2C1.46957 3.45984 0.960859 3.67055 0.585786 4.04563C0.210714 4.4207 0 4.92941 0 5.45984L0 10.4598H9V3.45984Z" fill="#3C3B6E"/>
<path d="M1.00049 4.82284L1.30949 5.04734L1.19149 5.40984L1.49999 5.18584L1.80899 5.40984L1.69099 5.04734L1.99999 4.82284H1.61799L1.49999 4.45984L1.38249 4.82284H1.00049ZM2.00049 5.82284L2.30949 6.04734L2.19149 6.40984L2.49999 6.18584L2.80899 6.40984L2.69099 6.04734L2.99999 5.82284H2.61799L2.49999 5.45984L2.38249 5.82284H2.00049ZM4.00049 5.82284L4.30949 6.04734L4.19149 6.40984L4.49999 6.18584L4.80899 6.40984L4.69099 6.04734L4.99999 5.82284H4.61799L4.49999 5.45984L4.38249 5.82284H4.00049ZM6.00049 5.82284L6.30949 6.04734L6.19149 6.40984L6.49999 6.18584L6.80899 6.40984L6.69099 6.04734L6.99999 5.82284H6.61799L6.49999 5.45984L6.38249 5.82284H6.00049ZM2.00049 7.82284L2.30949 8.04734L2.19149 8.40984L2.49999 8.18584L2.80899 8.40984L2.69099 8.04734L2.99999 7.82284H2.61799L2.49999 7.45984L2.38249 7.82284H2.00049ZM4.00049 7.82284L4.30949 8.04734L4.19149 8.40984L4.49999 8.18584L4.80899 8.40984L4.69099 8.04734L4.99999 7.82284H4.61799L4.49999 7.45984L4.38249 7.82284H4.00049ZM6.00049 7.82284L6.30949 8.04734L6.19149 8.40984L6.49999 8.18584L6.80899 8.40984L6.69099 8.04734L6.99999 7.82284H6.61799L6.49999 7.45984L6.38249 7.82284H6.00049ZM3.00049 4.82284L3.30949 5.04734L3.19149 5.40984L3.49999 5.18584L3.80899 5.40984L3.69099 5.04734L3.99999 4.82284H3.61799L3.49999 4.45984L3.38249 4.82284H3.00049ZM5.00049 4.82284L5.30949 5.04734L5.19149 5.40984L5.49999 5.18584L5.80899 5.40984L5.69099 5.04734L5.99999 4.82284H5.61799L5.49999 4.45984L5.38249 4.82284H5.00049ZM7.00049 4.82284L7.30949 5.04734L7.19149 5.40984L7.49999 5.18584L7.80899 5.40984L7.69099 5.04734L7.99999 4.82284H7.61799L7.49999 4.45984L7.38249 4.82284H7.00049ZM1.00049 6.82284L1.30949 7.04734L1.19149 7.40984L1.49999 7.18584L1.80899 7.40984L1.69099 7.04734L1.99999 6.82284H1.61799L1.49999 6.45984L1.38249 6.82284H1.00049ZM3.19149 7.40984L3.49999 7.18584L3.80899 7.40984L3.69099 7.04734L3.99999 6.82284H3.61799L3.49999 6.45984L3.38249 6.82284H3.00049L3.30949 7.04734L3.19149 7.40984ZM5.00049 6.82284L5.30949 7.04734L5.19149 7.40984L5.49999 7.18584L5.80899 7.40984L5.69099 7.04734L5.99999 6.82284H5.61799L5.49999 6.45984L5.38249 6.82284H5.00049ZM7.00049 6.82284L7.30949 7.04734L7.19149 7.40984L7.49999 7.18584L7.80899 7.40984L7.69099 7.04734L7.99999 6.82284H7.61799L7.49999 6.45984L7.38249 6.82284H7.00049ZM1.00049 8.82284L1.30949 9.04734L1.19149 9.40984L1.49999 9.18584L1.80899 9.40984L1.69099 9.04734L1.99999 8.82284H1.61799L1.49999 8.45984L1.38249 8.82284H1.00049ZM3.19149 9.40984L3.49999 9.18584L3.80899 9.40984L3.69099 9.04734L3.99999 8.82284H3.61799L3.49999 8.45984L3.38249 8.82284H3.00049L3.30949 9.04734L3.19149 9.40984ZM5.00049 8.82284L5.30949 9.04734L5.19149 9.40984L5.49999 9.18584L5.80899 9.40984L5.69099 9.04734L5.99999 8.82284H5.61799L5.49999 8.45984L5.38249 8.82284H5.00049ZM7.00049 8.82284L7.30949 9.04734L7.19149 9.40984L7.49999 9.18584L7.80899 9.40984L7.69099 9.04734L7.99999 8.82284H7.61799L7.49999 8.45984L7.38249 8.82284H7.00049Z" fill="black"/>
</g>
<defs>
<clipPath id="clip0_299_1779">
<rect width="18" height="18" fill="white" transform="translate(0 0.959839)"/>
</clipPath>
</defs>
</svg>
