<svg width="24" height="24" viewBox="0 0 24 24" fill="none" xmlns="http://www.w3.org/2000/svg">
<path d="M8.699 10.646L8.595 10.156M13.59 9.60597L13.486 9.11597M8.5 15.57C9.758 15.886 11.186 15.886 12.623 15.501C14.059 15.116 15.295 14.402 16.227 13.5" stroke="#A66CFE" stroke-width="1.5" stroke-linecap="round" stroke-linejoin="round"/>
<path d="M12.587 15.637L13.065 16.611C13.1515 16.7884 13.2721 16.9469 13.4199 17.0776C13.5678 17.2083 13.74 17.3085 13.9266 17.3725C14.1133 17.4366 14.3107 17.4631 14.5077 17.4507C14.7046 17.4383 14.8972 17.3871 15.0743 17.3002C15.2514 17.2132 15.4097 17.0922 15.5399 16.944C15.6702 16.7958 15.77 16.6233 15.8335 16.4365C15.897 16.2496 15.923 16.0521 15.9101 15.8552C15.8971 15.6583 15.8454 15.4659 15.758 15.289L15.298 14.354" stroke="#A66CFE" stroke-width="1.5" stroke-linecap="round" stroke-linejoin="round"/>
<path d="M21 12C21 13.1819 20.7672 14.3522 20.3149 15.4442C19.8626 16.5361 19.1997 17.5282 18.364 18.364C17.5282 19.1997 16.5361 19.8626 15.4442 20.3149C14.3522 20.7672 13.1819 21 12 21C10.8181 21 9.64778 20.7672 8.55585 20.3149C7.46392 19.8626 6.47177 19.1997 5.63604 18.364C4.80031 17.5282 4.13738 16.5361 3.68508 15.4442C3.23279 14.3522 3 13.1819 3 12C3 9.61305 3.94821 7.32387 5.63604 5.63604C7.32387 3.94821 9.61305 3 12 3C14.3869 3 16.6761 3.94821 18.364 5.63604C20.0518 7.32387 21 9.61305 21 12Z" stroke="#A66CFE" stroke-width="1.5" stroke-linecap="round" stroke-linejoin="round"/>
</svg>
