<svg width="24" height="24" viewBox="0 0 24 24" fill="none" xmlns="http://www.w3.org/2000/svg">
<path d="M11.88 14.5088H11.9325C13.0575 14.5388 13.9575 15.4538 13.9575 16.5788C13.9575 17.5388 13.305 18.3413 12.42 18.5813V19.4213C12.42 19.7213 12.18 19.9613 11.88 19.9613C11.58 19.9613 11.34 19.7213 11.34 19.4213V18.5813C10.8994 18.4627 10.5101 18.2023 10.2322 17.8404C9.95429 17.4784 9.80329 17.0351 9.8025 16.5788C9.8025 16.2788 10.0425 16.0388 10.3425 16.0388C10.6425 16.0388 10.8825 16.2788 10.8825 16.5788C10.8825 17.1338 11.325 17.5763 11.8725 17.5763C12.42 17.5763 12.87 17.1263 12.87 16.5788C12.87 16.0313 12.42 15.5813 11.8725 15.5813H11.82C11.2805 15.5666 10.7679 15.3422 10.3912 14.9557C10.0145 14.5692 9.80328 14.051 9.8025 13.5113C9.8025 12.5513 10.455 11.7488 11.34 11.5088V10.6688C11.34 10.3688 11.58 10.1288 11.88 10.1288C12.18 10.1288 12.42 10.3688 12.42 10.6688V11.5088C13.305 11.7488 13.9575 12.5513 13.9575 13.5113C13.9575 13.8113 13.7175 14.0513 13.4175 14.0513C13.1175 14.0513 12.8775 13.8113 12.8775 13.5113C12.8775 12.9638 12.4275 12.5138 11.88 12.5138C11.3325 12.5138 10.8825 12.9638 10.8825 13.5113C10.8825 14.0588 11.3325 14.5088 11.88 14.5088Z" fill="#A66CFE"/>
<path d="M7.899 3.82502L9.9885 6.27002L9.76275 6.52202C5.46225 7.48652 2.25 11.3273 2.25 15.9188C2.25 19.9553 5.526 23.2313 9.5625 23.2313H14.19C18.2265 23.2313 21.5025 19.956 21.5025 15.9195C21.51 11.3273 18.2978 7.48652 13.9973 6.52202C14.0149 6.36352 13.9863 6.20331 13.9148 6.06077L15.6923 4.02602L15.807 3.84902C15.941 3.55676 15.9753 3.22858 15.9046 2.91495C15.8338 2.60132 15.6621 2.3196 15.4156 2.11312C15.1692 1.90664 14.8617 1.78684 14.5406 1.77214C14.2194 1.75745 13.9023 1.84866 13.638 2.03177L13.0058 1.28177C12.8639 1.12305 12.6902 0.996005 12.496 0.908903C12.3018 0.821802 12.0914 0.776601 11.8786 0.776247C11.6657 0.775893 11.4552 0.820394 11.2607 0.90685C11.0662 0.993306 10.8921 1.11978 10.7498 1.27802L10.0875 2.01752C9.82391 1.83061 9.50608 1.73575 9.18317 1.74763C8.86025 1.75951 8.55025 1.87745 8.3011 2.08322C8.05196 2.28899 7.87755 2.57112 7.80487 2.88598C7.73218 3.20083 7.76527 3.53086 7.899 3.82502ZM10.7483 4.86377L9.47625 3.39377C9.77182 3.5359 10.1061 3.5762 10.427 3.50836C10.7479 3.44052 11.0373 3.26837 11.25 3.01877L11.85 2.24027L12.516 3.02927C12.7237 3.27075 13.0038 3.43867 13.3146 3.50801C13.6255 3.57734 13.9504 3.54437 14.241 3.41402L12.975 4.86377H10.7483ZM3.75 15.9188C3.75 11.4278 7.389 7.78877 11.88 7.78877C16.371 7.78877 20.01 11.4278 20.0025 15.9173V15.9188C20.0019 17.4602 19.3893 18.9382 18.2994 20.0282C17.2095 21.1181 15.7314 21.7307 14.19 21.7313H9.5625C8.02111 21.7307 6.54303 21.1181 5.4531 20.0282C4.36317 18.9382 3.7506 17.4602 3.75 15.9188Z" fill="#A66CFE"/>
</svg>
