<svg width="44" height="44" viewBox="0 0 44 44" fill="none" xmlns="http://www.w3.org/2000/svg">
<path d="M36.6667 28.512C35.5874 31.9405 33.4428 34.9353 30.5447 37.0613C27.6466 39.1872 24.1459 40.3335 20.5517 40.3334C16.0735 40.3334 11.7787 38.5544 8.61216 35.3879C5.44561 32.2213 3.66666 27.9266 3.66666 23.4484C3.66656 19.8541 4.81281 16.3535 6.93876 13.4553C9.06472 10.5572 12.0596 8.41263 15.488 7.33337" stroke="black" stroke-width="3" stroke-linecap="round"/>
<path d="M40.1738 18.2362C39.2093 14.8002 37.3772 11.67 34.8536 9.14641C32.3301 6.62285 29.1999 4.79076 25.7638 3.8262C22.7498 2.9847 20.1667 5.59903 20.1667 8.7267V20.999C20.1667 22.5629 21.4353 23.8315 22.9992 23.8315H35.2715C38.401 23.8315 41.0153 21.2484 40.1738 18.2362Z" stroke="black" stroke-width="3"/>
</svg>
