<svg width="18" height="20" viewBox="0 0 18 20" fill="none" xmlns="http://www.w3.org/2000/svg">
<path d="M9.01091 16.1791L15.2992 10.0099C15.5948 9.71803 15.9646 9.5652 16.4086 9.5514C16.8525 9.5376 17.2352 9.69044 17.5566 10.0099C17.8522 10.3018 18 10.6733 18 11.1243C18 11.5754 17.8522 11.9469 17.5566 12.2388L10.1396 19.5622C9.97835 19.7214 9.80367 19.8344 9.61556 19.9013C9.42745 19.9681 9.2259 20.001 9.01091 20C8.79593 19.9989 8.59438 19.966 8.40627 19.9013C8.21815 19.8365 8.04348 19.7235 7.88224 19.5622L0.465236 12.2388C0.169631 11.9469 0.0148419 11.5823 0.000867819 11.145C-0.0131062 10.7078 0.141683 10.3294 0.465236 10.0099C0.760841 9.71803 1.13707 9.5721 1.59391 9.5721C2.05076 9.5721 2.42698 9.71803 2.72259 10.0099L9.01091 16.1791ZM9.01091 6.62682L15.2992 0.457654C15.5948 0.165779 15.9646 0.0134735 16.4086 0.00073715C16.8525 -0.0119992 17.2352 0.140306 17.5566 0.457654C17.8522 0.749528 18 1.121 18 1.57208C18 2.02316 17.8522 2.39464 17.5566 2.68651L10.1396 10.0099C9.97835 10.1691 9.80367 10.2821 9.61556 10.349C9.42745 10.4159 9.2259 10.4488 9.01091 10.4477C8.79593 10.4467 8.59438 10.4138 8.40627 10.349C8.21815 10.2843 8.04348 10.1712 7.88224 10.0099L0.465236 2.68651C0.169631 2.39464 0.0148419 2.03006 0.000867819 1.59278C-0.0131062 1.1555 0.141683 0.777123 0.465236 0.457654C0.760841 0.165779 1.13707 0.0198418 1.59391 0.0198418C2.05076 0.0198418 2.42698 0.165779 2.72259 0.457654L9.01091 6.62682Z" fill="#A66CFE"/>
</svg>
