<svg width="54" height="53" viewBox="0 0 54 53" fill="none" xmlns="http://www.w3.org/2000/svg">
<rect width="54" height="52.6667" rx="26.3333" fill="#0E0E0E"/>
<path d="M21.6667 21.6667H32.3333M21.6667 27H29.6667M35 15C36.0609 15 37.0783 15.4214 37.8284 16.1716C38.5786 16.9217 39 17.9391 39 19V29.6667C39 30.7275 38.5786 31.7449 37.8284 32.4951C37.0783 33.2452 36.0609 33.6667 35 33.6667H28.3333L21.6667 37.6667V33.6667H19C17.9391 33.6667 16.9217 33.2452 16.1716 32.4951C15.4214 31.7449 15 30.7275 15 29.6667V19C15 17.9391 15.4214 16.9217 16.1716 16.1716C16.9217 15.4214 17.9391 15 19 15H35Z" stroke="white" stroke-width="2" stroke-linecap="round" stroke-linejoin="round"/>
</svg>
