<svg width="20" height="21" viewBox="0 0 20 21" fill="none" xmlns="http://www.w3.org/2000/svg">
<path d="M10 19.25C5.175 19.25 1.25 15.325 1.25 10.5C1.25 5.675 5.175 1.75 10 1.75C14.825 1.75 18.75 5.675 18.75 10.5C18.75 15.325 14.825 19.25 10 19.25ZM10 3C5.8625 3 2.5 6.3625 2.5 10.5C2.5 14.6375 5.8625 18 10 18C14.1375 18 17.5 14.6375 17.5 10.5C17.5 6.3625 14.1375 3 10 3Z" fill="white"/>
<path d="M10 14.875C9.65 14.875 9.375 14.6 9.375 14.25V6.75C9.375 6.4 9.65 6.125 10 6.125C10.35 6.125 10.625 6.4 10.625 6.75V14.25C10.625 14.6 10.35 14.875 10 14.875Z" fill="white"/>
<path d="M13.75 11.125H6.25C5.9 11.125 5.625 10.85 5.625 10.5C5.625 10.15 5.9 9.875 6.25 9.875H13.75C14.1 9.875 14.375 10.15 14.375 10.5C14.375 10.85 14.1 11.125 13.75 11.125Z" fill="white"/>
</svg>
