<svg width="32" height="32" viewBox="0 0 32 32" fill="none" xmlns="http://www.w3.org/2000/svg">
<path d="M29.3333 15.24V24.0013C29.3333 24.7085 29.0523 25.3868 28.5522 25.8869C28.0521 26.387 27.3739 26.668 26.6666 26.668H9.33329C8.62605 26.668 7.94777 26.387 7.44767 25.8869C6.94758 25.3868 6.66663 24.7085 6.66663 24.0013V22.0013M29.3333 15.24V13.3346C29.3333 12.6274 29.0523 11.9491 28.5522 11.449C28.0521 10.9489 27.3739 10.668 26.6666 10.668H25.3333M29.3333 15.24H25.3333" stroke="white" stroke-width="1.5" stroke-linecap="round" stroke-linejoin="round"/>
<path d="M25.3333 10.6667V19.3333C25.3333 20.0406 25.0523 20.7189 24.5522 21.219C24.0521 21.719 23.3739 22 22.6666 22H5.33329C4.62605 22 3.94777 21.719 3.44767 21.219C2.94758 20.7189 2.66663 20.0406 2.66663 19.3333V8.66667C2.66663 7.95942 2.94758 7.28115 3.44767 6.78105C3.94777 6.28095 4.62605 6 5.33329 6H22.6666C23.3739 6 24.0521 6.28095 24.5522 6.78105C25.0523 7.28115 25.3333 7.95942 25.3333 8.66667V10.6667ZM25.3333 10.6667H7.33329" stroke="white" stroke-width="1.5" stroke-linecap="round" stroke-linejoin="round"/>
</svg>
