<svg width="32" height="31" viewBox="0 0 32 31" fill="none" xmlns="http://www.w3.org/2000/svg">
<rect width="32" height="31" rx="15.5" fill="#A66CFE"/>
<path d="M13.6471 6C13.0824 6 12.7059 6.38 12.7059 6.95V24.05C12.7059 24.62 13.0824 25 13.6471 25C14.2118 25 14.5882 24.62 14.5882 24.05V6.95C14.5882 6.38 14.2118 6 13.6471 6ZM8.94118 15.5C8.37647 15.5 8 15.88 8 16.45V24.05C8 24.62 8.37647 25 8.94118 25C9.50588 25 9.88235 24.62 9.88235 24.05V16.45C9.88235 15.88 9.50588 15.5 8.94118 15.5ZM18.3529 11.7C17.7882 11.7 17.4118 12.08 17.4118 12.65V24.05C17.4118 24.62 17.7882 25 18.3529 25C18.9176 25 19.2941 24.62 19.2941 24.05V12.65C19.2941 12.08 18.9176 11.7 18.3529 11.7ZM23.0588 19.3C22.4941 19.3 22.1176 19.68 22.1176 20.25V24.05C22.1176 24.62 22.4941 25 23.0588 25C23.6235 25 24 24.62 24 24.05V20.25C24 19.68 23.6235 19.3 23.0588 19.3Z" fill="white"/>
</svg>
