<svg width="17" height="9" viewBox="0 0 17 9" fill="none" xmlns="http://www.w3.org/2000/svg">
<path d="M14.7806 0.659064C15.1518 0.2935 15.7477 0.29364 16.1188 0.659379C16.4976 1.03284 16.4976 1.64413 16.1186 2.01747L9.40707 8.62916C9.28848 8.74668 9.14747 8.83995 8.99214 8.90359C8.83681 8.96724 8.67023 9 8.502 9C8.33376 9 8.16718 8.96724 8.01186 8.90359C7.85653 8.83995 7.71551 8.74668 7.59693 8.62916L0.881875 2.01741C0.502811 1.64418 0.502784 1.03285 0.881815 0.659585C1.25267 0.294372 1.84798 0.294344 2.21886 0.659523L8.11398 6.46388C8.32817 6.67477 8.67197 6.67476 8.88614 6.46384L14.7806 0.659064Z" fill="white" fill-opacity="0.7"/>
</svg>
