<svg width="16" height="17" viewBox="0 0 16 17" fill="none" xmlns="http://www.w3.org/2000/svg">
<path d="M14.2806 4.65906C14.6518 4.2935 15.2477 4.29364 15.6188 4.65938C15.9976 5.03284 15.9976 5.64413 15.6186 6.01747L8.90707 12.6292C8.78848 12.7467 8.64747 12.8399 8.49214 12.9036C8.33681 12.9672 8.17023 13 8.002 13C7.83376 13 7.66718 12.9672 7.51186 12.9036C7.35653 12.8399 7.21551 12.7467 7.09693 12.6292L0.381875 6.01741C0.00281116 5.64418 0.00278375 5.03285 0.381815 4.65959C0.752671 4.29437 1.34798 4.29434 1.71886 4.65952L7.61398 10.4639C7.82817 10.6748 8.17197 10.6748 8.38614 10.4638L14.2806 4.65906Z" fill="white"/>
</svg>
