<svg width="16" height="17" viewBox="0 0 16 17" fill="none" xmlns="http://www.w3.org/2000/svg">
<path d="M14.2805 4.65906C14.6517 4.2935 15.2476 4.29364 15.6187 4.65938C15.9975 5.03284 15.9974 5.64413 15.6185 6.01747L8.90695 12.6292C8.78836 12.7467 8.64735 12.8399 8.49202 12.9036C8.33669 12.9672 8.17011 13 8.00188 13C7.83364 13 7.66706 12.9672 7.51173 12.9036C7.3564 12.8399 7.21539 12.7467 7.09681 12.6292L0.381753 6.01741C0.00268909 5.64418 0.00266168 5.03285 0.381693 4.65959C0.752548 4.29437 1.34785 4.29434 1.71874 4.65952L7.61386 10.4639C7.82805 10.6748 8.17184 10.6748 8.38602 10.4638L14.2805 4.65906Z" fill="white"/>
</svg>
