<svg width="16" height="17" viewBox="0 0 16 17" fill="none" xmlns="http://www.w3.org/2000/svg">
<path d="M4.15906 2.22038C3.7935 1.84917 3.79364 1.25324 4.15938 0.8822C4.53284 0.503329 5.14413 0.503418 5.51747 0.882403L12.1292 7.59391C12.2467 7.71249 12.3399 7.85351 12.4036 8.00884C12.4672 8.16417 12.5 8.33074 12.5 8.49898C12.5 8.66722 12.4672 8.83379 12.4036 8.98912C12.3399 9.14445 12.2467 9.28546 12.1292 9.40405L5.51741 16.1191C5.14418 16.4982 4.53285 16.4982 4.15958 16.1192C3.79437 15.7483 3.79434 15.153 4.15952 14.7821L9.96388 8.887C10.1748 8.67281 10.1748 8.32901 9.96384 8.11484L4.15906 2.22038Z" fill="white"/>
</svg>
