<svg width="32" height="32" viewBox="0 0 32 32" fill="none" xmlns="http://www.w3.org/2000/svg">
<path d="M11.3335 20L15.3335 16L11.3335 12M16.6668 20L20.6668 16L16.6668 12" stroke="white" stroke-width="1.5" stroke-linecap="round" stroke-linejoin="round"/>
<path d="M16.0001 2.66634C22.2854 2.66634 25.4281 2.66634 27.3801 4.61968C29.3334 6.57034 29.3334 9.71434 29.3334 15.9997C29.3334 22.285 29.3334 25.4277 27.3801 27.381C25.4294 29.333 22.2854 29.333 16.0001 29.333C9.71475 29.333 6.57208 29.333 4.61875 27.381C2.66675 25.4263 2.66675 22.285 2.66675 15.9997C2.66675 9.71434 2.66675 6.57168 4.61875 4.61968C5.91741 3.32101 7.74275 2.88634 10.6667 2.73968" stroke="white" stroke-width="1.5" stroke-linecap="round"/>
</svg>
