<svg width="24" height="24" viewBox="0 0 24 24" fill="none" xmlns="http://www.w3.org/2000/svg">
<path d="M15.0364 16.8951C15.3294 17.1881 15.3292 17.6631 15.0361 17.9559C14.7433 18.2485 14.2687 18.2485 13.9759 17.9558L8.72693 12.7086C8.63378 12.6161 8.55985 12.506 8.5094 12.3847C8.45895 12.2635 8.43298 12.1335 8.43298 12.0021C8.43298 11.8708 8.45895 11.7408 8.5094 11.6195C8.55985 11.4983 8.63378 11.3882 8.72693 11.2956L13.9759 6.04572C14.2686 5.75296 14.7433 5.75294 15.036 6.04567C15.3287 6.33837 15.3287 6.81291 15.036 7.10563L10.1419 12.0006L15.0364 16.8951Z" fill="white"/>
</svg>
