<svg width="24" height="24" viewBox="0 0 24 24" fill="none" xmlns="http://www.w3.org/2000/svg">
<path fill-rule="evenodd" clip-rule="evenodd" d="M15.2197 0.21967C15.079 0.360322 15 0.551088 15 0.75V8.25C15 8.44891 15.079 8.63968 15.2197 8.78033C15.3603 8.92098 15.5511 9 15.75 9H18V21.75C18 21.9489 18.079 22.1397 18.2197 22.2803C18.3603 22.421 18.5511 22.5 18.75 22.5C18.9489 22.5 19.1397 22.421 19.2803 22.2803C19.421 22.1397 19.5 21.9489 19.5 21.75V9H21.75C21.9489 9 22.1397 8.92098 22.2803 8.78033C22.421 8.63968 22.5 8.44891 22.5 8.25V0.75C22.5 0.551088 22.421 0.360322 22.2803 0.21967C22.1397 0.0790176 21.9489 0 21.75 0H15.75C15.5511 0 15.3603 0.0790176 15.2197 0.21967ZM13.5 3H7.98C7.25048 2.99947 6.54577 3.26478 5.99773 3.74628C5.44969 4.22779 5.09588 4.89249 5.0025 5.616L4.7595 7.5H3.75C3.55109 7.5 3.36032 7.57902 3.21967 7.71967C3.07902 7.86032 3 8.05109 3 8.25C3 8.44891 3.07902 8.63968 3.21967 8.78033C3.36032 8.92098 3.55109 9 3.75 9H4.566L4.551 9.111C4.09994 9.25842 3.70704 9.54469 3.42847 9.92886C3.1499 10.313 2.99993 10.7755 3 11.25V15.75C3 16.3467 3.23705 16.919 3.65901 17.341C4.08097 17.7629 4.65326 18 5.25 18V19.875C5.25 20.1734 5.36853 20.4595 5.5795 20.6705C5.79048 20.8815 6.07663 21 6.375 21C6.67337 21 6.95952 20.8815 7.1705 20.6705C7.38147 20.4595 7.5 20.1734 7.5 19.875V18H16.5V16.5H5.25C5.05109 16.5 4.86032 16.421 4.71967 16.2803C4.57902 16.1397 4.5 15.9489 4.5 15.75V11.25C4.5 11.0511 4.57902 10.8603 4.71967 10.7197C4.86032 10.579 5.05109 10.5 5.25 10.5H15.7476C15.283 10.4998 14.8298 10.3557 14.4503 10.0875C14.0701 9.81881 13.7827 9.43887 13.6275 9H6.078L6.4905 5.808C6.53717 5.44637 6.71397 5.11412 6.98783 4.87339C7.2617 4.63265 7.61387 4.49992 7.9785 4.5H13.5V3ZM16.5015 12.441C16.3825 12.398 16.257 12.3765 16.125 12.3765H16.1235C15.5025 12.3765 15 12.879 15 13.5C14.9995 13.6803 15.0424 13.858 15.1252 14.0181C15.2079 14.1783 15.328 14.3161 15.4753 14.42C15.6226 14.5239 15.7928 14.5908 15.9714 14.615C16.15 14.6392 16.3319 14.62 16.5015 14.559V12.441ZM8.91448 13.9299C8.97094 13.7936 9 13.6475 9 13.5C9 13.202 8.88163 12.9163 8.67093 12.7056C8.46024 12.4949 8.17447 12.3765 7.8765 12.3765C7.57853 12.3765 7.29276 12.4949 7.08207 12.7056C6.87137 12.9163 6.753 13.202 6.753 13.5C6.753 13.6475 6.78206 13.7936 6.83852 13.9299C6.89498 14.0663 6.97774 14.1901 7.08207 14.2944C7.18639 14.3988 7.31025 14.4815 7.44656 14.538C7.58286 14.5944 7.72896 14.6235 7.8765 14.6235C8.02404 14.6235 8.17014 14.5944 8.30645 14.538C8.44275 14.4815 8.56661 14.3988 8.67093 14.2944C8.77526 14.1901 8.85802 14.0663 8.91448 13.9299ZM16.5 1H21C21.2761 1 21.5 1.22386 21.5 1.5V7.5C21.5 7.77614 21.2761 8 21 8H16.5C16.2239 8 16 7.77614 16 7.5V1.5C16 1.22386 16.2239 1 16.5 1Z" fill="#A66CFE"/>
</svg>
