<svg width="24" height="31" viewBox="0 0 24 31" fill="none" xmlns="http://www.w3.org/2000/svg">
<path d="M18.5522 1.23828H5.448C2.89368 1.23828 0.822998 3.30896 0.822998 5.86328V25.1341C0.822998 27.6884 2.89368 29.7591 5.448 29.7591H18.5522C21.1065 29.7591 23.1772 27.6884 23.1772 25.1341V5.86328C23.1772 3.30896 21.1065 1.23828 18.5522 1.23828Z" stroke="white" stroke-width="1.5" stroke-linecap="round" stroke-linejoin="round"/>
<path d="M16.2396 6.63281H7.76042C6.90898 6.63281 6.21875 7.32304 6.21875 8.17448V10.8724C6.21875 11.7238 6.90898 12.4141 7.76042 12.4141H16.2396C17.091 12.4141 17.7812 11.7238 17.7812 10.8724V8.17448C17.7812 7.32304 17.091 6.63281 16.2396 6.63281Z" stroke="white" stroke-width="1.5" stroke-linecap="round" stroke-linejoin="round"/>
<path d="M6.60417 19.3529C7.45561 19.3529 8.14583 18.6626 8.14583 17.8112C8.14583 16.9598 7.45561 16.2695 6.60417 16.2695C5.75273 16.2695 5.0625 16.9598 5.0625 17.8112C5.0625 18.6626 5.75273 19.3529 6.60417 19.3529Z" fill="white"/>
<path d="M12.0002 19.3529C12.8516 19.3529 13.5418 18.6626 13.5418 17.8112C13.5418 16.9598 12.8516 16.2695 12.0002 16.2695C11.1487 16.2695 10.4585 16.9598 10.4585 17.8112C10.4585 18.6626 11.1487 19.3529 12.0002 19.3529Z" fill="white"/>
<path d="M17.3959 19.3529C18.2474 19.3529 18.9376 18.6626 18.9376 17.8112C18.9376 16.9598 18.2474 16.2695 17.3959 16.2695C16.5445 16.2695 15.8542 16.9598 15.8542 17.8112C15.8542 18.6626 16.5445 19.3529 17.3959 19.3529Z" fill="white"/>
<path d="M6.60417 25.5208C7.45561 25.5208 8.14583 24.8306 8.14583 23.9792C8.14583 23.1277 7.45561 22.4375 6.60417 22.4375C5.75273 22.4375 5.0625 23.1277 5.0625 23.9792C5.0625 24.8306 5.75273 25.5208 6.60417 25.5208Z" fill="white"/>
<path d="M12.0002 25.5208C12.8516 25.5208 13.5418 24.8306 13.5418 23.9792C13.5418 23.1277 12.8516 22.4375 12.0002 22.4375C11.1487 22.4375 10.4585 23.1277 10.4585 23.9792C10.4585 24.8306 11.1487 25.5208 12.0002 25.5208Z" fill="white"/>
<path d="M17.3959 25.5208C18.2474 25.5208 18.9376 24.8306 18.9376 23.9792C18.9376 23.1277 18.2474 22.4375 17.3959 22.4375C16.5445 22.4375 15.8542 23.1277 15.8542 23.9792C15.8542 24.8306 16.5445 25.5208 17.3959 25.5208Z" fill="white"/>
</svg>
