<svg width="44" height="44" viewBox="0 0 44 44" fill="none" xmlns="http://www.w3.org/2000/svg">
<path d="M30.492 6.59998C31.7638 6.59973 32.9963 7.04021 33.9799 7.84646C34.9634 8.6527 35.6372 9.77488 35.8864 11.022L36.3198 13.2H37.95C38.3487 13.2 38.734 13.3444 39.0345 13.6065C39.335 13.8685 39.5304 14.2306 39.5846 14.6256L39.6 14.85C39.6 15.2487 39.4556 15.6339 39.1935 15.9344C38.9315 16.2349 38.5694 16.4303 38.1744 16.4846L37.95 16.5H36.9798L37.2262 17.732C37.9113 17.9323 38.5129 18.3493 38.9409 18.9205C39.3689 19.4917 39.6002 20.1862 39.6 20.9V31.9C39.6 32.7752 39.2523 33.6146 38.6335 34.2334C38.0146 34.8523 37.1752 35.2 36.3 35.2H35.2V37.4C35.2 37.9835 34.9682 38.543 34.5557 38.9556C34.1431 39.3682 33.5835 39.6 33 39.6C32.4165 39.6 31.857 39.3682 31.4444 38.9556C31.0318 38.543 30.8 37.9835 30.8 37.4V35.2H13.2V37.4C13.2 37.9835 12.9682 38.543 12.5557 38.9556C12.1431 39.3682 11.5835 39.6 11 39.6C10.4165 39.6 9.85697 39.3682 9.44439 38.9556C9.03181 38.543 8.80002 37.9835 8.80002 37.4V35.2H7.70002C6.82481 35.2 5.98544 34.8523 5.36657 34.2334C4.7477 33.6146 4.40002 32.7752 4.40002 31.9V20.9C4.39989 20.1862 4.63115 19.4917 5.05914 18.9205C5.48713 18.3493 6.08877 17.9323 6.77382 17.732L7.01802 16.5H6.05002C5.61242 16.5 5.19273 16.3261 4.8833 16.0167C4.57386 15.7073 4.40002 15.2876 4.40002 14.85C4.40002 14.4124 4.57386 13.9927 4.8833 13.6832C5.19273 13.3738 5.61242 13.2 6.05002 13.2H7.67802L8.11362 11.022C8.36289 9.77488 9.03663 8.6527 10.0202 7.84646C11.0037 7.04021 12.2363 6.59973 13.508 6.59998H30.492ZM36.3 19.8H7.70002C7.40829 19.8 7.1285 19.9159 6.92221 20.1222C6.71592 20.3284 6.60002 20.6082 6.60002 20.9V31.9C6.60002 32.1917 6.71592 32.4715 6.92221 32.6778C7.1285 32.8841 7.40829 33 7.70002 33H36.3C36.5918 33 36.8716 32.8841 37.0778 32.6778C37.2841 32.4715 37.4 32.1917 37.4 31.9V20.9C37.4 20.6082 37.2841 20.3284 37.0778 20.1222C36.8716 19.9159 36.5918 19.8 36.3 19.8ZM13.2 24.2C13.7835 24.2 14.3431 24.4318 14.7557 24.8443C15.1682 25.2569 15.4 25.8165 15.4 26.4C15.4 26.9835 15.1682 27.543 14.7557 27.9556C14.3431 28.3682 13.7835 28.6 13.2 28.6C12.6165 28.6 12.057 28.3682 11.6444 27.9556C11.2318 27.543 11 26.9835 11 26.4C11 25.8165 11.2318 25.2569 11.6444 24.8443C12.057 24.4318 12.6165 24.2 13.2 24.2ZM30.8 24.2C31.3835 24.2 31.9431 24.4318 32.3557 24.8443C32.7682 25.2569 33 25.8165 33 26.4C33 26.9835 32.7682 27.543 32.3557 27.9556C31.9431 28.3682 31.3835 28.6 30.8 28.6C30.2165 28.6 29.657 28.3682 29.2444 27.9556C28.8318 27.543 28.6 26.9835 28.6 26.4C28.6 25.8165 28.8318 25.2569 29.2444 24.8443C29.657 24.4318 30.2165 24.2 30.8 24.2ZM30.492 8.79998H13.508C12.745 8.79993 12.0056 9.06427 11.4156 9.548C10.8255 10.0317 10.4214 10.705 10.2718 11.4532L9.03982 17.6H34.958L33.7282 11.4532C33.5788 10.7054 33.1749 10.0324 32.5853 9.5487C31.9957 9.06501 31.2568 8.80044 30.4942 8.79998" fill="black"/>
</svg>
