<svg width="32" height="32" viewBox="0 0 32 32" fill="none" xmlns="http://www.w3.org/2000/svg">
<path d="M22.1762 4.80078C23.1011 4.8006 23.9975 5.12095 24.7128 5.70731C25.4281 6.29367 25.9181 7.1098 26.0994 8.01678L26.4146 9.60078H27.6002C27.8902 9.60079 28.1703 9.70581 28.3889 9.89641C28.6074 10.087 28.7496 10.3503 28.789 10.6376L28.8002 10.8008C28.8002 11.0908 28.6952 11.3709 28.5046 11.5895C28.314 11.808 28.0507 11.9501 27.7634 11.9896L27.6002 12.0008H26.8946L27.0738 12.8968C27.572 13.0425 28.0096 13.3458 28.3208 13.7612C28.6321 14.1766 28.8003 14.6817 28.8002 15.2008V23.2008C28.8002 23.8373 28.5473 24.4478 28.0972 24.8978C27.6472 25.3479 27.0367 25.6008 26.4002 25.6008H25.6002V27.2008C25.6002 27.6251 25.4316 28.0321 25.1316 28.3322C24.8315 28.6322 24.4245 28.8008 24.0002 28.8008C23.5758 28.8008 23.1689 28.6322 22.8688 28.3322C22.5688 28.0321 22.4002 27.6251 22.4002 27.2008V25.6008H9.6002V27.2008C9.6002 27.6251 9.43162 28.0321 9.13157 28.3322C8.83151 28.6322 8.42454 28.8008 8.0002 28.8008C7.57585 28.8008 7.16888 28.6322 6.86882 28.3322C6.56877 28.0321 6.4002 27.6251 6.4002 27.2008V25.6008H5.6002C4.96368 25.6008 4.35323 25.3479 3.90314 24.8978C3.45305 24.4478 3.2002 23.8373 3.2002 23.2008V15.2008C3.20009 14.6817 3.36829 14.1766 3.67956 13.7612C3.99082 13.3458 4.42838 13.0425 4.9266 12.8968L5.1042 12.0008H4.4002C4.08194 12.0008 3.77671 11.8744 3.55167 11.6493C3.32662 11.4243 3.2002 11.119 3.2002 10.8008C3.2002 10.4825 3.32662 10.1773 3.55167 9.95225C3.77671 9.72721 4.08194 9.60078 4.4002 9.60078H5.5842L5.901 8.01678C6.08228 7.1098 6.57227 6.29367 7.28758 5.70731C8.00288 5.12095 8.89928 4.8006 9.8242 4.80078H22.1762ZM26.4002 14.4008H5.6002C5.38802 14.4008 5.18454 14.4851 5.03451 14.6351C4.88448 14.7851 4.8002 14.9886 4.8002 15.2008V23.2008C4.8002 23.413 4.88448 23.6164 5.03451 23.7665C5.18454 23.9165 5.38802 24.0008 5.6002 24.0008H26.4002C26.6124 24.0008 26.8159 23.9165 26.9659 23.7665C27.1159 23.6164 27.2002 23.413 27.2002 23.2008V15.2008C27.2002 14.9886 27.1159 14.7851 26.9659 14.6351C26.8159 14.4851 26.6124 14.4008 26.4002 14.4008ZM9.6002 17.6008C10.0245 17.6008 10.4315 17.7694 10.7316 18.0694C11.0316 18.3695 11.2002 18.7764 11.2002 19.2008C11.2002 19.6251 11.0316 20.0321 10.7316 20.3322C10.4315 20.6322 10.0245 20.8008 9.6002 20.8008C9.17585 20.8008 8.76888 20.6322 8.46882 20.3322C8.16877 20.0321 8.0002 19.6251 8.0002 19.2008C8.0002 18.7764 8.16877 18.3695 8.46882 18.0694C8.76888 17.7694 9.17585 17.6008 9.6002 17.6008ZM22.4002 17.6008C22.8245 17.6008 23.2315 17.7694 23.5316 18.0694C23.8316 18.3695 24.0002 18.7764 24.0002 19.2008C24.0002 19.6251 23.8316 20.0321 23.5316 20.3322C23.2315 20.6322 22.8245 20.8008 22.4002 20.8008C21.9758 20.8008 21.5689 20.6322 21.2688 20.3322C20.9688 20.0321 20.8002 19.6251 20.8002 19.2008C20.8002 18.7764 20.9688 18.3695 21.2688 18.0694C21.5689 17.7694 21.9758 17.6008 22.4002 17.6008ZM22.1762 6.40078H9.8242C9.2693 6.40075 8.73153 6.59299 8.30242 6.9448C7.8733 7.29661 7.57936 7.78625 7.4706 8.33038L6.5746 12.8008H25.4242L24.5298 8.33038C24.4211 7.78652 24.1274 7.29709 23.6986 6.94531C23.2698 6.59353 22.7324 6.40112 22.1778 6.40078" fill="white"/>
</svg>
