<svg width="20" height="20" viewBox="0 0 20 20" fill="none" xmlns="http://www.w3.org/2000/svg">
<path d="M1.6665 10.0007C1.6665 6.85815 1.6665 5.28648 2.64317 4.31065C3.61984 3.33482 5.19067 3.33398 8.33317 3.33398H11.6665C14.809 3.33398 16.3807 3.33398 17.3565 4.31065C18.3323 5.28732 18.3332 6.85815 18.3332 10.0007C18.3332 13.1432 18.3332 14.7148 17.3565 15.6907C16.3798 16.6665 14.809 16.6673 11.6665 16.6673H8.33317C5.19067 16.6673 3.619 16.6673 2.64317 15.6907C1.66734 14.714 1.6665 13.1432 1.6665 10.0007Z" stroke="white" stroke-width="1.5"/>
<path d="M8.33317 13.334H4.99984M11.6665 13.334H10.4165M1.6665 8.33398H18.3332" stroke="white" stroke-width="1.5" stroke-linecap="round"/>
</svg>
