<svg width="22" height="17" viewBox="0 0 22 17" fill="none" xmlns="http://www.w3.org/2000/svg">
<path d="M21 7.679V14.25C21 14.7804 20.7893 15.2891 20.4142 15.6642C20.0391 16.0393 19.5304 16.25 19 16.25H6C5.46957 16.25 4.96086 16.0393 4.58579 15.6642C4.21071 15.2891 4 14.7804 4 14.25V12.75M21 7.679V6.25C21 5.71957 20.7893 5.21086 20.4142 4.83579C20.0391 4.46071 19.5304 4.25 19 4.25H18M21 7.679H18" stroke="white" stroke-width="1.5" stroke-linecap="round" stroke-linejoin="round"/>
<path d="M18 4.25V10.75C18 11.2804 17.7893 11.7891 17.4142 12.1642C17.0391 12.5393 16.5304 12.75 16 12.75H3C2.46957 12.75 1.96086 12.5393 1.58579 12.1642C1.21071 11.7891 1 11.2804 1 10.75V2.75C1 2.21957 1.21071 1.71086 1.58579 1.33579C1.96086 0.960714 2.46957 0.75 3 0.75H16C16.5304 0.75 17.0391 0.960714 17.4142 1.33579C17.7893 1.71086 18 2.21957 18 2.75V4.25ZM18 4.25H4.5" stroke="white" stroke-width="1.5" stroke-linecap="round" stroke-linejoin="round"/>
</svg>
