<svg width="32" height="33" viewBox="0 0 32 33" fill="none" xmlns="http://www.w3.org/2000/svg">
<path d="M18.4173 17.7845C17.5084 17.7845 16.744 17.4827 16.1241 16.8792C15.5042 16.2756 15.1942 15.5314 15.1942 14.6464C15.1942 13.7615 15.5042 13.0173 16.1241 12.4137C16.744 11.8101 17.5084 11.5084 18.4173 11.5084C19.3262 11.5084 20.0906 11.8101 20.7105 12.4137C21.3304 13.0173 21.6403 13.7615 21.6403 14.6464C21.6403 15.5314 21.3304 16.2756 20.7105 16.8792C20.0906 17.4827 19.3262 17.7845 18.4173 17.7845ZM8.43876 22.7945C7.72217 22.7945 7.10926 22.546 6.60002 22.0492C6.08971 21.5523 5.83455 20.9555 5.83455 20.2589V9.034C5.83455 8.33734 6.08971 7.74111 6.60002 7.24529C7.11033 6.74948 7.72271 6.50105 8.43715 6.5H28.3958C29.1124 6.5 29.7253 6.74791 30.2345 7.24372C30.7438 7.73954 30.9989 8.3363 31 9.034V20.2589C31 20.9555 30.7448 21.5518 30.2345 22.0476C29.7253 22.5455 29.1129 22.7945 28.3974 22.7945H8.43876ZM10.0503 21.2254H26.7843C26.7843 20.5225 27.0394 19.9242 27.5497 19.4304C28.059 18.9367 28.6714 18.6899 29.3869 18.6899V10.603C28.6671 10.603 28.0536 10.3551 27.5465 9.85931C27.0384 9.36245 26.7843 8.76569 26.7843 8.06904H10.0503C10.0503 8.77092 9.79512 9.36872 9.28481 9.86245C8.77557 10.3562 8.16319 10.603 7.44768 10.603V18.6899C8.16749 18.6899 8.78148 18.9383 9.28964 19.4351C9.79673 19.931 10.0503 20.5272 10.0503 21.2238M26.2267 27.5H3.60421C2.88762 27.5 2.27471 27.2521 1.76547 26.7563C1.25516 26.2594 1 25.6627 1 24.966V11.1459H2.61152V24.966C2.61152 25.2066 2.71465 25.4278 2.92093 25.6297C3.12828 25.8316 3.35604 25.9325 3.60421 25.9325H26.2267V27.5ZM8.43876 21.2238H7.44607V8.07061H8.43876C8.17018 8.07061 7.93758 8.16632 7.74097 8.35774C7.54437 8.54916 7.44607 8.7751 7.44607 9.03557V20.2589C7.44607 20.5204 7.54437 20.7469 7.74097 20.9383C7.93758 21.1297 8.17018 21.2254 8.43876 21.2254" fill="white"/>
</svg>
