<svg width="32" height="32" viewBox="0 0 32 32" fill="none" xmlns="http://www.w3.org/2000/svg">
<path d="M25.3334 26.666V18.666M25.3334 18.666L28.0001 21.3327M25.3334 18.666L22.6667 21.3327" stroke="white" stroke-width="1.5" stroke-linecap="round" stroke-linejoin="round"/>
<path d="M29.3334 15.9997C29.3334 10.9717 29.3334 8.45701 27.7707 6.89567C26.2081 5.33434 23.6947 5.33301 18.6667 5.33301H13.3334C8.30541 5.33301 5.79075 5.33301 4.22941 6.89567C2.66808 8.45834 2.66675 10.9717 2.66675 15.9997C2.66675 21.0277 2.66675 23.5423 4.22941 25.1037C5.79208 26.665 8.30541 26.6663 13.3334 26.6663H18.6667M13.3334 21.333H8.00008M17.3334 21.333H16.6667M2.66675 13.333H29.3334" stroke="white" stroke-width="1.5" stroke-linecap="round"/>
</svg>
