<svg width="20" height="16" viewBox="0 0 20 16" fill="none" xmlns="http://www.w3.org/2000/svg">
<path d="M1.66675 7.99967C1.66675 4.85717 1.66675 3.28551 2.64341 2.30967C3.62008 1.33384 5.19091 1.33301 8.33341 1.33301H11.6667C14.8092 1.33301 16.3809 1.33301 17.3567 2.30967C18.3326 3.28634 18.3334 4.85717 18.3334 7.99967C18.3334 11.1422 18.3334 12.7138 17.3567 13.6897C16.3801 14.6655 14.8092 14.6663 11.6667 14.6663H8.33341C5.19091 14.6663 3.61925 14.6663 2.64341 13.6897C1.66758 12.713 1.66675 11.1422 1.66675 7.99967Z" stroke="white" stroke-width="1.5"/>
<path d="M8.33341 11.333H5.00008M11.6667 11.333H10.4167M1.66675 6.33301H18.3334" stroke="white" stroke-width="1.5" stroke-linecap="round"/>
</svg>
