<svg width="30" height="24" viewBox="0 0 30 24" fill="none" xmlns="http://www.w3.org/2000/svg">
<path d="M1.66675 11.9997C1.66675 6.97167 1.66675 4.45701 3.22941 2.89567C4.79208 1.33434 7.30541 1.33301 12.3334 1.33301H17.6667C22.6947 1.33301 25.2094 1.33301 26.7707 2.89567C28.3321 4.45834 28.3334 6.97167 28.3334 11.9997C28.3334 17.0277 28.3334 19.5423 26.7707 21.1037C25.2081 22.665 22.6947 22.6663 17.6667 22.6663H12.3334C7.30541 22.6663 4.79075 22.6663 3.22941 21.1037C1.66808 19.541 1.66675 17.0277 1.66675 11.9997Z" stroke="white" stroke-width="1.5"/>
<path d="M12.3334 17.333H7.00008M17.6667 17.333H15.6667M1.66675 9.33301H28.3334" stroke="white" stroke-width="1.5" stroke-linecap="round"/>
</svg>
