<svg width="32" height="32" viewBox="0 0 32 32" fill="none" xmlns="http://www.w3.org/2000/svg">
<path d="M6.35419 25H29V1H6.29169C5.28706 1.00323 4.32451 1.40375 3.61413 2.11413C2.90375 2.82451 2.50323 3.78706 2.5 4.79169V26.8906C2.5 26.9001 2.5 26.9094 2.5 26.9189C2.5 29.1314 4.23638 31.0002 6.29169 31.0002H29V29H6.29169C5.354 29 4.5 28.0081 4.5 26.9188C4.5 25.8788 5.34906 25 6.35419 25ZM22.5 3.02081V13.8218L19.475 11.1662L16.5 13.8063V3.02081H22.5ZM14.5 3V16.5H16.4776L19.4823 13.8338L22.5191 16.5H24.5V3H27V23H8.505L8.5 3H14.5ZM6.29169 3H6.5L6.50475 23H6.35394C5.70362 23.0001 5.06459 23.17 4.5 23.4927V4.80731C4.49847 4.33022 4.68625 3.872 5.02214 3.53318C5.35803 3.19436 5.8146 3.00261 6.29169 3Z" fill="#A66CFE"/>
</svg>
