<svg width="25" height="25" viewBox="0 0 25 25" fill="none" xmlns="http://www.w3.org/2000/svg">
<path d="M19.5679 3.125L22.1802 10.9375H23.4375V12.5H23.1689C23.0062 12.9639 22.7783 13.387 22.4854 13.7695C22.1924 14.152 21.8506 14.4816 21.46 14.7583C21.0693 15.035 20.6462 15.2466 20.1904 15.3931C19.7347 15.5396 19.2546 15.6169 18.75 15.625C18.2536 15.625 17.7775 15.5518 17.3218 15.4053C16.866 15.2588 16.4429 15.0472 16.0522 14.7705C15.6616 14.4938 15.3198 14.1642 15.0269 13.7817C14.7339 13.3993 14.502 12.972 14.3311 12.5H14.0625V10.9375H15.3198L17.9321 3.125H12.5V20.3369C13.859 20.4264 15.1449 20.7316 16.3574 21.2524C17.57 21.7733 18.6808 22.5016 19.6899 23.4375H21.875V25H1.5625V23.4375H3.74756C4.74854 22.5098 5.85531 21.7855 7.06787 21.2646C8.28044 20.7438 9.57031 20.4346 10.9375 20.3369V3.125H5.50537L8.11768 10.9375H9.375V12.5H9.10645C8.94368 12.9639 8.71582 13.387 8.42285 13.7695C8.12988 14.152 7.78809 14.4816 7.39746 14.7583C7.00684 15.035 6.58366 15.2466 6.12793 15.3931C5.6722 15.5396 5.19206 15.6169 4.6875 15.625C4.19108 15.625 3.71501 15.5518 3.25928 15.4053C2.80355 15.2588 2.38037 15.0472 1.98975 14.7705C1.59912 14.4938 1.25732 14.1642 0.964355 13.7817C0.671387 13.3993 0.439453 12.972 0.268555 12.5H0V10.9375H1.25732L3.86963 3.125H0V1.5625H10.9375V0H12.5V1.5625H23.4375V3.125H19.5679ZM4.6875 5.59082L2.90527 10.9375H6.46973L4.6875 5.59082ZM4.6875 14.0625C5.24902 14.0625 5.76986 13.9242 6.25 13.6475C6.73014 13.3708 7.11263 12.9883 7.39746 12.5H1.97754C2.26237 12.9883 2.64486 13.3708 3.125 13.6475C3.60514 13.9242 4.12598 14.0625 4.6875 14.0625ZM17.1387 23.4375C16.3249 22.9248 15.4582 22.5382 14.5386 22.2778C13.619 22.0174 12.679 21.8831 11.7188 21.875C10.7585 21.875 9.81852 22.0052 8.89893 22.2656C7.97933 22.526 7.11263 22.9167 6.29883 23.4375H17.1387ZM18.75 5.59082L16.9678 10.9375H20.5322L18.75 5.59082ZM18.75 14.0625C19.3115 14.0625 19.8324 13.9242 20.3125 13.6475C20.7926 13.3708 21.1751 12.9883 21.46 12.5H16.04C16.3249 12.9883 16.7074 13.3708 17.1875 13.6475C17.6676 13.9242 18.1885 14.0625 18.75 14.0625Z" fill="white"/>
</svg>
