<svg width="16" height="17" viewBox="0 0 16 17" fill="none" xmlns="http://www.w3.org/2000/svg">
<path d="M4 7.83398C4 5.94865 4 5.00532 4.586 4.41998C5.17133 3.83398 6.11467 3.83398 8 3.83398H10C11.8853 3.83398 12.8287 3.83398 13.414 4.41998C14 5.00532 14 5.94865 14 7.83398V11.1673C14 13.0527 14 13.996 13.414 14.5813C12.8287 15.1673 11.8853 15.1673 10 15.1673H8C6.11467 15.1673 5.17133 15.1673 4.586 14.5813C4 13.996 4 13.0527 4 11.1673V7.83398Z" stroke="white"/>
<path d="M4 13.1673C3.46957 13.1673 2.96086 12.9566 2.58579 12.5815C2.21071 12.2065 2 11.6978 2 11.1673V7.16732C2 4.65332 2 3.39598 2.78133 2.61532C3.56267 1.83465 4.81933 1.83398 7.33333 1.83398H10C10.5304 1.83398 11.0391 2.0447 11.4142 2.41977C11.7893 2.79484 12 3.30355 12 3.83398" stroke="white"/>
</svg>
