<svg width="24" height="24" viewBox="0 0 24 24" fill="none" xmlns="http://www.w3.org/2000/svg">
<path d="M5.57144 6.8577C5.57144 5.91142 6.17572 4.96256 7.34486 4.2177C8.50629 3.47884 10.1503 3.00056 12 3.00056C13.8497 3.00056 15.4937 3.47884 16.6551 4.2177C17.8243 4.96342 18.4286 5.91142 18.4286 6.8577C18.4286 7.80399 17.8243 8.75284 16.6551 9.4977C15.4937 10.2366 13.8497 10.7148 12 10.7148C10.1503 10.7148 8.50629 10.2366 7.34486 9.4977C6.17572 8.75199 5.57144 7.80399 5.57144 6.8577ZM12 1.71484C9.94372 1.71484 8.05201 2.2437 6.65486 3.13342C5.26458 4.01799 4.28572 5.31913 4.28572 6.8577C4.28572 8.39627 5.26458 9.69742 6.65486 10.582C8.05201 11.4717 9.94286 12.0006 12 12.0006C14.0571 12.0006 15.948 11.4717 17.3451 10.582C18.7354 9.69742 19.7143 8.39627 19.7143 6.8577C19.7143 5.31913 18.7354 4.01799 17.3451 3.13342C15.948 2.2437 14.0571 1.71484 12 1.71484ZM5.57144 12.0006C5.57144 11.6731 5.64344 11.3457 5.78572 11.0268C5.42715 10.7659 5.09474 10.4708 4.79315 10.1457C4.46285 10.7082 4.28775 11.3483 4.28572 12.0006C4.28572 13.5391 5.26458 14.8403 6.65486 15.7248C8.05201 16.6146 9.94286 17.1434 12 17.1434C14.0571 17.1434 15.948 16.6146 17.3451 15.7248C18.7354 14.8403 19.7143 13.5391 19.7143 12.0006C19.7143 11.332 19.53 10.7097 19.2069 10.1457C18.9077 10.4697 18.5726 10.7646 18.2134 11.0268C18.3566 11.3457 18.4286 11.6731 18.4286 12.0006C18.4286 12.9477 17.8243 13.8966 16.6551 14.6406C15.4937 15.3794 13.8497 15.8577 12 15.8577C10.1503 15.8577 8.50629 15.3794 7.34486 14.6406C6.17572 13.8966 5.57144 12.9477 5.57144 12.0006ZM5.57144 17.1434C5.57144 16.816 5.64344 16.4886 5.78572 16.1697C5.42715 15.9088 5.09474 15.6137 4.79315 15.2886C4.46285 15.851 4.28775 16.4911 4.28572 17.1434C4.28572 18.682 5.26458 19.9831 6.65486 20.8677C8.05201 21.7574 9.94286 22.2863 12 22.2863C14.0571 22.2863 15.948 21.7574 17.3451 20.8677C18.7354 19.9831 19.7143 18.682 19.7143 17.1434C19.7143 16.4748 19.53 15.8526 19.2069 15.2886C18.9077 15.6126 18.5726 15.9074 18.2134 16.1697C18.3566 16.4886 18.4286 16.816 18.4286 17.1434C18.4286 18.0897 17.8243 19.0386 16.6551 19.7834C15.4937 20.5223 13.8497 21.0006 12 21.0006C10.1503 21.0006 8.50629 20.5223 7.34486 19.7834C6.17572 19.0377 5.57144 18.0897 5.57144 17.1434Z" fill="#CFF500"/>
</svg>
