<svg width="24" height="24" viewBox="0 0 24 24" fill="none" xmlns="http://www.w3.org/2000/svg">
<path d="M16.632 3.59961C17.3257 3.59947 17.998 3.83974 18.5345 4.27951C19.0709 4.71928 19.4384 5.33138 19.5744 6.01161L19.8108 7.19961H20.7C20.9175 7.19962 21.1276 7.27838 21.2915 7.42133C21.4554 7.56428 21.562 7.76174 21.5916 7.97721L21.6 8.09961C21.6 8.31709 21.5212 8.52722 21.3783 8.69113C21.2353 8.85503 21.0379 8.96163 20.8224 8.99121L20.7 8.99961H20.1708L20.3052 9.67161C20.6789 9.78088 21.007 10.0083 21.2405 10.3199C21.4739 10.6315 21.6001 11.0103 21.6 11.3996V17.3996C21.6 17.877 21.4104 18.3348 21.0728 18.6724C20.7352 19.01 20.2774 19.1996 19.8 19.1996H19.2V20.3996C19.2 20.7179 19.0736 21.0231 18.8485 21.2481C18.6235 21.4732 18.3183 21.5996 18 21.5996C17.6817 21.5996 17.3765 21.4732 17.1515 21.2481C16.9264 21.0231 16.8 20.7179 16.8 20.3996V19.1996H7.19999V20.3996C7.19999 20.7179 7.07357 21.0231 6.84852 21.2481C6.62348 21.4732 6.31825 21.5996 5.99999 21.5996C5.68173 21.5996 5.37651 21.4732 5.15147 21.2481C4.92642 21.0231 4.79999 20.7179 4.79999 20.3996V19.1996H4.19999C3.7226 19.1996 3.26477 19.01 2.9272 18.6724C2.58964 18.3348 2.39999 17.877 2.39999 17.3996V11.3996C2.39992 11.0103 2.52606 10.6315 2.75951 10.3199C2.99296 10.0083 3.32113 9.78088 3.69479 9.67161L3.82799 8.99961H3.29999C3.0613 8.99961 2.83238 8.90479 2.6636 8.73601C2.49481 8.56722 2.39999 8.3383 2.39999 8.09961C2.39999 7.86091 2.49481 7.632 2.6636 7.46321C2.83238 7.29443 3.0613 7.19961 3.29999 7.19961H4.18799L4.42559 6.01161C4.56156 5.33138 4.92905 4.71928 5.46553 4.27951C6.00201 3.83974 6.6743 3.59947 7.36799 3.59961H16.632ZM19.8 10.7996H4.19999C4.04086 10.7996 3.88825 10.8628 3.77573 10.9753C3.66321 11.0879 3.59999 11.2405 3.59999 11.3996V17.3996C3.59999 17.5587 3.66321 17.7114 3.77573 17.8239C3.88825 17.9364 4.04086 17.9996 4.19999 17.9996H19.8C19.9591 17.9996 20.1117 17.9364 20.2243 17.8239C20.3368 17.7114 20.4 17.5587 20.4 17.3996V11.3996C20.4 11.2405 20.3368 11.0879 20.2243 10.9753C20.1117 10.8628 19.9591 10.7996 19.8 10.7996ZM7.19999 13.1996C7.51825 13.1996 7.82348 13.326 8.04852 13.5511C8.27357 13.7761 8.39999 14.0814 8.39999 14.3996C8.39999 14.7179 8.27357 15.0231 8.04852 15.2481C7.82348 15.4732 7.51825 15.5996 7.19999 15.5996C6.88173 15.5996 6.57651 15.4732 6.35147 15.2481C6.12642 15.0231 5.99999 14.7179 5.99999 14.3996C5.99999 14.0814 6.12642 13.7761 6.35147 13.5511C6.57651 13.326 6.88173 13.1996 7.19999 13.1996ZM16.8 13.1996C17.1183 13.1996 17.4235 13.326 17.6485 13.5511C17.8736 13.7761 18 14.0814 18 14.3996C18 14.7179 17.8736 15.0231 17.6485 15.2481C17.4235 15.4732 17.1183 15.5996 16.8 15.5996C16.4817 15.5996 16.1765 15.4732 15.9515 15.2481C15.7264 15.0231 15.6 14.7179 15.6 14.3996C15.6 14.0814 15.7264 13.7761 15.9515 13.5511C16.1765 13.326 16.4817 13.1996 16.8 13.1996ZM16.632 4.79961H7.36799C6.95182 4.79958 6.5485 4.94377 6.22666 5.20763C5.90483 5.47148 5.68436 5.83871 5.60279 6.24681L4.93079 9.59961H19.068L18.3972 6.24681C18.3157 5.83891 18.0954 5.47184 17.7738 5.20801C17.4522 4.94417 17.0492 4.79986 16.6332 4.79961" fill="#CFF500"/>
</svg>
