<svg width="8" height="14" viewBox="0 0 8 14" fill="none" xmlns="http://www.w3.org/2000/svg">
<path d="M0.963567 2.10555C0.670595 1.81258 0.670707 1.33754 0.963817 1.04471C1.2567 0.752103 1.73127 0.752173 2.02407 1.04486L7.27302 6.292C7.36618 6.38457 7.4401 6.49464 7.49055 6.61589C7.541 6.73714 7.56697 6.86717 7.56697 6.9985C7.56697 7.12983 7.541 7.25986 7.49055 7.38111C7.4401 7.50236 7.36618 7.61243 7.27302 7.705L2.02402 12.9549C1.73132 13.2477 1.2567 13.2477 0.963973 12.955C0.67128 12.6623 0.671258 12.1877 0.963924 11.895L5.85802 7L0.963567 2.10555Z" fill="white"/>
</svg>
