<svg width="33" height="31" viewBox="0 0 33 31" fill="none" xmlns="http://www.w3.org/2000/svg">
<rect x="0.474609" width="32" height="31" rx="15" fill="#A66CFE"/>
<path d="M11.4746 15.5H17.7246M11.4746 18H20.2246M11.4746 20.5H15.2246M23.9746 21.75V13L17.7246 6.75H11.4746C10.8116 6.75 10.1757 7.01339 9.70684 7.48223C9.238 7.95107 8.97461 8.58696 8.97461 9.25V21.75C8.97461 22.413 9.238 23.0489 9.70684 23.5178C10.1757 23.9866 10.8116 24.25 11.4746 24.25H21.4746C22.1377 24.25 22.7735 23.9866 23.2424 23.5178C23.7112 23.0489 23.9746 22.413 23.9746 21.75Z" stroke="white" stroke-width="1.5" stroke-linecap="round" stroke-linejoin="round"/>
<path d="M17.7246 6.75V10.5C17.7246 11.163 17.988 11.7989 18.4568 12.2678C18.9257 12.7366 19.5616 13 20.2246 13H23.9746" stroke="white" stroke-width="1.5" stroke-linecap="round" stroke-linejoin="round"/>
</svg>
