<svg width="7" height="11" viewBox="0 0 7 11" fill="none" xmlns="http://www.w3.org/2000/svg">
<path d="M6.41772 7.45611C6.41772 8.0253 6.20444 8.51545 5.77787 8.92653C5.35131 9.33762 4.7972 9.59152 4.11555 9.68825V10.6648C4.11555 10.7169 4.09626 10.7597 4.05768 10.7932C4.01909 10.8266 3.96979 10.8434 3.90977 10.8434H3.04163C2.9859 10.8434 2.93767 10.8257 2.89694 10.7904C2.85621 10.755 2.83585 10.7132 2.83585 10.6648V9.68825C2.5529 9.65477 2.2796 9.5971 2.01594 9.51526C1.75229 9.43341 1.53472 9.35064 1.36323 9.26693C1.19175 9.18323 1.03312 9.09394 0.887363 8.99908C0.741602 8.90421 0.641927 8.83446 0.588338 8.78981C0.534749 8.74517 0.497237 8.71169 0.475801 8.68937C0.402921 8.61124 0.398634 8.53498 0.46294 8.46057L1.1253 7.70722C1.15531 7.67002 1.20461 7.6477 1.2732 7.64026C1.33751 7.63282 1.38895 7.64956 1.42754 7.69048L1.4404 7.70164C1.92484 8.06995 2.44572 8.30246 3.00305 8.39919C3.16167 8.42895 3.32029 8.44383 3.47892 8.44383C3.82617 8.44383 4.13163 8.36385 4.39528 8.20388C4.65894 8.0439 4.79077 7.81697 4.79077 7.52307C4.79077 7.4189 4.75862 7.32032 4.69431 7.22731C4.63 7.13431 4.55819 7.05618 4.47888 6.99294C4.39957 6.92969 4.27417 6.85994 4.10269 6.78367C3.93121 6.70741 3.78973 6.64789 3.67827 6.6051C3.5668 6.56232 3.39532 6.50187 3.16381 6.42374C2.99662 6.36422 2.86479 6.31771 2.76833 6.28423C2.67187 6.25075 2.54004 6.20146 2.37284 6.13635C2.20565 6.07125 2.07168 6.01358 1.97093 5.96336C1.87018 5.91314 1.74907 5.8471 1.6076 5.76526C1.46612 5.68341 1.35144 5.60436 1.26356 5.52809C1.17567 5.45183 1.08243 5.36068 0.983823 5.25466C0.88522 5.14863 0.809124 5.04074 0.755535 4.931C0.701946 4.82125 0.656932 4.69755 0.620491 4.5599C0.584051 4.42225 0.565831 4.27716 0.565831 4.12463C0.565831 3.61124 0.775899 3.16109 1.19603 2.77419C1.61617 2.38728 2.16278 2.13803 2.83585 2.02642V1.02196C2.83585 0.973592 2.85621 0.931739 2.89694 0.896397C2.93767 0.861055 2.9859 0.843384 3.04163 0.843384H3.90977C3.96979 0.843384 4.01909 0.860125 4.05768 0.893607C4.09626 0.927089 4.11555 0.969872 4.11555 1.02196V2.0041C4.35992 2.02642 4.59678 2.0692 4.82614 2.13245C5.0555 2.19569 5.24199 2.258 5.3856 2.31939C5.52922 2.38077 5.66534 2.45053 5.79395 2.52865C5.92256 2.60678 6.00616 2.66072 6.04475 2.69048C6.08333 2.72024 6.11548 2.74629 6.14121 2.76861C6.21409 2.83557 6.22481 2.90626 6.17336 2.98066L5.65248 3.79539C5.61818 3.8512 5.56888 3.88096 5.50457 3.88468C5.44455 3.89584 5.38668 3.88282 5.33094 3.84562C5.31808 3.83446 5.287 3.81213 5.2377 3.77865C5.1884 3.74517 5.1048 3.69588 4.9869 3.63077C4.86901 3.56567 4.74361 3.50614 4.61071 3.4522C4.47781 3.39826 4.31812 3.34989 4.13163 3.30711C3.94514 3.26433 3.76187 3.24294 3.58181 3.24294C3.17453 3.24294 2.84228 3.32292 2.58506 3.48289C2.32783 3.64286 2.19922 3.84934 2.19922 4.10231C2.19922 4.19904 2.21744 4.28832 2.25388 4.37017C2.29032 4.45201 2.35355 4.52921 2.44358 4.60175C2.53361 4.6743 2.61828 4.73568 2.69759 4.78591C2.7769 4.83613 2.89694 4.89379 3.05771 4.9589C3.21847 5.024 3.34816 5.07422 3.44676 5.10957C3.54537 5.14491 3.69542 5.19606 3.89691 5.26303C4.12413 5.33743 4.29775 5.39603 4.41779 5.43881C4.53783 5.48159 4.70074 5.54669 4.90652 5.63412C5.1123 5.72155 5.27414 5.8006 5.39204 5.87129C5.50993 5.94197 5.64283 6.03498 5.79074 6.1503C5.93864 6.26563 6.05225 6.38375 6.13156 6.50466C6.21087 6.62556 6.27839 6.76786 6.33413 6.93155C6.38986 7.09524 6.41772 7.2701 6.41772 7.45611Z" fill="white" fill-opacity="0.6"/>
</svg>
