<svg width="7" height="11" viewBox="0 0 7 11" fill="none" xmlns="http://www.w3.org/2000/svg">
<path d="M6.4176 7.45611C6.4176 8.0253 6.20432 8.51545 5.77775 8.92653C5.35119 9.33762 4.79708 9.59152 4.11543 9.68825V10.6648C4.11543 10.7169 4.09614 10.7597 4.05755 10.7932C4.01897 10.8266 3.96967 10.8434 3.90965 10.8434H3.04151C2.98578 10.8434 2.93755 10.8257 2.89682 10.7904C2.85609 10.755 2.83573 10.7132 2.83573 10.6648V9.68825C2.55278 9.65477 2.27948 9.5971 2.01582 9.51526C1.75216 9.43341 1.53459 9.35064 1.36311 9.26693C1.19163 9.18323 1.033 9.09394 0.887241 8.99908C0.74148 8.90421 0.641805 8.83446 0.588216 8.78981C0.534627 8.74517 0.497115 8.71169 0.475679 8.68937C0.402799 8.61124 0.398512 8.53498 0.462818 8.46057L1.12518 7.70722C1.15519 7.67002 1.20449 7.6477 1.27308 7.64026C1.33739 7.63282 1.38883 7.64956 1.42742 7.69048L1.44028 7.70164C1.92472 8.06995 2.4456 8.30246 3.00293 8.39919C3.16155 8.42895 3.32017 8.44383 3.47879 8.44383C3.82605 8.44383 4.13151 8.36385 4.39516 8.20388C4.65882 8.0439 4.79065 7.81697 4.79065 7.52307C4.79065 7.4189 4.75849 7.32032 4.69419 7.22731C4.62988 7.13431 4.55807 7.05618 4.47876 6.99294C4.39945 6.92969 4.27405 6.85994 4.10257 6.78367C3.93108 6.70741 3.78961 6.64789 3.67814 6.6051C3.56668 6.56232 3.3952 6.50187 3.16369 6.42374C2.9965 6.36422 2.86467 6.31771 2.76821 6.28423C2.67175 6.25075 2.53992 6.20146 2.37272 6.13635C2.20553 6.07125 2.07155 6.01358 1.97081 5.96336C1.87006 5.91314 1.74895 5.8471 1.60747 5.76526C1.466 5.68341 1.35132 5.60436 1.26343 5.52809C1.17555 5.45183 1.0823 5.36068 0.983701 5.25466C0.885098 5.14863 0.809002 5.04074 0.755413 4.931C0.701824 4.82125 0.656809 4.69755 0.620369 4.5599C0.583929 4.42225 0.565709 4.27716 0.565709 4.12463C0.565709 3.61124 0.775777 3.16109 1.19591 2.77419C1.61605 2.38728 2.16265 2.13803 2.83573 2.02642V1.02196C2.83573 0.973592 2.85609 0.931739 2.89682 0.896397C2.93755 0.861055 2.98578 0.843384 3.04151 0.843384H3.90965C3.96967 0.843384 4.01897 0.860125 4.05755 0.893607C4.09614 0.927089 4.11543 0.969872 4.11543 1.02196V2.0041C4.35979 2.02642 4.59666 2.0692 4.82602 2.13245C5.05538 2.19569 5.24187 2.258 5.38548 2.31939C5.5291 2.38077 5.66522 2.45053 5.79383 2.52865C5.92244 2.60678 6.00604 2.66072 6.04462 2.69048C6.08321 2.72024 6.11536 2.74629 6.14108 2.76861C6.21397 2.83557 6.22468 2.90626 6.17324 2.98066L5.65236 3.79539C5.61806 3.8512 5.56876 3.88096 5.50445 3.88468C5.44443 3.89584 5.38655 3.88282 5.33082 3.84562C5.31796 3.83446 5.28688 3.81213 5.23758 3.77865C5.18828 3.74517 5.10468 3.69588 4.98678 3.63077C4.86889 3.56567 4.74349 3.50614 4.61059 3.4522C4.47769 3.39826 4.31799 3.34989 4.13151 3.30711C3.94502 3.26433 3.76174 3.24294 3.58168 3.24294C3.17441 3.24294 2.84216 3.32292 2.58493 3.48289C2.32771 3.64286 2.19909 3.84934 2.19909 4.10231C2.19909 4.19904 2.21731 4.28832 2.25375 4.37017C2.2902 4.45201 2.35343 4.52921 2.44346 4.60175C2.53349 4.6743 2.61816 4.73568 2.69747 4.78591C2.77678 4.83613 2.89682 4.89379 3.05759 4.9589C3.21835 5.024 3.34804 5.07422 3.44664 5.10957C3.54524 5.14491 3.69529 5.19606 3.89679 5.26303C4.124 5.33743 4.29763 5.39603 4.41767 5.43881C4.53771 5.48159 4.70062 5.54669 4.9064 5.63412C5.11218 5.72155 5.27402 5.8006 5.39191 5.87129C5.50981 5.94197 5.64271 6.03498 5.79061 6.1503C5.93852 6.26563 6.05213 6.38375 6.13144 6.50466C6.21075 6.62556 6.27827 6.76786 6.334 6.93155C6.38974 7.09524 6.4176 7.2701 6.4176 7.45611Z" fill="black" fill-opacity="0.6"/>
</svg>
