<svg width="24" height="24" viewBox="0 0 24 24" fill="none" xmlns="http://www.w3.org/2000/svg">
<path fill-rule="evenodd" clip-rule="evenodd" d="M3.43358 17.8318C3.3592 17.9062 3.3002 17.9945 3.25995 18.0917C3.21969 18.1889 3.19897 18.293 3.19897 18.3982C3.19897 18.5034 3.21969 18.6076 3.25995 18.7047C3.3002 18.8019 3.3592 18.8902 3.43358 18.9646C3.50797 19.039 3.59627 19.098 3.69345 19.1382C3.79063 19.1785 3.89479 19.1992 3.99999 19.1992C4.10518 19.1992 4.20934 19.1785 4.30652 19.1382C4.4037 19.098 4.492 19.039 4.56639 18.9646L10.9664 12.5646C11.0409 12.4903 11.1 12.402 11.1403 12.3048C11.1807 12.2076 11.2014 12.1034 11.2014 11.9982C11.2014 11.893 11.1807 11.7888 11.1403 11.6916C11.1 11.5944 11.0409 11.5061 10.9664 11.4318L4.56639 5.03181C4.41617 4.88159 4.21243 4.7972 3.99999 4.7972C3.78754 4.7972 3.5838 4.88159 3.43359 5.03181C3.28337 5.18203 3.19897 5.38577 3.19897 5.59821C3.19897 5.81065 3.28337 6.01439 3.43359 6.16461L9.26879 11.9982L3.43358 17.8318ZM13.0336 17.8318C12.8834 17.982 12.799 18.1858 12.799 18.3982C12.799 18.6106 12.8834 18.8144 13.0336 18.9646C13.1838 19.1148 13.3875 19.1992 13.6 19.1992C13.8124 19.1992 14.0162 19.1148 14.1664 18.9646L20.5664 12.5646C20.6409 12.4903 20.7 12.402 20.7403 12.3048C20.7807 12.2076 20.8014 12.1034 20.8014 11.9982C20.8014 11.893 20.7807 11.7888 20.7403 11.6916C20.7 11.5944 20.6409 11.5061 20.5664 11.4318L14.1664 5.03181C14.0162 4.88159 13.8124 4.7972 13.6 4.7972C13.3875 4.7972 13.1838 4.88159 13.0336 5.03181C12.8834 5.18203 12.799 5.38577 12.799 5.59821C12.799 5.81065 12.8834 6.01439 13.0336 6.16461L18.8688 11.9982L13.0336 17.8318Z" fill="#A66CFE"/>
</svg>
