<svg width="33" height="31" viewBox="0 0 33 31" fill="none" xmlns="http://www.w3.org/2000/svg">
<rect width="32.4748" height="31" rx="15.5" fill="#A66CFE"/>
<path d="M14.0748 15.5L10.1998 10.075C9.9665 9.74167 9.9375 9.396 10.1128 9.038C10.2882 8.68 10.5838 8.50067 10.9998 8.5C11.1665 8.5 11.3248 8.53767 11.4748 8.613C11.6248 8.68833 11.7415 8.79233 11.8248 8.925L16.5248 15.5L11.8248 22.075C11.7415 22.2083 11.6248 22.3127 11.4748 22.388C11.3248 22.4633 11.1665 22.5007 10.9998 22.5C10.5998 22.5 10.3082 22.321 10.1248 21.963C9.9415 21.605 9.9665 21.259 10.1998 20.925L14.0748 15.5ZM20.0248 15.5L16.1498 10.075C15.9165 9.74167 15.8872 9.396 16.0618 9.038C16.2365 8.68 16.5328 8.50067 16.9508 8.5C17.1175 8.5 17.2758 8.53767 17.4258 8.613C17.5758 8.68833 17.6925 8.79233 17.7758 8.925L22.4748 15.5L17.7748 22.075C17.6915 22.2083 17.5748 22.3127 17.4248 22.388C17.2748 22.4633 17.1165 22.5007 16.9498 22.5C16.5498 22.5 16.2582 22.321 16.0748 21.963C15.8915 21.605 15.9165 21.259 16.1498 20.925L20.0248 15.5Z" fill="white"/>
</svg>
