<svg width="24" height="24" viewBox="0 0 24 24" fill="none" xmlns="http://www.w3.org/2000/svg">
<path fill-rule="evenodd" clip-rule="evenodd" d="M20.5664 6.16819C20.6408 6.09381 20.6998 6.00551 20.7401 5.90833C20.7803 5.81114 20.801 5.70698 20.801 5.60179C20.801 5.4966 20.7803 5.39244 20.7401 5.29526C20.6998 5.19808 20.6408 5.10977 20.5664 5.03539C20.492 4.96101 20.4037 4.90201 20.3065 4.86175C20.2094 4.8215 20.1052 4.80078 20 4.80078C19.8948 4.80078 19.7907 4.8215 19.6935 4.86175C19.5963 4.90201 19.508 4.96101 19.4336 5.03539L13.0336 11.4354C12.9591 11.5097 12.9 11.598 12.8597 11.6952C12.8193 11.7924 12.7986 11.8966 12.7986 12.0018C12.7986 12.107 12.8193 12.2112 12.8597 12.3084C12.9 12.4056 12.9591 12.4939 13.0336 12.5682L19.4336 18.9682C19.5838 19.1184 19.7876 19.2028 20 19.2028C20.2125 19.2028 20.4162 19.1184 20.5664 18.9682C20.7166 18.818 20.801 18.6142 20.801 18.4018C20.801 18.1894 20.7166 17.9856 20.5664 17.8354L14.7312 12.0018L20.5664 6.16819ZM10.9664 6.16819C11.1166 6.01797 11.201 5.81423 11.201 5.60179C11.201 5.38935 11.1166 5.18561 10.9664 5.03539C10.8162 4.88517 10.6125 4.80078 10.4 4.80078C10.1876 4.80078 9.98383 4.88517 9.83362 5.03539L3.43361 11.4354C3.35911 11.5097 3.3 11.598 3.25968 11.6952C3.21934 11.7924 3.19859 11.8966 3.19859 12.0018C3.19859 12.107 3.21934 12.2112 3.25968 12.3084C3.3 12.4056 3.35911 12.4939 3.43361 12.5682L9.83361 18.9682C9.98383 19.1184 10.1876 19.2028 10.4 19.2028C10.6125 19.2028 10.8162 19.1184 10.9664 18.9682C11.1166 18.818 11.201 18.6142 11.201 18.4018C11.201 18.1894 11.1166 17.9856 10.9664 17.8354L5.13121 12.0018L10.9664 6.16819Z" fill="#A66CFE"/>
</svg>
