<svg width="24" height="24" viewBox="0 0 24 24" fill="none" xmlns="http://www.w3.org/2000/svg">
<g clip-path="url(#clip0_1902_1470)">
<path d="M11.9418 6.39072C12.1853 7.10265 12.425 7.69198 12.5874 8.30503C12.7072 8.74801 12.9392 8.84293 13.3567 8.84293C16.6776 8.83898 20.0023 8.85875 23.3232 8.87062C23.4856 8.87062 23.6479 8.88644 23.9998 8.90621C23.4083 9.36897 22.9559 9.72889 22.4998 10.0769C21.1853 11.0776 19.8554 12.0585 18.5603 13.0829C18.2472 13.3321 18.0384 13.7157 17.7601 14.0163C17.6711 14.1112 17.5165 14.1429 17.3928 14.2022C17.3503 14.1468 17.3155 14.1191 17.3 14.0835C17.0603 13.4138 17.2278 12.8535 17.8026 12.4026C18.7304 11.6748 19.6621 10.951 20.7523 10.1007C20.358 10.0809 20.1454 10.0572 19.9327 10.0572C17.5552 10.069 15.1815 10.0809 12.8039 10.1125C12.4095 10.1165 12.1892 10.0295 12.0964 9.60233C11.9882 9.10002 11.8412 8.60562 11.6595 8.12309C11.4315 7.51795 11.6132 7.01169 11.9379 6.38281L11.9418 6.39072Z" fill="white"/>
<path d="M11.8991 0C12.5254 1.90639 13.0898 3.63085 13.6542 5.35531C13.7934 5.78247 13.9326 6.20962 14.0756 6.63678C14.1181 6.75544 14.1568 6.96111 14.2302 6.97297C14.9184 7.11536 14.6091 7.69282 14.7715 8.10811C14.5318 8.12393 14.3424 8.11602 14.1607 8.15162C13.7045 8.23467 13.4996 8.04878 13.3604 7.59394C12.9545 6.28873 12.4867 5.0033 11.9841 3.53988C11.8372 3.93144 11.7367 4.17271 11.6594 4.41793C10.948 6.68425 10.2328 8.95056 9.54468 11.2248C9.41324 11.6559 9.23927 11.8774 8.76375 11.8102C8.41195 11.7587 8.04468 11.7548 7.69288 11.7943C6.93514 11.8853 6.34752 11.6005 5.77148 10.9123C6.49829 10.9123 7.13231 10.8846 7.76633 10.9202C8.19159 10.944 8.38489 10.8016 8.5202 10.3744C9.55628 7.1114 10.6194 3.85234 11.6748 0.597231C11.7212 0.454845 11.7792 0.320369 11.8952 0L11.8991 0Z" fill="white"/>
<path d="M12.6074 18.8473C13.11 18.2593 13.6435 18.1564 14.2079 18.5388C15.2518 19.2467 16.2917 19.9587 17.4476 20.5875C17.2582 20.0299 17.0688 19.4761 16.8793 18.9185C16.1951 16.933 15.5224 14.9435 14.8188 12.9659C14.7028 12.6416 14.7414 12.4597 15.0121 12.2738C15.3793 12.0206 15.7466 11.7635 16.0752 11.4669C16.6164 10.9725 17.2273 10.8104 18.0353 10.9923C17.4708 11.4471 16.9721 11.8822 16.4386 12.2698C16.1061 12.5111 16.0597 12.7444 16.1951 13.136C17.2698 16.3239 18.3175 19.5236 19.3729 22.7194C19.4386 22.9211 19.5005 23.1268 19.6164 23.4946C19.2685 23.2652 19.0365 23.1189 18.8085 22.9606C17.2814 21.8928 15.7621 20.813 14.2234 19.7649C13.9566 19.5829 13.5739 19.5869 13.2801 19.4326C13.0404 19.3061 12.8548 19.0648 12.619 18.8552L12.6074 18.8473Z" fill="white"/>
<path d="M15.7612 18.2459C15.1929 17.8464 14.7058 17.5538 14.2728 17.1899C13.8514 16.83 13.5421 16.8418 13.0859 17.1859C10.4145 19.1991 7.71608 21.1728 5.02923 23.1582C4.91711 23.2413 4.78954 23.3085 4.55371 23.4588C4.94804 22.1339 5.30758 20.9315 5.67098 19.7291C5.95706 18.7878 6.25474 17.8504 6.53696 16.9051C6.58722 16.743 6.62588 16.5729 6.63361 16.4068C6.64907 16.0429 6.63747 15.679 6.63747 15.2598C7.80113 15.6157 7.89392 15.766 7.61557 16.7192C7.32562 17.7278 7.01634 18.7285 6.72253 19.737C6.6568 19.9546 6.61814 20.18 6.52149 20.5953C6.83851 20.3699 7.00474 20.2552 7.16325 20.1325C9.05371 18.7008 10.9519 17.2809 12.8269 15.8254C13.2096 15.5287 13.488 15.4733 13.8553 15.8135C14.18 16.1141 14.5395 16.387 14.9145 16.6203C15.479 16.9724 15.6181 17.5221 15.7573 18.2459H15.7612Z" fill="white"/>
<path d="M-8.05422e-05 9.1008C1.99476 9.1008 3.86203 9.1008 5.7293 9.1008C6.02311 9.1008 6.3208 9.09288 6.61074 9.12453C7.06693 9.17199 7.40327 9.05333 7.48059 8.53125C7.65842 8.64199 7.88652 8.70528 7.94064 8.83975C8.04889 9.11266 8.14167 9.44094 8.07982 9.70989C8.04116 9.88392 7.71641 10.0975 7.51538 10.1015C6.13136 10.1371 4.74348 10.1212 3.20095 10.1212C3.42518 10.3269 3.54116 10.4495 3.67647 10.5563C5.62105 12.0593 7.56564 13.5662 9.52183 15.0533C9.8427 15.2986 9.95868 15.5042 9.76925 15.8997C9.56822 16.3229 9.40198 16.7738 9.28987 17.2287C9.1275 17.8892 8.66745 18.1977 7.99476 18.5418C8.23059 17.814 8.40842 17.201 8.62879 16.6117C8.78342 16.2003 8.67518 15.9749 8.3311 15.7059C5.7409 13.6848 3.16616 11.64 0.591414 9.6031C0.413579 9.46072 0.23961 9.31042 -0.0078125 9.1008H-8.05422e-05Z" fill="white"/>
<path d="M21.9243 7.1897C21.3444 7.83044 20.8921 8.31693 20.0532 8.24178C18.9668 8.14685 17.8728 8.16267 16.7825 8.13894C16.4578 8.13103 16.2026 8.08753 16.2142 7.65246C16.2297 7.23321 16.4694 7.18179 16.8019 7.18575C18.4565 7.19366 20.1112 7.18575 21.9204 7.18575L21.9243 7.1897Z" fill="white"/>
<path d="M20.4779 20.8991C19.6737 20.4996 19.0552 20.2228 18.8735 19.3408C18.6493 18.2531 18.2472 17.201 17.9804 16.1213C17.9379 15.9433 18.1853 15.6941 18.2975 15.4766C18.4714 15.5754 18.7575 15.6308 18.8078 15.7732C19.3722 17.4265 19.898 19.0955 20.4817 20.8991H20.4779Z" fill="white"/>
<path d="M5.16868 15.1087C3.63002 13.9854 2.10683 12.87 0.456055 11.6637C1.33363 11.5292 2.00631 11.3789 2.65966 11.9643C3.3826 12.613 4.18672 13.1588 4.95605 13.756C5.371 14.0777 5.44188 14.5286 5.16868 15.1087Z" fill="white"/>
<path d="M7.35742 24.0005C7.45794 23.0275 7.63577 22.3551 8.37417 21.8805C9.38319 21.2319 10.3149 20.4646 10.9257 20.0137C11.3007 20.1837 11.5752 20.3064 11.927 20.4646C10.4425 21.6116 8.96567 22.7586 7.35742 24.0005Z" fill="white"/>
<path d="M8.83722 7.53935C8.20706 7.30204 8.06016 6.8907 8.22639 6.38444C8.7367 4.8617 9.27407 3.34687 9.85784 1.67383C10.1632 2.453 10.5692 3.01068 10.2328 3.80962C9.72639 5.012 9.31273 6.24997 8.83722 7.5354V7.53935Z" fill="white"/>
</g>
<defs>
<clipPath id="clip0_1902_1470">
<rect width="24" height="24" fill="white"/>
</clipPath>
</defs>
</svg>
