<svg width="25" height="19" viewBox="0 0 25 19" fill="none" xmlns="http://www.w3.org/2000/svg">
<path d="M21.8803 0.611328H2.73504C2.00966 0.611328 1.314 0.899483 0.801075 1.4124C0.288155 1.92532 0 2.62099 0 3.34637L0 9.50022H24.6154V3.34637C24.6154 2.62099 24.3272 1.92532 23.8143 1.4124C23.3014 0.899483 22.6057 0.611328 21.8803 0.611328Z" fill="#005BBB"/>
<path d="M24.6154 15.6538C24.6154 16.3792 24.3272 17.0749 23.8143 17.5878C23.3014 18.1007 22.6057 18.3889 21.8803 18.3889H2.73504C2.00966 18.3889 1.314 18.1007 0.801075 17.5878C0.288155 17.0749 0 16.3792 0 15.6538V9.5H24.6154V15.6538Z" fill="#FFD500"/>
</svg>
