<svg width="32" height="32" viewBox="0 0 32 32" fill="none" xmlns="http://www.w3.org/2000/svg">
<path d="M13.3813 3.42501C14.1684 2.92881 15.0751 2.66602 16.0001 2.66602C16.925 2.66602 17.8317 2.92881 18.6189 3.42501L30.2486 10.7551C30.3747 10.8346 30.4791 10.9452 30.5522 11.0769C30.6253 11.2085 30.6646 11.3569 30.6666 11.5082C30.6686 11.6595 30.6332 11.8089 30.5636 11.9425C30.494 12.0761 30.3925 12.1896 30.2685 12.2724L25.6088 15.3839C25.4699 15.4767 25.3864 15.6327 25.3864 15.7998V23.5049C25.3864 23.8597 25.1964 24.0802 24.9723 24.3019C24.8174 24.4566 24.6573 24.6057 24.4924 24.749C23.9275 25.2413 23.323 25.6844 22.6855 26.0733C21.1227 27.0321 18.8406 27.9993 16.0001 27.9993C13.1607 27.9993 10.8775 27.0321 9.31463 26.0733C8.67709 25.6844 8.07267 25.2413 7.50775 24.749C7.34294 24.605 7.18252 24.456 7.0267 24.3019C6.80495 24.0802 6.6137 23.8645 6.6137 23.5049V15.7998C6.6137 15.6327 6.53028 15.4767 6.39135 15.3839L3.87146 13.7014C3.53921 13.4795 3.09381 13.7177 3.09381 14.1172V20.5086C3.09381 20.747 3.0011 20.9757 2.83607 21.1442C2.67104 21.3128 2.44722 21.4075 2.21384 21.4075C1.98045 21.4075 1.75663 21.3128 1.5916 21.1442C1.42658 20.9757 1.33386 20.747 1.33386 20.5086V11.8194C1.33386 11.7675 1.33778 11.7175 1.3456 11.6696C1.31651 11.4932 1.33961 11.312 1.41193 11.1491C1.48424 10.9862 1.6025 10.849 1.75156 10.7551L13.3813 3.42501ZM9.15141 17.2278C8.81916 17.0058 8.37364 17.244 8.37364 17.6435V22.9148C8.37364 23.052 8.42978 23.1836 8.53163 23.2756C8.56943 23.3097 8.60985 23.3458 8.65289 23.3839C9.00722 23.6955 9.53521 24.1126 10.2192 24.532C11.5896 25.371 13.5608 26.2016 16.0001 26.2016C18.4405 26.2016 20.4117 25.371 21.7809 24.532C22.3779 24.1654 22.9415 23.7453 23.4653 23.2767C23.569 23.184 23.6265 23.0508 23.6265 22.9117V17.6435C23.6265 17.2439 23.181 17.0058 22.8487 17.2278L18.7292 19.9801C17.9178 20.522 16.9695 20.8107 16.0001 20.8107C15.0307 20.8107 14.0823 20.522 13.271 19.9801L9.15141 17.2278ZM17.6943 4.95431C17.1851 4.63335 16.5985 4.46337 16.0001 4.46337C15.4017 4.46337 14.8151 4.63335 14.3058 4.95431L4.50595 11.1305C4.1996 11.3236 4.1937 11.7682 4.49482 11.9693L14.2343 18.4748C14.7592 18.8254 15.3728 19.0121 16.0001 19.0121C16.6273 19.0121 17.2409 18.8254 17.7659 18.4748L27.5053 11.9693C27.8064 11.7682 27.8005 11.3236 27.4942 11.1305L17.6943 4.95431Z" fill="#A66CFE"/>
</svg>
