<svg width="8" height="11" viewBox="0 0 8 11" fill="none" xmlns="http://www.w3.org/2000/svg">
<path d="M5.5232 5.28783H7.41764V4.17672H6.48431C6.71764 3.81005 6.86209 3.44338 6.86209 3.06561C6.86209 1.60449 5.4732 0.843384 4.08431 0.843384C2.77875 0.843384 1.60098 1.98783 1.46764 2.11561L2.25653 2.9045C2.5232 2.63783 3.36764 1.95449 4.08431 1.95449C4.66209 1.95449 5.75098 2.18783 5.75098 3.06561C5.75098 3.34338 5.4732 3.7545 5.06209 4.17672H0.750977V5.28783H3.87875C3.64542 5.48783 2.83431 6.21561 2.64542 6.39894H0.750977V7.51005H1.68431C1.45098 7.87672 1.30653 8.24338 1.30653 8.62116C1.30653 10.0823 2.69542 10.8434 4.08431 10.8434C5.38986 10.8434 6.56764 9.69894 6.70098 9.57116L5.91209 8.78227C5.65098 9.04894 4.80098 9.73227 4.08431 9.73227C3.50653 9.73227 2.41764 9.49894 2.41764 8.62116C2.41764 8.34338 2.69542 7.93227 3.10653 7.51005H7.41764V6.39894H4.29542L5.5232 5.28783Z" fill="black" fill-opacity="0.6"/>
</svg>
