<svg width="24" height="24" viewBox="0 0 24 24" fill="none" xmlns="http://www.w3.org/2000/svg">
<path d="M12 3.3109V12.0006C12 12.1995 11.921 12.3903 11.7803 12.5309C11.6397 12.6716 11.4489 12.7506 11.25 12.7506C11.0511 12.7506 10.8603 12.6716 10.7197 12.5309C10.579 12.3903 10.5 12.1995 10.5 12.0006V3.3109L8.78063 5.03122C8.63989 5.17195 8.44902 5.25101 8.25 5.25101C8.05098 5.25101 7.86011 5.17195 7.71937 5.03122C7.57864 4.89049 7.49958 4.69961 7.49958 4.50059C7.49958 4.30157 7.57864 4.1107 7.71937 3.96997L10.7194 0.969965C10.789 0.900233 10.8717 0.844913 10.9628 0.80717C11.0538 0.769427 11.1514 0.75 11.25 0.75C11.3486 0.75 11.4462 0.769427 11.5372 0.80717C11.6283 0.844913 11.711 0.900233 11.7806 0.969965L14.7806 3.96997C14.9214 4.1107 15.0004 4.30157 15.0004 4.50059C15.0004 4.69961 14.9214 4.89049 14.7806 5.03122C14.6399 5.17195 14.449 5.25101 14.25 5.25101C14.051 5.25101 13.8601 5.17195 13.7194 5.03122L12 3.3109ZM18 11.59V9.00059C18 8.60277 17.842 8.22124 17.5607 7.93993C17.2794 7.65863 16.8978 7.50059 16.5 7.50059H15C14.8011 7.50059 14.6103 7.57961 14.4697 7.72026C14.329 7.86091 14.25 8.05168 14.25 8.25059C14.25 8.4495 14.329 8.64027 14.4697 8.78092C14.6103 8.92157 14.8011 9.00059 15 9.00059H16.5V16.5381C16.0527 16.0812 15.4541 15.8032 14.8164 15.7564C14.1788 15.7096 13.5459 15.8971 13.0367 16.2837C12.5275 16.6704 12.1769 17.2296 12.0508 17.8564C11.9246 18.4832 12.0316 19.1345 12.3516 19.6881L12.3741 19.7237L14.4609 22.9112C14.5698 23.0777 14.7404 23.1941 14.9351 23.2348C15.1298 23.2755 15.3328 23.2372 15.4992 23.1282C15.6657 23.0193 15.7821 22.8488 15.8228 22.6541C15.8635 22.4593 15.8252 22.2564 15.7162 22.09L13.6416 18.9222C13.4945 18.6624 13.4566 18.355 13.5363 18.0673C13.6159 17.7797 13.8065 17.5355 14.0662 17.3884C14.326 17.2413 14.6334 17.2035 14.9211 17.2831C15.2087 17.3627 15.4529 17.5534 15.6 17.8131C15.6066 17.8253 15.6141 17.8375 15.6216 17.8487L16.6228 19.3778C16.7113 19.5128 16.841 19.6156 16.9926 19.671C17.1442 19.7264 17.3096 19.7314 17.4643 19.6853C17.619 19.6391 17.7546 19.5443 17.8512 19.415C17.9477 19.2856 17.9999 19.1286 18 18.9672V13.5006C18.7069 14.155 19.2715 14.9479 19.6586 15.83C20.0457 16.7121 20.247 17.6645 20.25 18.6278V22.5006C20.25 22.6995 20.329 22.8903 20.4697 23.0309C20.6103 23.1716 20.8011 23.2506 21 23.2506C21.1989 23.2506 21.3897 23.1716 21.5303 23.0309C21.671 22.8903 21.75 22.6995 21.75 22.5006V18.624C21.7458 17.2347 21.4018 15.8675 20.7482 14.6415C20.0946 13.4155 19.1512 12.3679 18 11.59ZM7.5 7.50059H6C5.60218 7.50059 5.22064 7.65863 4.93934 7.93993C4.65804 8.22124 4.5 8.60277 4.5 9.00059V18.7506C4.5 18.9495 4.57902 19.1403 4.71967 19.2809C4.86032 19.4216 5.05109 19.5006 5.25 19.5006C5.44891 19.5006 5.63968 19.4216 5.78033 19.2809C5.92098 19.1403 6 18.9495 6 18.7506V9.00059H7.5C7.69891 9.00059 7.88968 8.92157 8.03033 8.78092C8.17098 8.64027 8.25 8.4495 8.25 8.25059C8.25 8.05168 8.17098 7.86091 8.03033 7.72026C7.88968 7.57961 7.69891 7.50059 7.5 7.50059Z" fill="#CFF500"/>
</svg>
