<svg width="36" height="38" viewBox="0 0 36 38" fill="none" xmlns="http://www.w3.org/2000/svg">
<path d="M30.8333 14.3333L18 1.5L1.5 18H5.16667V30.8333C5.16667 31.8058 5.55298 32.7384 6.24061 33.4261C6.92824 34.1137 7.86087 34.5 8.83333 34.5H19.8333" stroke="black" stroke-width="3" stroke-linecap="round" stroke-linejoin="round"/>
<path d="M12.5 34.5V23.5C12.5 22.5276 12.8863 21.5949 13.5739 20.9073C14.2616 20.2197 15.1942 19.8334 16.1667 19.8334H19.8333C20.5428 19.8334 21.2047 20.035 21.7657 20.3834M34.5 23.5H29.9167C29.1873 23.5 28.4878 23.7898 27.9721 24.3055C27.4564 24.8212 27.1667 25.5207 27.1667 26.25C27.1667 26.9794 27.4564 27.6789 27.9721 28.1946C28.4878 28.7103 29.1873 29 29.9167 29H31.75C32.4793 29 33.1788 29.2898 33.6945 29.8055C34.2103 30.3212 34.5 31.0207 34.5 31.75C34.5 32.4794 34.2103 33.1789 33.6945 33.6946C33.1788 34.2103 32.4793 34.5 31.75 34.5H27.1667M30.8333 34.5V36.3334M30.8333 21.6667V23.5" stroke="black" stroke-width="3" stroke-linecap="round" stroke-linejoin="round"/>
</svg>
