<svg width="24" height="24" viewBox="0 0 24 24" fill="none" xmlns="http://www.w3.org/2000/svg">
<path fill-rule="evenodd" clip-rule="evenodd" d="M10 4C10 2.89543 10.8954 2 12 2C13.1046 2 14 2.89543 14 4V6.9502L16.536 4.41421C17.317 3.63316 18.5834 3.63317 19.3644 4.41421C20.1455 5.19526 20.1455 6.46159 19.3644 7.24264L16.607 10L20 10C21.1046 10 22 10.8954 22 12C22 13.1046 21.1046 14 20 14H16.8281L19.3641 16.536C20.1452 17.317 20.1452 18.5834 19.3641 19.3644C18.5831 20.1455 17.3167 20.1455 16.5357 19.3644L14 16.8287V20C14 21.1046 13.1046 22 12 22C10.8954 22 10 21.1046 10 20V16.6064L7.24234 19.3641C6.46129 20.1452 5.19496 20.1452 4.41391 19.3641C3.63286 18.5831 3.63286 17.3167 4.41391 16.5357L6.94959 14H4C2.89543 14 2 13.1046 2 12C2 10.8954 2.89543 10 4 10H7.17188L4.41421 7.24234C3.63316 6.46129 3.63317 5.19496 4.41421 4.41391C5.19526 3.63286 6.46159 3.63286 7.24264 4.41391L10 7.17127V4Z" fill="#CFF500"/>
</svg>
