<svg width="32" height="32" viewBox="0 0 32 32" fill="none" xmlns="http://www.w3.org/2000/svg">
<path d="M25.3333 13.3333L16 4L4 16H6.66667V25.3333C6.66667 26.0406 6.94762 26.7189 7.44772 27.219C7.94781 27.719 8.62609 28 9.33333 28H17.3333" stroke="white" stroke-width="1.5" stroke-linecap="round" stroke-linejoin="round"/>
<path d="M12 28.0007V20.0007C12 19.2934 12.281 18.6151 12.781 18.115C13.2811 17.6149 13.9594 17.334 14.6667 17.334H17.3333C17.8493 17.334 18.3307 17.4807 18.7387 17.734M28 20.0007H24.6667C24.1362 20.0007 23.6275 20.2114 23.2525 20.5864C22.8774 20.9615 22.6667 21.4702 22.6667 22.0007C22.6667 22.5311 22.8774 23.0398 23.2525 23.4149C23.6275 23.7899 24.1362 24.0007 24.6667 24.0007H26C26.5304 24.0007 27.0391 24.2114 27.4142 24.5864C27.7893 24.9615 28 25.4702 28 26.0007C28 26.5311 27.7893 27.0398 27.4142 27.4149C27.0391 27.7899 26.5304 28.0007 26 28.0007H22.6667M25.3333 28.0007V29.334M25.3333 18.6673V20.0007" stroke="white" stroke-width="1.5" stroke-linecap="round" stroke-linejoin="round"/>
</svg>
