<svg width="32" height="32" viewBox="0 0 32 32" fill="none" xmlns="http://www.w3.org/2000/svg">
<path d="M9.33333 25.332H22.6667M25.3333 21.332C26.3693 21.3627 26.9867 21.4787 27.4133 21.9067C28 22.4934 28 23.4374 28 25.3267C28 27.2147 28 28.1587 27.4133 28.7454C26.828 29.332 25.8853 29.332 24 29.332H8C6.11467 29.332 5.172 29.332 4.58667 28.7454C4.00133 28.1587 4 27.2147 4 25.3267C4 23.4387 4 22.4934 4.58667 21.9067C5.01333 21.48 5.63067 21.3627 6.66667 21.332" stroke="#A66CFE" stroke-width="1.5" stroke-linecap="round" stroke-linejoin="round"/>
<path d="M19.0867 25.3325C19.5816 24.9088 19.9789 24.383 20.2517 23.7913C20.5244 23.1997 20.666 22.556 20.6667 21.9045C20.6667 19.3792 18.5774 17.3325 16 17.3325C13.4227 17.3325 11.3334 19.3792 11.3334 21.9045C11.3341 22.556 11.4757 23.1997 11.7484 23.7913C12.0211 24.383 12.4185 24.9088 12.9134 25.3325M26.6667 13.3325H23.4734C23.0814 13.3325 22.6947 13.2445 22.344 13.0739L19.6214 11.7565C19.2687 11.5867 18.8822 11.4988 18.4907 11.4992H17.1014C15.7574 11.4992 14.6667 10.4445 14.6667 9.14318C14.6667 9.08985 14.7027 9.04452 14.7547 9.02985L18.1427 8.09385C18.7505 7.92549 19.3987 7.98378 19.9667 8.25785L22.8774 9.66585M14.6667 9.99919L8.5427 11.8805C8.00956 12.0441 7.43836 12.0351 6.91064 11.8548C6.38291 11.6745 5.92562 11.3321 5.60403 10.8765C5.11203 10.1965 5.31203 9.22052 6.02937 8.80719L16.0494 3.02452C16.3627 2.84324 16.7096 2.72765 17.0691 2.68478C17.4285 2.64191 17.7929 2.67267 18.14 2.77518L26.6667 5.30585" stroke="#A66CFE" stroke-width="1.5" stroke-linecap="round" stroke-linejoin="round"/>
</svg>
