<svg width="32" height="32" viewBox="0 0 32 32" fill="none" xmlns="http://www.w3.org/2000/svg">
<path d="M6.4 13.6V23.8M11.2 13.6V23.8M14.8 23.8H7.6C6.64522 23.8 5.72955 24.1793 5.05442 24.8544C4.37928 25.5295 4 26.4452 4 27.4C4 27.5591 4.06321 27.7117 4.17574 27.8243C4.28826 27.9368 4.44087 28 4.6 28H14.8M27.4 19L19 27.4M4 11.884C4 10.4476 4.5784 9.568 5.776 8.9008L10.708 6.1564C13.2916 4.72 14.584 4 16 4C17.416 4 18.7084 4.72 21.292 6.1564L26.224 8.9008C27.4204 9.568 28 10.4476 28 11.884C28 12.2728 28 12.4684 27.958 12.628C27.7348 13.468 26.9728 13.6012 26.2372 13.6012H5.7628C5.0272 13.6012 4.2664 13.4692 4.042 12.628C4 12.4672 4 12.2728 4 11.884Z" stroke="#A66CFE" stroke-width="1.5" stroke-linecap="round" stroke-linejoin="round"/>
<path d="M19.9 20.8C20.3971 20.8 20.8 20.3971 20.8 19.9C20.8 19.4029 20.3971 19 19.9 19C19.4029 19 19 19.4029 19 19.9C19 20.3971 19.4029 20.8 19.9 20.8Z" stroke="#A66CFE" stroke-width="1.5" stroke-linecap="round" stroke-linejoin="round"/>
<path d="M26.5001 27.3996C26.9972 27.3996 27.4001 26.9967 27.4001 26.4996C27.4001 26.0026 26.9972 25.5996 26.5001 25.5996C26.003 25.5996 25.6001 26.0026 25.6001 26.4996C25.6001 26.9967 26.003 27.3996 26.5001 27.3996Z" stroke="#A66CFE" stroke-width="1.5" stroke-linecap="round" stroke-linejoin="round"/>
</svg>
