<svg width="32" height="32" viewBox="0 0 32 32" fill="none" xmlns="http://www.w3.org/2000/svg">
<path d="M12.0001 7.99935H18.6667M12.0001 7.99935V11.3327H18.6667V7.99935M12.0001 7.99935V5.99935C12.0001 3.99935 14.0001 2.66602 16.0001 2.66602H23.3334C23.3334 2.66602 18.6667 3.99935 18.6667 6.66602V7.99935M8.66675 12.666C8.66675 12.3124 8.80722 11.9733 9.05727 11.7232C9.30732 11.4732 9.64646 11.3327 10.0001 11.3327H20.6667C21.0204 11.3327 21.3595 11.4732 21.6096 11.7232C21.8596 11.9733 22.0001 12.3124 22.0001 12.666V25.3327C22.0001 25.3327 22.0001 29.3327 18.0001 29.3327H12.6667C8.66675 29.3327 8.66675 25.3327 8.66675 25.3327V12.666Z" stroke="#A66CFE" stroke-width="1.5" stroke-linecap="round" stroke-linejoin="round"/>
</svg>
