<svg width="32" height="32" viewBox="0 0 32 32" fill="none" xmlns="http://www.w3.org/2000/svg">
<path d="M18.6667 13.1273C17.3334 11.8967 13.7774 11.4873 13.7774 13.9487C13.7774 16.41 18.6667 15.1793 18.6667 17.6393C18.6667 20.0993 14.6667 20.1007 13.3334 18.4593M16.0001 19.602V21.3327M16.0001 12.15V10.666M2.66675 10.666L15.6427 4.17799C15.7537 4.12259 15.876 4.09375 16.0001 4.09375C16.1241 4.09375 16.2464 4.12259 16.3574 4.17799L29.3334 10.666" stroke="#A66CFE" stroke-width="1.5" stroke-linecap="round" stroke-linejoin="round"/>
<path d="M26.6668 14.666V25.3327C26.6668 26.0399 26.3859 26.7182 25.8858 27.2183C25.3857 27.7184 24.7074 27.9993 24.0002 27.9993H8.00016C7.29292 27.9993 6.61464 27.7184 6.11454 27.2183C5.61445 26.7182 5.3335 26.0399 5.3335 25.3327V14.666" stroke="#A66CFE" stroke-width="1.5" stroke-linecap="round" stroke-linejoin="round"/>
</svg>
