<svg width="32" height="32" viewBox="0 0 32 32" fill="none" xmlns="http://www.w3.org/2000/svg">
<path d="M15.8401 19.3459H15.9101C17.4101 19.3859 18.6101 20.6059 18.6101 22.1059C18.6101 23.3859 17.7401 24.4559 16.5601 24.7759V25.8959C16.5601 26.2959 16.2401 26.6159 15.8401 26.6159C15.4401 26.6159 15.1201 26.2959 15.1201 25.8959V24.7759C14.5326 24.6177 14.0135 24.2706 13.643 23.788C13.2725 23.3054 13.0711 22.7143 13.0701 22.1059C13.0701 21.7059 13.3901 21.3859 13.7901 21.3859C14.1901 21.3859 14.5101 21.7059 14.5101 22.1059C14.5101 22.8459 15.1001 23.4359 15.8301 23.4359C16.5601 23.4359 17.1601 22.8359 17.1601 22.1059C17.1601 21.3759 16.5601 20.7759 15.8301 20.7759H15.7601C15.0407 20.7563 14.3573 20.4571 13.855 19.9418C13.3527 19.4264 13.0711 18.7355 13.0701 18.0159C13.0701 16.7359 13.9401 15.6659 15.1201 15.3459V14.2259C15.1201 13.8259 15.4401 13.5059 15.8401 13.5059C16.2401 13.5059 16.5601 13.8259 16.5601 14.2259V15.3459C17.7401 15.6659 18.6101 16.7359 18.6101 18.0159C18.6101 18.4159 18.2901 18.7359 17.8901 18.7359C17.4901 18.7359 17.1701 18.4159 17.1701 18.0159C17.1701 17.2859 16.5701 16.6859 15.8401 16.6859C15.1101 16.6859 14.5101 17.2859 14.5101 18.0159C14.5101 18.7459 15.1101 19.3459 15.8401 19.3459Z" fill="#A66CFE"/>
<path d="M10.532 5.10019L13.318 8.36019L13.017 8.69619C7.283 9.98219 3 15.1032 3 21.2252C3 26.6072 7.368 30.9752 12.75 30.9752H18.92C24.302 30.9752 28.67 26.6082 28.67 21.2262C28.68 15.1032 24.397 9.98219 18.663 8.69619C18.6865 8.48486 18.6483 8.27125 18.553 8.08119L20.923 5.36819L21.076 5.13219C21.2547 4.74251 21.3004 4.30494 21.2061 3.88676C21.1118 3.46858 20.8827 3.09296 20.5542 2.81766C20.2256 2.54235 19.8156 2.38262 19.3874 2.36302C18.9592 2.34342 18.5364 2.46505 18.184 2.70919L17.341 1.70919C17.1519 1.49757 16.9203 1.32817 16.6614 1.21203C16.4024 1.0959 16.1219 1.03563 15.8381 1.03516C15.5543 1.03469 15.2736 1.09402 15.0143 1.2093C14.7549 1.32457 14.5228 1.4932 14.333 1.70419L13.45 2.69019C13.0985 2.44097 12.6748 2.3145 12.2442 2.33033C11.8137 2.34617 11.4003 2.50343 11.0681 2.77779C10.7359 3.05215 10.5034 3.42833 10.4065 3.84813C10.3096 4.26793 10.3537 4.70797 10.532 5.10019ZM14.331 6.48519L12.635 4.52519C13.0291 4.7147 13.4748 4.76842 13.9027 4.67797C14.3305 4.58752 14.7163 4.35799 15 4.02519L15.8 2.98719L16.688 4.03919C16.9649 4.36116 17.3384 4.58506 17.7528 4.6775C18.1673 4.76995 18.6005 4.72599 18.988 4.55219L17.3 6.48519H14.331ZM5 21.2252C5 15.2372 9.852 10.3852 15.84 10.3852C21.828 10.3852 26.68 15.2372 26.67 21.2232V21.2252C26.6692 23.2804 25.8524 25.2511 24.3992 26.7044C22.946 28.1576 20.9752 28.9744 18.92 28.9752H12.75C10.6948 28.9744 8.72404 28.1576 7.2708 26.7044C5.81757 25.2511 5.0008 23.2804 5 21.2252Z" fill="#A66CFE"/>
</svg>
