<svg width="24" height="24" viewBox="0 0 24 24" fill="none" xmlns="http://www.w3.org/2000/svg">
<path d="M0.999428 18.4817L5.18914 21.9737C5.80527 22.4867 6.5817 22.7676 7.38343 22.7675H18.4286C19.2171 22.7675 19.8566 22.128 19.8566 21.3395C19.8566 19.7623 18.5777 18.4817 16.9989 18.4817H9.32057M14.2543 1.76746C14.027 1.76746 13.8089 1.85777 13.6482 2.01851C13.4874 2.17926 13.3971 2.39728 13.3971 2.6246V5.0366H10.9869C10.7595 5.0366 10.5415 5.12691 10.3808 5.28766C10.22 5.4484 10.1297 5.66642 10.1297 5.89375V8.67946C10.1297 8.90679 10.22 9.12481 10.3808 9.28555C10.5415 9.4463 10.7595 9.5366 10.9869 9.5366H13.3971V11.9469C13.3971 12.1742 13.4874 12.3922 13.6482 12.553C13.8089 12.7137 14.027 12.804 14.2543 12.804H17.04C17.2673 12.804 17.4853 12.7137 17.6461 12.553C17.8068 12.3922 17.8971 12.1742 17.8971 11.9469V9.5366H20.3074C20.5348 9.5366 20.7528 9.4463 20.9135 9.28555C21.0743 9.12481 21.1646 8.90679 21.1646 8.67946V5.89375C21.1646 5.66642 21.0743 5.4484 20.9135 5.28766C20.7528 5.12691 20.5348 5.0366 20.3074 5.0366H17.8971V2.62289C17.8971 2.39556 17.8068 2.17754 17.6461 2.0168C17.4853 1.85605 17.2673 1.76575 17.04 1.76575L14.2543 1.76746Z" stroke="#A66CFE" stroke-width="1.5" stroke-linecap="round" stroke-linejoin="round"/>
<path d="M6.14228 16.7674L7.428 18.0531C7.59684 18.222 7.79729 18.3559 8.01789 18.4473C8.23849 18.5386 8.47493 18.5857 8.71371 18.5857C8.95249 18.5857 9.18893 18.5386 9.40954 18.4473C9.63014 18.3559 9.83058 18.222 9.99943 18.0531C10.1683 17.8843 10.3022 17.6838 10.3936 17.4632C10.485 17.2426 10.532 17.0062 10.532 16.7674C10.532 16.5286 10.485 16.2922 10.3936 16.0716C10.3022 15.851 10.1683 15.6505 9.99943 15.4817L8.004 13.4863C7.36117 12.8432 6.48924 12.4819 5.58 12.4817H0.999428" stroke="#A66CFE" stroke-width="1.5" stroke-linecap="round" stroke-linejoin="round"/>
</svg>
