<svg width="32" height="33" viewBox="0 0 32 33" fill="none" xmlns="http://www.w3.org/2000/svg">
<path fill-rule="evenodd" clip-rule="evenodd" d="M23.8147 4.71762L24.028 4.78962L25.6307 5.32295C26.248 5.52962 26.7907 5.70962 27.2187 5.90962C27.6827 6.12562 28.108 6.40295 28.4333 6.85495C28.7587 7.30695 28.888 7.79762 28.9467 8.30562C29 8.77629 29 9.34695 29 9.99895V20.9483C29 21.879 29 22.6643 28.928 23.2856C28.8533 23.931 28.6853 24.5683 28.2147 25.083C27.936 25.388 27.5974 25.6322 27.22 25.8003C26.5827 26.083 25.9253 26.0403 25.2893 25.9083C24.676 25.7803 23.932 25.5323 23.0493 25.2376L22.992 25.219C21.4987 24.7203 20.9853 24.5656 20.4893 24.583C20.2913 24.5901 20.0943 24.6165 19.9013 24.6616C19.4173 24.775 18.964 25.0603 17.6533 25.9336L15.8107 27.163L15.624 27.287C14.208 28.2323 13.224 28.8883 12.072 29.043C10.9213 29.1976 9.79867 28.823 8.18533 28.283L7.972 28.2123L6.36933 27.679C5.752 27.4723 5.20933 27.2923 4.78133 27.0923C4.31733 26.8763 3.892 26.599 3.56667 26.1456C3.24133 25.695 3.112 25.2043 3.05333 24.695C3 24.2243 3 23.655 3 23.003V12.0536C3 11.1216 3 10.3363 3.072 9.71629C3.14667 9.07095 3.31467 8.43362 3.78533 7.91895C4.06396 7.6139 4.40259 7.36969 4.78 7.20162C5.41733 6.91762 6.076 6.96029 6.71067 7.09362C7.324 7.22029 8.068 7.46962 8.95067 7.76429L9.008 7.78295C10.5013 8.28029 11.0147 8.43629 11.512 8.41895C11.7096 8.41171 11.9061 8.38536 12.0987 8.34029C12.5827 8.22562 13.036 7.94029 14.3467 7.06829L16.1893 5.83895L16.376 5.71362C17.792 4.76962 18.776 4.11362 19.9267 3.95895C21.0787 3.80429 22.2013 4.17762 23.8147 4.71762ZM21 5.97629V22.607C21.7147 22.6843 22.4667 22.935 23.4573 23.2656L23.624 23.3216C24.58 23.6403 25.2133 23.8496 25.6973 23.951C26.172 24.0496 26.3333 24.0043 26.4067 23.9723C26.5326 23.9164 26.6456 23.8352 26.7387 23.7336C26.792 23.675 26.8853 23.535 26.9413 23.0536C26.9987 22.563 27 21.895 27 20.8883V10.051C27 9.33095 26.9987 8.87762 26.96 8.53362C26.9227 8.21495 26.864 8.09629 26.8107 8.02429C26.7587 7.95229 26.6653 7.85762 26.376 7.72295C26.0613 7.57629 25.6293 7.43229 24.9493 7.20429L23.396 6.68695C22.2133 6.29229 21.512 6.06962 21 5.97629ZM19 22.847V6.41229C18.5853 6.65229 18.0533 7.00029 17.2987 7.50295L15.456 8.73229L15.3093 8.82962C14.392 9.44295 13.708 9.89895 13 10.155V26.5896C13.4147 26.3496 13.9467 26.0003 14.7013 25.4976L16.544 24.2696L16.6907 24.1723C17.608 23.559 18.292 23.103 19 22.847ZM11 27.027V10.3936C10.2853 10.3163 9.53333 10.0656 8.54267 9.73495L8.376 9.67895C7.42 9.36029 6.78667 9.15095 6.30133 9.04962C5.828 8.95095 5.66667 8.99495 5.59467 9.02695C5.46815 9.08303 5.35464 9.16475 5.26133 9.26695C5.208 9.32429 5.11467 9.46429 5.05867 9.94562C5.00133 10.4363 5 11.1056 5 12.1123V22.9496C5 23.6696 5.00133 24.123 5.04 24.467C5.07733 24.7856 5.136 24.903 5.18933 24.9763C5.24133 25.0483 5.33467 25.143 5.624 25.2776C5.93867 25.4243 6.37067 25.5683 7.05067 25.7963L8.604 26.3136C9.78667 26.707 10.4867 26.931 11 27.0256" fill="white"/>
</svg>
