<svg width="24" height="24" viewBox="0 0 24 24" fill="none" xmlns="http://www.w3.org/2000/svg">
<path d="M12 2.25C9.41505 2.25298 6.93683 3.28116 5.109 5.109C3.28116 6.93683 2.25298 9.41505 2.25 12V17.25C2.25 17.8467 2.48705 18.419 2.90901 18.841C3.33097 19.2629 3.90326 19.5 4.5 19.5C4.97798 19.4993 5.44342 19.347 5.82938 19.065C6.96844 18.2372 8.9625 17.25 12 17.25C15.0375 17.25 17.0316 18.2363 18.1697 19.0641C18.505 19.3099 18.9018 19.458 19.3161 19.4919C19.7305 19.5259 20.1461 19.4444 20.5169 19.2565C20.8878 19.0686 21.1993 18.7817 21.417 18.4275C21.6346 18.0733 21.7499 17.6657 21.75 17.25V12C21.747 9.41505 20.7188 6.93683 18.891 5.109C17.0632 3.28116 14.5849 2.25298 12 2.25ZM20.25 12V12.8316C19.0537 12.0913 17.7626 11.5167 16.4119 11.1234C16.1217 8.53734 15.1915 6.06435 13.7053 3.92813C15.5552 4.32144 17.2142 5.33744 18.4053 6.80649C19.5965 8.27555 20.2476 10.1087 20.25 12ZM12 4.15031C13.4975 6.07326 14.4786 8.34713 14.85 10.7559C12.9641 10.4148 11.0322 10.4148 9.14625 10.7559C9.52198 8.3477 10.504 6.07458 12 4.15031ZM10.2947 3.92813C8.80838 6.06462 7.87815 8.53795 7.58813 11.1244C6.23743 11.5177 4.94629 12.0923 3.75 12.8325V12C3.75242 10.1087 4.40355 8.27555 5.59466 6.80649C6.78577 5.33744 8.44478 4.32144 10.2947 3.92813ZM19.8431 17.9166C19.7184 17.9809 19.5781 18.0089 19.4382 17.9975C19.2984 17.9861 19.1645 17.9356 19.0519 17.8519C17.7338 16.8938 15.4406 15.75 12 15.75C8.55937 15.75 6.26625 16.8938 4.94812 17.8519C4.8355 17.9356 4.70164 17.9861 4.56176 17.9975C4.42189 18.0089 4.28161 17.9809 4.15688 17.9166C4.03278 17.8555 3.92862 17.7604 3.85657 17.6424C3.78452 17.5244 3.74755 17.3883 3.75 17.25V14.6316C6.1605 12.92 9.04366 12.0005 12 12.0005C14.9563 12.0005 17.8395 12.92 20.25 14.6316V17.25C20.2524 17.3883 20.2155 17.5244 20.1434 17.6424C20.0714 17.7604 19.9672 17.8555 19.8431 17.9166Z" fill="#A66CFE"/>
</svg>
