<svg width="32" height="32" viewBox="0 0 32 32" fill="none" xmlns="http://www.w3.org/2000/svg">
<path d="M15.5 29.8867L12.7216 31.8204C12.3896 32.0521 12.0637 32.0596 11.744 31.8429C11.4244 31.6261 11.3242 31.3359 11.4436 30.9722L12.5405 27.824L9.81358 26.077C9.48018 25.8765 9.37933 25.6 9.51105 25.2475C9.64277 24.8962 9.90963 24.7206 10.3116 24.7206H13.5839L15.1049 20.2794L8.11363 16.5707C7.44407 16.2282 6.92475 15.7586 6.55568 15.1619C6.18523 14.5653 6 13.9213 6 13.23V3.01744C6 2.1829 6.32449 1.47104 6.97346 0.881877C7.62106 0.293959 8.40519 0 9.32582 0H21.6742C22.5948 0 23.3789 0.293959 24.0265 0.881877C24.6755 1.4698 25 2.18165 25 3.01744V13.23C25 13.8977 24.8017 14.518 24.4052 15.0909C24.0101 15.6639 23.477 16.1335 22.8061 16.4997L15.8951 20.2794L17.4161 24.7206H20.6884C21.0904 24.7206 21.3572 24.8968 21.489 25.2493C21.6207 25.6006 21.5205 25.8765 21.1885 26.077L18.4615 27.824L19.5564 30.9722C19.6758 31.3359 19.5756 31.6261 19.256 31.8429C18.9363 32.0596 18.6104 32.0521 18.2784 31.8204L15.5 29.8867ZM8.06012 3.01931V13.23C8.06012 13.5888 8.1589 13.9182 8.35648 14.2184C8.55405 14.5173 8.82434 14.7627 9.16735 14.9545L14.471 17.7721V1.86838H9.32582C8.95537 1.86838 8.65215 1.97613 8.41616 2.19161C8.1788 2.4071 8.06012 2.68424 8.06012 3.01931ZM21.6742 1.86838H16.529V17.7721L21.8326 14.9545C22.1757 14.7627 22.4459 14.5173 22.6435 14.2184C22.8411 13.9195 22.9399 13.5894 22.9399 13.2282V3.01931C22.9399 2.68424 22.8212 2.40897 22.5838 2.19348C22.3465 1.978 22.0433 1.86963 21.6742 1.86838Z" fill="#A66CFE"/>
</svg>
