<svg width="24" height="24" viewBox="0 0 24 24" fill="none" xmlns="http://www.w3.org/2000/svg">
<path d="M20.457 14.5901C20.903 13.1531 21.908 7.84007 14.527 3.10007C14.4019 3.01962 14.2526 2.98557 14.1049 3.00384C13.9573 3.02211 13.8208 3.09155 13.719 3.20007C13.6189 3.30603 13.5613 3.44515 13.5573 3.59087C13.5532 3.7366 13.603 3.87871 13.697 3.99007C13.727 4.02607 16.447 7.34007 15.48 11.1251C13.807 9.97407 7.15604 4.70207 7.15604 4.70207L11 11.0001L3.86204 6.40007C3.86204 6.40007 8.90804 12.5951 11.996 14.9261C10.501 15.4621 7.25304 16.0301 2.96304 13.3641C2.8441 13.2905 2.70432 13.2578 2.56508 13.2712C2.42584 13.2846 2.29481 13.3432 2.19204 13.4381C2.0909 13.5304 2.02501 13.655 2.00567 13.7905C1.98633 13.9261 2.01475 14.0642 2.08604 14.1811C2.22904 14.4201 5.66804 20.0001 12.939 20.0001C14.934 20.0001 16.099 19.4321 17.037 18.9761C17.613 18.6971 18.068 18.4751 18.565 18.4751C19.801 18.4751 20.612 19.7021 20.619 19.7131C20.6812 19.809 20.7683 19.8862 20.871 19.9364C20.9737 19.9866 21.0882 20.0079 21.202 19.9981C21.3152 19.9904 21.424 19.9518 21.5168 19.8866C21.6095 19.8214 21.6826 19.7319 21.728 19.6281C22.621 17.5541 21.083 15.3591 20.457 14.5891" stroke="#CFF500" stroke-width="1.5" stroke-linecap="round" stroke-linejoin="round"/>
</svg>
