<svg width="24" height="24" viewBox="0 0 24 24" fill="none" xmlns="http://www.w3.org/2000/svg">
<path fill-rule="evenodd" clip-rule="evenodd" d="M17.861 3.16273L18.021 3.21673L19.223 3.61673C19.686 3.77173 20.093 3.90673 20.414 4.05673C20.762 4.21873 21.081 4.42673 21.325 4.76573C21.569 5.10473 21.666 5.47273 21.71 5.85373C21.75 6.20673 21.75 6.63473 21.75 7.12373V15.3357C21.75 16.0337 21.75 16.6227 21.696 17.0887C21.64 17.5727 21.514 18.0507 21.161 18.4367C20.952 18.6655 20.6981 18.8487 20.415 18.9747C19.937 19.1867 19.444 19.1547 18.967 19.0557C18.507 18.9597 17.949 18.7737 17.287 18.5527L17.244 18.5387C16.124 18.1647 15.739 18.0487 15.367 18.0617C15.2184 18.0671 15.0707 18.0869 14.926 18.1207C14.563 18.2057 14.223 18.4197 13.24 19.0747L11.858 19.9967L11.718 20.0897C10.656 20.7987 9.918 21.2907 9.054 21.4067C8.191 21.5227 7.349 21.2417 6.139 20.8367L5.979 20.7837L4.777 20.3837C4.314 20.2287 3.907 20.0937 3.586 19.9437C3.238 19.7817 2.919 19.5737 2.675 19.2337C2.431 18.8957 2.334 18.5277 2.29 18.1457C2.25 17.7927 2.25 17.3657 2.25 16.8767V8.66473C2.25 7.96573 2.25 7.37673 2.304 6.91173C2.36 6.42773 2.486 5.94973 2.839 5.56373C3.04797 5.33494 3.30194 5.15178 3.585 5.02573C4.063 4.81273 4.557 4.84473 5.033 4.94473C5.493 5.03973 6.051 5.22673 6.713 5.44773L6.756 5.46173C7.876 5.83473 8.261 5.95173 8.634 5.93873C8.78223 5.93329 8.92958 5.91353 9.074 5.87973C9.437 5.79373 9.777 5.57973 10.76 4.92573L12.142 4.00373L12.282 3.90973C13.344 3.20173 14.082 2.70973 14.945 2.59373C15.809 2.47773 16.651 2.75773 17.861 3.16273ZM15.75 4.10673V16.5797C16.286 16.6377 16.85 16.8257 17.593 17.0737L17.718 17.1157C18.435 17.3547 18.91 17.5117 19.273 17.5877C19.629 17.6617 19.75 17.6277 19.805 17.6037C19.8994 17.5618 19.9842 17.5009 20.054 17.4247C20.094 17.3807 20.164 17.2757 20.206 16.9147C20.249 16.5467 20.25 16.0457 20.25 15.2907V7.16273C20.25 6.62273 20.249 6.28273 20.22 6.02473C20.192 5.78573 20.148 5.69673 20.108 5.64273C20.069 5.58873 19.999 5.51773 19.782 5.41673C19.546 5.30673 19.222 5.19873 18.712 5.02773L17.547 4.63973C16.66 4.34373 16.134 4.17673 15.75 4.10673ZM14.25 16.7597V4.43373C13.939 4.61373 13.54 4.87473 12.974 5.25173L11.592 6.17373L11.482 6.24673C10.794 6.70673 10.281 7.04873 9.75 7.24073V19.5667C10.061 19.3867 10.46 19.1247 11.026 18.7477L12.408 17.8267L12.518 17.7537C13.206 17.2937 13.719 16.9517 14.25 16.7597ZM8.25 19.8947V7.41973C7.714 7.36173 7.15 7.17373 6.407 6.92573L6.282 6.88373C5.565 6.64473 5.09 6.48773 4.726 6.41173C4.371 6.33773 4.25 6.37073 4.196 6.39473C4.10111 6.43678 4.01598 6.49807 3.946 6.57473C3.906 6.61773 3.836 6.72273 3.794 7.08373C3.751 7.45173 3.75 7.95373 3.75 8.70873V16.8367C3.75 17.3767 3.751 17.7167 3.78 17.9747C3.808 18.2137 3.852 18.3017 3.892 18.3567C3.931 18.4107 4.001 18.4817 4.218 18.5827C4.454 18.6927 4.778 18.8007 5.288 18.9717L6.453 19.3597C7.34 19.6547 7.865 19.8227 8.25 19.8937" fill="#CFF500"/>
</svg>
