<svg width="24" height="24" viewBox="0 0 24 24" fill="none" xmlns="http://www.w3.org/2000/svg">
<path d="M13.9338 13.1351C13.2067 13.1351 12.5952 12.8908 12.0993 12.4022C11.6034 11.9136 11.3554 11.3111 11.3554 10.5947C11.3554 9.87836 11.6034 9.27588 12.0993 8.78728C12.5952 8.29869 13.2067 8.05439 13.9338 8.05439C14.6609 8.05439 15.2725 8.29869 15.7684 8.78728C16.2643 9.27588 16.5122 9.87836 16.5122 10.5947C16.5122 11.3111 16.2643 11.9136 15.7684 12.4022C15.2725 12.8908 14.6609 13.1351 13.9338 13.1351ZM5.95101 17.1908C5.37774 17.1908 4.88741 16.9896 4.48002 16.5874C4.07177 16.1852 3.86764 15.7021 3.86764 15.1382V6.05133C3.86764 5.48737 4.07177 5.00471 4.48002 4.60333C4.88827 4.20196 5.37817 4.00085 5.94972 4H21.9166C22.4899 4 22.9802 4.20069 23.3876 4.60206C23.795 5.00344 23.9991 5.48653 24 6.05133V15.1382C24 15.7021 23.7959 16.1848 23.3876 16.5861C22.9802 16.9892 22.4903 17.1908 21.9179 17.1908H5.95101ZM7.24022 15.9206H20.6274C20.6274 15.3515 20.8315 14.8672 21.2398 14.4675C21.6472 14.0678 22.1371 13.868 22.7095 13.868V7.3215C22.1336 7.3215 21.6429 7.12082 21.2372 6.71944C20.8307 6.31722 20.6274 5.83413 20.6274 5.27017H7.24022C7.24022 5.83836 7.0361 6.3223 6.62785 6.72198C6.22046 7.12166 5.73055 7.3215 5.15814 7.3215V13.868C5.73399 13.868 6.22518 14.0691 6.63171 14.4713C7.03739 14.8727 7.24022 15.3553 7.24022 15.9193M20.1813 21H2.08337C1.5101 21 1.01977 20.7993 0.612377 20.3979C0.204126 19.9957 0 19.5126 0 18.9487V7.76098H1.28921V18.9487C1.28921 19.1434 1.37172 19.3225 1.53674 19.486C1.70262 19.6494 1.88483 19.7311 2.08337 19.7311H20.1813V21ZM5.95101 15.9193H5.15685V5.27144H5.95101C5.73614 5.27144 5.55006 5.34892 5.39278 5.50389C5.2355 5.65885 5.15685 5.84175 5.15685 6.0526V15.1382C5.15685 15.3498 5.2355 15.5332 5.39278 15.6881C5.55006 15.8431 5.73614 15.9206 5.95101 15.9206" fill="#CFF500"/>
</svg>
