<svg width="32" height="33" viewBox="0 0 32 33" fill="none" xmlns="http://www.w3.org/2000/svg">
<path d="M4 25.8333V7.16667C4 6.45942 4.28095 5.78115 4.78105 5.28105C5.28115 4.78095 5.95942 4.5 6.66667 4.5H25.3333C26.0406 4.5 26.7189 4.78095 27.219 5.28105C27.719 5.78115 28 6.45942 28 7.16667V25.8333C28 26.5406 27.719 27.2189 27.219 27.719C26.7189 28.219 26.0406 28.5 25.3333 28.5H6.66667C5.95942 28.5 5.28115 28.219 4.78105 27.719C4.28095 27.2189 4 26.5406 4 25.8333Z" stroke="white" stroke-width="1.5"/>
<path d="M24 19.1667V13.8333M16.6667 13.1667L18 11.8333M9.99999 13.1667L8.66666 11.8333M8.66666 21.1667L9.99999 19.8333M18 21.1667L16.6667 19.8333M2.66666 11.1667H3.99999M2.66666 8.5H3.99999M3.99999 21.8333H2.66666M3.99999 24.5H2.66666M13.3333 20.5C12.2725 20.5 11.255 20.0786 10.5049 19.3284C9.75475 18.5783 9.33332 17.5609 9.33332 16.5C9.33332 15.4391 9.75475 14.4217 10.5049 13.6716C11.255 12.9214 12.2725 12.5 13.3333 12.5C14.3942 12.5 15.4116 12.9214 16.1618 13.6716C16.9119 14.4217 17.3333 15.4391 17.3333 16.5C17.3333 17.5609 16.9119 18.5783 16.1618 19.3284C15.4116 20.0786 14.3942 20.5 13.3333 20.5Z" stroke="white" stroke-width="1.5" stroke-linecap="round" stroke-linejoin="round"/>
</svg>
