<svg width="24" height="24" viewBox="0 0 24 24" fill="none" xmlns="http://www.w3.org/2000/svg">
<path d="M11.88 14.507H11.9325C13.0575 14.537 13.9575 15.452 13.9575 16.577C13.9575 17.537 13.305 18.3395 12.42 18.5795V19.4195C12.42 19.7195 12.18 19.9595 11.88 19.9595C11.58 19.9595 11.34 19.7195 11.34 19.4195V18.5795C10.8994 18.4608 10.5101 18.2005 10.2322 17.8385C9.95429 17.4766 9.80329 17.0333 9.80251 16.577C9.80251 16.277 10.0425 16.037 10.3425 16.037C10.6425 16.037 10.8825 16.277 10.8825 16.577C10.8825 17.132 11.325 17.5745 11.8725 17.5745C12.42 17.5745 12.87 17.1245 12.87 16.577C12.87 16.0295 12.42 15.5795 11.8725 15.5795H11.82C11.2805 15.5648 10.7679 15.3404 10.3912 14.9539C10.0145 14.5674 9.80328 14.0492 9.80251 13.5095C9.80251 12.5495 10.455 11.747 11.34 11.507V10.667C11.34 10.367 11.58 10.127 11.88 10.127C12.18 10.127 12.42 10.367 12.42 10.667V11.507C13.305 11.747 13.9575 12.5495 13.9575 13.5095C13.9575 13.8095 13.7175 14.0495 13.4175 14.0495C13.1175 14.0495 12.8775 13.8095 12.8775 13.5095C12.8775 12.962 12.4275 12.512 11.88 12.512C11.3325 12.512 10.8825 12.962 10.8825 13.5095C10.8825 14.057 11.3325 14.507 11.88 14.507Z" fill="#CFF500"/>
<path d="M7.899 3.82416L9.9885 6.26916L9.76275 6.52116C5.46225 7.48566 2.25 11.3264 2.25 15.9179C2.25 19.9544 5.526 23.2304 9.5625 23.2304H14.19C18.2265 23.2304 21.5025 19.9552 21.5025 15.9187C21.51 11.3264 18.2978 7.48566 13.9973 6.52116C14.0149 6.36267 13.9863 6.20246 13.9148 6.05991L15.6923 4.02516L15.807 3.84816C15.941 3.55591 15.9753 3.22773 15.9046 2.9141C15.8338 2.60046 15.6621 2.31874 15.4156 2.11227C15.1692 1.90579 14.8617 1.78599 14.5406 1.77129C14.2194 1.75659 13.9023 1.84781 13.638 2.03091L13.0058 1.28091C12.8639 1.1222 12.6902 0.995151 12.496 0.908049C12.3018 0.820947 12.0914 0.775747 11.8786 0.775393C11.6657 0.775039 11.4552 0.81954 11.2607 0.905996C11.0662 0.992451 10.8921 1.11892 10.7498 1.27716L10.0875 2.01666C9.82391 1.82975 9.50608 1.7349 9.18317 1.74677C8.86025 1.75865 8.55025 1.8766 8.3011 2.08237C8.05196 2.28814 7.87755 2.57027 7.80487 2.88512C7.73218 3.19997 7.76527 3.53 7.899 3.82416ZM10.7483 4.86291L9.47625 3.39291C9.77182 3.53505 10.1061 3.57534 10.427 3.5075C10.7479 3.43967 11.0373 3.26751 11.25 3.01791L11.85 2.23941L12.516 3.02841C12.7237 3.2699 13.0038 3.43782 13.3146 3.50715C13.6255 3.57648 13.9504 3.54352 14.241 3.41316L12.975 4.86291H10.7483ZM3.75 15.9179C3.75 11.4269 7.389 7.78791 11.88 7.78791C16.371 7.78791 20.01 11.4269 20.0025 15.9164V15.9179C20.0019 17.4593 19.3893 18.9374 18.2994 20.0273C17.2095 21.1172 15.7314 21.7298 14.19 21.7304H9.5625C8.02111 21.7298 6.54303 21.1172 5.4531 20.0273C4.36317 18.9374 3.7506 17.4593 3.75 15.9179Z" fill="#CFF500"/>
</svg>
