<svg width="20" height="21" viewBox="0 0 20 21" fill="none" xmlns="http://www.w3.org/2000/svg">
<path d="M7 4.5C7 5.915 7 6.622 6.56 7.06C6.121 7.5 5.415 7.5 4 7.5C2.585 7.5 1.878 7.5 1.44 7.06C1 6.621 1 5.915 1 4.5C1 3.085 1 2.378 1.44 1.94C1.879 1.5 2.585 1.5 4 1.5C5.415 1.5 6.122 1.5 6.56 1.94C7 2.379 7 3.085 7 4.5ZM7 4.5H10M16 7.5C14.585 7.5 13.878 7.5 13.44 7.06C13 6.621 13 5.915 13 4.5C13 3.085 13 2.378 13.44 1.94C13.879 1.5 14.585 1.5 16 1.5C17.415 1.5 18.122 1.5 18.56 1.94C19 2.379 19 3.085 19 4.5C19 5.915 19 6.622 18.56 7.06C18.121 7.5 17.415 7.5 16 7.5ZM16 7.5V10.5M13 16.5C13 15.085 13 14.378 13.44 13.94C13.879 13.5 14.585 13.5 16 13.5C17.415 13.5 18.122 13.5 18.56 13.94C19 14.379 19 15.086 19 16.5C19 17.914 19 18.621 18.56 19.06C18.121 19.5 17.414 19.5 16 19.5C14.586 19.5 13.879 19.5 13.44 19.06C13 18.621 13 17.915 13 16.5ZM13 16.5H10M4 13.5C5.415 13.5 6.122 13.5 6.56 13.94C7 14.379 7 15.085 7 16.5C7 17.915 7 18.622 6.56 19.06C6.121 19.5 5.415 19.5 4 19.5C2.585 19.5 1.878 19.5 1.44 19.06C1 18.621 1 17.915 1 16.5C1 15.085 1 14.378 1.44 13.94C1.879 13.5 2.585 13.5 4 13.5ZM4 13.5V10.5" stroke="white" stroke-width="1.5" stroke-linecap="round" stroke-linejoin="round"/>
</svg>
