<svg width="24" height="24" viewBox="0 0 24 24" fill="none" xmlns="http://www.w3.org/2000/svg">
<path d="M4.00033 20.0003L20.0003 4.00033M8.26833 4.73233C8.73723 5.20123 9.00066 5.8372 9.00066 6.50033C9.00066 7.16346 8.73723 7.79943 8.26833 8.26833C7.79943 8.73723 7.16346 9.00066 6.50033 9.00066C5.8372 9.00066 5.20123 8.73723 4.73233 8.26833C4.26343 7.79943 4 7.16346 4 6.50033C4 5.8372 4.26343 5.20123 4.73233 4.73233C5.20123 4.26343 5.8372 4 6.50033 4C7.16346 4 7.79943 4.26343 8.26833 4.73233ZM19.2683 15.7323C19.5005 15.9645 19.6847 16.2401 19.8103 16.5435C19.936 16.8468 20.0007 17.172 20.0007 17.5003C20.0007 17.8287 19.936 18.1538 19.8103 18.4572C19.6847 18.7605 19.5005 19.0362 19.2683 19.2683C19.0362 19.5005 18.7605 19.6847 18.4572 19.8103C18.1538 19.936 17.8287 20.0007 17.5003 20.0007C17.172 20.0007 16.8468 19.936 16.5435 19.8103C16.2401 19.6847 15.9645 19.5005 15.7323 19.2683C15.2634 18.7994 15 18.1635 15 17.5003C15 16.8372 15.2634 16.2012 15.7323 15.7323C16.2012 15.2634 16.8372 15 17.5003 15C18.1635 15 18.7994 15.2634 19.2683 15.7323Z" stroke="#CFF500" stroke-width="1.5" stroke-linecap="round" stroke-linejoin="round"/>
</svg>
