<svg width="24" height="24" viewBox="0 0 24 24" fill="none" xmlns="http://www.w3.org/2000/svg">
<path d="M10.25 14C9.98478 14 9.73043 13.8946 9.54289 13.7071C9.35536 13.5196 9.25 13.2652 9.25 13V10.64L11.5 9L13.75 10.64V13C13.75 13.2652 13.6446 13.5196 13.4571 13.7071C13.2696 13.8946 13.0152 14 12.75 14H10.25Z" stroke="#CFF500" stroke-linecap="round" stroke-linejoin="round"/>
<path d="M16.893 16.92L19.973 20M19 11.5C19 13.4891 18.2098 15.3968 16.8033 16.8033C15.3968 18.2098 13.4891 19 11.5 19C9.51088 19 7.60322 18.2098 6.1967 16.8033C4.79018 15.3968 4 13.4891 4 11.5C4 9.51088 4.79018 7.60322 6.1967 6.1967C7.60322 4.79018 9.51088 4 11.5 4C13.4891 4 15.3968 4.79018 16.8033 6.1967C18.2098 7.60322 19 9.51088 19 11.5Z" stroke="#CFF500" stroke-width="1.5" stroke-linecap="round" stroke-linejoin="round"/>
</svg>
