<svg width="17" height="20" viewBox="0 0 17 20" fill="none" xmlns="http://www.w3.org/2000/svg">
<path d="M9.25 12.5C9.25 12.7652 9.14464 13.0196 8.95711 13.2071C8.76957 13.3946 8.51522 13.5 8.25 13.5C7.98478 13.5 7.73043 13.3946 7.54289 13.2071C7.35536 13.0196 7.25 12.7652 7.25 12.5C7.25 12.2348 7.35536 11.9804 7.54289 11.7929C7.73043 11.6054 7.98478 11.5 8.25 11.5C8.51522 11.5 8.76957 11.6054 8.95711 11.7929C9.14464 11.9804 9.25 12.2348 9.25 12.5ZM7.5 4.75V9.75C7.5 9.94891 7.57902 10.1397 7.71967 10.2803C7.86032 10.421 8.05109 10.5 8.25 10.5C8.44891 10.5 8.63968 10.421 8.78033 10.2803C8.92098 10.1397 9 9.94891 9 9.75V4.75C9 4.55109 8.92098 4.36032 8.78033 4.21967C8.63968 4.07902 8.44891 4 8.25 4C8.05109 4 7.86032 4.07902 7.71967 4.21967C7.57902 4.36032 7.5 4.55109 7.5 4.75ZM0 2.5C0 1.83696 0.263392 1.20107 0.732233 0.732233C1.20107 0.263392 1.83696 0 2.5 0H14C14.3283 0 14.6534 0.0646644 14.9567 0.190301C15.26 0.315938 15.5356 0.500087 15.7678 0.732233C15.9999 0.964379 16.1841 1.23998 16.3097 1.54329C16.4353 1.84661 16.5 2.1717 16.5 2.5V16.75C16.5 16.9489 16.421 17.1397 16.2803 17.2803C16.1397 17.421 15.9489 17.5 15.75 17.5H1.5C1.5 17.7652 1.60536 18.0196 1.79289 18.2071C1.98043 18.3946 2.23478 18.5 2.5 18.5H15.75C15.9489 18.5 16.1397 18.579 16.2803 18.7197C16.421 18.8603 16.5 19.0511 16.5 19.25C16.5 19.4489 16.421 19.6397 16.2803 19.7803C16.1397 19.921 15.9489 20 15.75 20H2.5C1.83696 20 1.20107 19.7366 0.732233 19.2678C0.263392 18.7989 0 18.163 0 17.5V2.5ZM15 16V2.5C15 2.23478 14.8946 1.98043 14.7071 1.79289C14.5196 1.60536 14.2652 1.5 14 1.5H2.5C2.23478 1.5 1.98043 1.60536 1.79289 1.79289C1.60536 1.98043 1.5 2.23478 1.5 2.5V16H15Z" fill="#CFF500"/>
</svg>
