<svg width="18" height="19" viewBox="0 0 18 19" fill="none" xmlns="http://www.w3.org/2000/svg">
<path d="M9 18.5C7.346 18.5 6 17.154 6 15.5L6.053 12.447L3.018 12.5C1.346 12.5 0 11.154 0 9.5C0 7.846 1.346 6.5 3 6.5L6.053 6.446L6 3.518C6 1.846 7.346 0.5 9 0.5C10.654 0.5 12 1.846 12 3.5L12.055 6.446L15.018 6.5C16.654 6.5 18 7.846 18 9.5C18 11.154 16.654 12.5 15 12.5L12.055 12.447L12 15.518C12 17.154 10.654 18.5 9 18.5ZM8 10.5V15.518C8 16.051 8.449 16.5 9 16.5C9.551 16.5 10 16.051 10 15.5V10.5H15.018C15.551 10.5 16 10.051 16 9.5C16 8.949 15.551 8.5 15 8.5H10V3.5C10 2.931 9.551 2.5 9 2.5C8.449 2.5 8 2.949 8 3.5V8.5H3C2.431 8.5 2 8.949 2 9.5C2 10.051 2.449 10.5 3 10.5H8Z" fill="#CFF500"/>
</svg>
