<svg width="18" height="19" viewBox="0 0 18 19" fill="none" xmlns="http://www.w3.org/2000/svg">
<g clip-path="url(#clip0_2535_3527)">
<path d="M16.9349 4.66047L13.9999 1.71047C13.806 1.51751 13.5435 1.40918 13.2699 1.40918C12.9963 1.40918 12.7339 1.51751 12.5399 1.71047L2.13491 12.1005L1.18491 16.2005C1.15213 16.3504 1.15326 16.5057 1.18819 16.655C1.22313 16.8044 1.291 16.9441 1.38684 17.0639C1.48268 17.1837 1.60407 17.2806 1.74214 17.3475C1.88022 17.4144 2.03149 17.4495 2.18491 17.4505C2.25636 17.4582 2.32845 17.4582 2.39991 17.4505L6.54491 16.5005L16.9349 6.12047C17.1279 5.92653 17.2362 5.66406 17.2362 5.39047C17.2362 5.11688 17.1279 4.85442 16.9349 4.66047ZM6.04491 15.6005L2.15991 16.4155L3.04491 12.6055L10.8299 4.85047L13.8299 7.85047L6.04491 15.6005ZM14.4999 7.12547L11.4999 4.12547L13.2399 2.39547L16.1899 5.39547L14.4999 7.12547Z" fill="#A66CFE"/>
</g>
<defs>
<clipPath id="clip0_2535_3527">
<rect width="18" height="18" fill="white" transform="translate(0 0.5)"/>
</clipPath>
</defs>
</svg>
