<svg width="18" height="19" viewBox="0 0 18 19" fill="none" xmlns="http://www.w3.org/2000/svg">
<path d="M1.00009 17.5003L17.0001 1.50033M5.26809 2.23233C5.73699 2.70123 6.00042 3.3372 6.00042 4.00033C6.00042 4.66346 5.73699 5.29943 5.26809 5.76833C4.79918 6.23723 4.16321 6.50066 3.50009 6.50066C2.83696 6.50066 2.20099 6.23723 1.73209 5.76833C1.26318 5.29943 0.999756 4.66346 0.999756 4.00033C0.999756 3.3372 1.26318 2.70123 1.73209 2.23233C2.20099 1.76343 2.83696 1.5 3.50009 1.5C4.16321 1.5 4.79918 1.76343 5.26809 2.23233ZM16.2681 13.2323C16.5003 13.4645 16.6844 13.7401 16.8101 14.0435C16.9357 14.3468 17.0004 14.672 17.0004 15.0003C17.0004 15.3287 16.9357 15.6538 16.8101 15.9572C16.6844 16.2605 16.5003 16.5362 16.2681 16.7683C16.0359 17.0005 15.7603 17.1847 15.4569 17.3103C15.1536 17.436 14.8284 17.5007 14.5001 17.5007C14.1717 17.5007 13.8466 17.436 13.5433 17.3103C13.2399 17.1847 12.9643 17.0005 12.7321 16.7683C12.2632 16.2994 11.9998 15.6635 11.9998 15.0003C11.9998 14.3372 12.2632 13.7012 12.7321 13.2323C13.201 12.7634 13.837 12.5 14.5001 12.5C15.1632 12.5 15.7992 12.7634 16.2681 13.2323Z" stroke="white" stroke-width="1.5" stroke-linecap="round" stroke-linejoin="round"/>
</svg>
