<svg width="37" height="37" viewBox="0 0 37 37" fill="none" xmlns="http://www.w3.org/2000/svg">
<path d="M6.16665 30.8351L30.8333 6.16848M12.7465 7.29698C13.4694 8.01987 13.8755 9.00032 13.8755 10.0226C13.8755 11.045 13.4694 12.0254 12.7465 12.7483C12.0236 13.4712 11.0431 13.8773 10.0208 13.8773C8.99849 13.8773 8.01804 13.4712 7.29515 12.7483C6.57225 12.0254 6.16614 11.045 6.16614 10.0226C6.16614 9.00032 6.57225 8.01987 7.29515 7.29698C8.01804 6.57408 8.99849 6.16797 10.0208 6.16797C11.0431 6.16797 12.0236 6.57408 12.7465 7.29698ZM29.7048 24.2553C30.0628 24.6133 30.3467 25.0382 30.5404 25.5059C30.7341 25.9735 30.8338 26.4748 30.8338 26.981C30.8338 27.4872 30.7341 27.9884 30.5404 28.4561C30.3467 28.9238 30.0628 29.3487 29.7048 29.7066C29.3469 30.0646 28.9219 30.3485 28.4543 30.5422C27.9866 30.7359 27.4854 30.8357 26.9791 30.8357C26.4729 30.8357 25.9717 30.7359 25.504 30.5422C25.0364 30.3485 24.6114 30.0646 24.2535 29.7066C23.5306 28.9838 23.1245 28.0033 23.1245 26.981C23.1245 25.9587 23.5306 24.9782 24.2535 24.2553C24.9764 23.5324 25.9568 23.1263 26.9791 23.1263C28.0015 23.1263 28.9819 23.5324 29.7048 24.2553Z" stroke="white" stroke-width="2" stroke-linecap="round" stroke-linejoin="round"/>
</svg>
