<svg width="32" height="32" viewBox="0 0 32 32" fill="none" xmlns="http://www.w3.org/2000/svg">
<path d="M29.5437 6.8262C28.7851 6.01327 27.8673 5.36507 26.8475 4.92188C25.8276 4.4787 24.7276 4.25 23.6156 4.25C22.5037 4.25 21.4036 4.4787 20.3838 4.92188C19.3639 5.36507 18.4462 6.01327 17.6875 6.8262C16.9798 7.57018 16.4086 8.43293 16 9.37495C15.5911 8.43382 15.0199 7.57193 14.3125 6.8287C13.5538 6.01577 12.636 5.36757 11.6162 4.92438C10.5964 4.4812 9.49632 4.2525 8.38437 4.2525C7.27241 4.2525 6.17233 4.4812 5.15251 4.92438C4.13269 5.36757 3.21492 6.01577 2.45624 6.8287C2.37319 6.91649 2.31259 7.02306 2.27959 7.13933C2.2466 7.25559 2.24219 7.37811 2.26674 7.49644C2.29129 7.61478 2.34407 7.72543 2.4206 7.81897C2.49712 7.91252 2.59512 7.98618 2.70624 8.03369L10.435 11.3962C10.2037 11.4387 9.97249 11.4887 9.74249 11.5499C8.63343 11.8404 7.59292 12.3478 6.68107 13.0427C5.76923 13.7376 5.00413 14.6064 4.42999 15.5987C3.85199 16.5849 3.47685 17.6766 3.32659 18.8098C3.17633 19.9429 3.25399 21.0947 3.55499 22.1974C3.58699 22.3163 3.64774 22.4254 3.73188 22.5152C3.81603 22.6051 3.92098 22.6728 4.03749 22.7124C4.11523 22.7387 4.1967 22.7522 4.27874 22.7524C4.44316 22.7525 4.60303 22.6984 4.73374 22.5987L14.4468 15.1924C14.7759 14.9414 15.25 15.1761 15.25 15.59V27.9999C15.25 28.1989 15.329 28.3896 15.4697 28.5303C15.6103 28.6709 15.8011 28.7499 16 28.7499C16.1989 28.7499 16.3897 28.6709 16.5303 28.5303C16.671 28.3896 16.75 28.1989 16.75 27.9999V15.5895C16.75 15.1757 17.2239 14.941 17.553 15.1918L27.2712 22.5962C27.402 22.6959 27.5618 22.75 27.7262 22.7499C27.8083 22.7497 27.8898 22.7362 27.9675 22.7099C28.084 22.6703 28.189 22.6026 28.2731 22.5127C28.3572 22.4229 28.418 22.3138 28.45 22.1949C28.751 21.0922 28.8286 19.9404 28.6784 18.8073C28.5281 17.6741 28.153 16.5824 27.575 15.5962C27.0008 14.6039 26.2358 13.7351 25.3239 13.0402C24.4121 12.3453 23.3716 11.8379 22.2625 11.5474C22.0325 11.4862 21.8012 11.4362 21.57 11.3937L29.2987 8.0312C29.4099 7.98368 29.5079 7.91002 29.5844 7.81647C29.6609 7.72293 29.7137 7.61228 29.7382 7.49394C29.7628 7.37561 29.7584 7.25309 29.7254 7.13683C29.6924 7.02056 29.6318 6.91399 29.5487 6.8262H29.5437ZM8.38499 5.74995C9.29331 5.75209 10.1916 5.94044 11.0242 6.30335C11.8569 6.66626 12.6063 7.19603 13.2262 7.85995C14.052 8.73044 14.6487 9.78641 14.9701 10.933C15.0762 11.3115 14.6915 11.6126 14.331 11.4559L5.14126 7.46179C4.7926 7.31025 4.73793 6.84428 5.06594 6.65208C6.06829 6.06474 7.2132 5.75084 8.38499 5.74995ZM5.49485 20.1265C5.18435 20.363 4.74158 20.167 4.75033 19.7768C4.77727 18.5754 5.1091 17.3953 5.72124 16.3499C6.19798 15.5287 6.83254 14.8098 7.58834 14.2349C8.34414 13.6599 9.20625 13.2402 10.125 12.9999C10.7415 12.8349 11.3768 12.7509 12.015 12.7499C12.5861 12.7497 13.1542 12.8174 13.7074 12.9507C14.0891 13.0427 14.1636 13.5247 13.8512 13.7626L5.49485 20.1265ZM26.2787 16.3499C26.8908 17.3952 27.2227 18.5753 27.2496 19.7766C27.2584 20.1668 26.8156 20.3628 26.5051 20.1263L18.1525 13.7625C17.8399 13.5244 17.9149 13.0418 18.2971 12.95C19.66 12.6228 21.0955 12.6946 22.4288 13.1671C24.0473 13.7408 25.411 14.8681 26.2787 16.3499ZM17.6689 11.4559C17.3084 11.6126 16.9238 11.3115 17.0298 10.933C17.3512 9.78641 17.948 8.73044 18.7737 7.85995C19.3936 7.19603 20.1431 6.66626 20.9757 6.30335C21.8084 5.94044 22.7067 5.75209 23.615 5.74995C24.7868 5.75084 25.9317 6.06474 26.934 6.65208C27.262 6.84428 27.2074 7.31025 26.8587 7.46179L17.6689 11.4559Z" fill="#A66CFE"/>
</svg>
