<svg width="32" height="31" viewBox="0 0 32 31" fill="none" xmlns="http://www.w3.org/2000/svg">
<rect width="32" height="31" rx="15.5" fill="#A66CFE"/>
<path fill-rule="evenodd" clip-rule="evenodd" d="M12.8805 7.19104C13.0047 7.06871 13.1732 7 13.3488 7C13.5245 7 13.6929 7.06871 13.8172 7.19104L15.5847 8.93302C15.6772 9.02438 15.7403 9.14072 15.7658 9.26736C15.7913 9.394 15.7782 9.52526 15.7281 9.64455C15.678 9.76384 15.5931 9.86583 15.4842 9.93761C15.3753 10.0094 15.2473 10.0478 15.1163 10.0479H13.3488C11.884 10.0479 10.4791 10.6214 9.44331 11.6423C8.40749 12.6632 7.82558 14.0478 7.82558 15.4916C7.82558 16.9353 8.40749 18.3199 9.44331 19.3408C10.4791 20.3617 11.884 20.9352 13.3488 20.9352H13.7907C13.9665 20.9352 14.1351 21.0041 14.2594 21.1266C14.3837 21.2491 14.4535 21.4152 14.4535 21.5885C14.4535 21.7617 14.3837 21.9279 14.2594 22.0504C14.1351 22.1729 13.9665 22.2417 13.7907 22.2417H13.3488C11.5324 22.2417 9.79038 21.5306 8.50598 20.2647C7.22157 18.9988 6.5 17.2818 6.5 15.4916C6.5 13.7013 7.22157 11.9844 8.50598 10.7185C9.79038 9.45258 11.5324 8.7414 13.3488 8.7414H13.5167L12.8805 8.11429C12.7563 7.99181 12.6866 7.82578 12.6866 7.65267C12.6866 7.47956 12.7563 7.31353 12.8805 7.19104ZM17.5465 9.39464C17.5465 9.22139 17.6163 9.05524 17.7406 8.93273C17.8649 8.81023 18.0335 8.7414 18.2093 8.7414H18.6512C20.4676 8.7414 22.2096 9.45258 23.494 10.7185C24.7784 11.9844 25.5 13.7013 25.5 15.4916C25.5 17.2818 24.7784 18.9988 23.494 20.2647C22.2096 21.5306 20.4676 22.2417 18.6512 22.2417H18.4833L19.1195 22.8688C19.1847 22.9286 19.2369 23.0008 19.2731 23.0809C19.3093 23.161 19.3288 23.2475 19.3304 23.3352C19.332 23.4229 19.3156 23.5101 19.2822 23.5914C19.2489 23.6728 19.1993 23.7466 19.1364 23.8087C19.0734 23.8707 18.9985 23.9196 18.9159 23.9525C18.8334 23.9853 18.745 24.0014 18.656 23.9999C18.567 23.9984 18.4792 23.9792 18.3979 23.9435C18.3166 23.9077 18.2435 23.8563 18.1828 23.7921L16.4153 22.0501C16.3228 21.9588 16.2597 21.8424 16.2342 21.7158C16.2087 21.5891 16.2218 21.4579 16.2719 21.3386C16.322 21.2193 16.4069 21.1173 16.5158 21.0455C16.6247 20.9737 16.7527 20.9354 16.8837 20.9352H18.6512C20.116 20.9352 21.5209 20.3617 22.5567 19.3408C23.5925 18.3199 24.1744 16.9353 24.1744 15.4916C24.1744 14.0478 23.5925 12.6632 22.5567 11.6423C21.5209 10.6214 20.116 10.0479 18.6512 10.0479H18.2093C18.0335 10.0479 17.8649 9.97906 17.7406 9.85656C17.6163 9.73405 17.5465 9.56789 17.5465 9.39464Z" fill="white"/>
</svg>
