<svg width="24" height="24" viewBox="0 0 24 24" fill="none" xmlns="http://www.w3.org/2000/svg">
<path d="M12 22C17.5228 22 22 17.5228 22 12C22 6.47715 17.5228 2 12 2C6.47715 2 2 6.47715 2 12C2 17.5228 6.47715 22 12 22Z" stroke="#CFF500" stroke-width="1.5" stroke-linecap="round"/>
<path d="M8.32401 16.273C8.74201 16.183 9.30001 16.115 9.92801 16.07C10.563 16.024 11.278 16 12 16C12.723 16 13.437 16.024 14.072 16.07C14.7 16.115 15.258 16.182 15.676 16.273" stroke="#CFF500" stroke-width="1.5" stroke-linecap="round"/>
<path d="M9.5 10C9.74 10 9.86 10 9.933 10.123C10.006 10.245 9.963 10.323 9.878 10.479C9.79199 10.6368 9.66506 10.7684 9.51056 10.8602C9.35605 10.9519 9.17969 11.0003 9 11.0003C8.82031 11.0003 8.64394 10.9519 8.48944 10.8602C8.33494 10.7684 8.20801 10.6368 8.122 10.479C8.037 10.323 7.994 10.245 8.067 10.123C8.14 10 8.26 10 8.5 10H9.5Z" fill="#CFF500"/>
<mask id="mask0_1902_4813" style="mask-type:luminance" maskUnits="userSpaceOnUse" x="7" y="9" width="4" height="3">
<path d="M7 9H11V12H7V9Z" fill="white"/>
<path d="M9.5 10C9.74 10 9.86 10 9.933 10.123C10.006 10.245 9.963 10.323 9.878 10.479C9.79199 10.6368 9.66506 10.7684 9.51056 10.8602C9.35605 10.9519 9.17969 11.0003 9 11.0003C8.82031 11.0003 8.64394 10.9519 8.48944 10.8602C8.33494 10.7684 8.20801 10.6368 8.122 10.479C8.037 10.323 7.994 10.245 8.067 10.123C8.14 10 8.26 10 8.5 10H9.5Z" fill="black"/>
</mask>
<g mask="url(#mask0_1902_4813)">
<path d="M9.5 10C9.74 10 9.86 10 9.933 10.123C10.006 10.245 9.963 10.323 9.878 10.479C9.79199 10.6368 9.66506 10.7684 9.51056 10.8602C9.35605 10.9519 9.17969 11.0003 9 11.0003C8.82031 11.0003 8.64394 10.9519 8.48944 10.8602C8.33494 10.7684 8.20801 10.6368 8.122 10.479C8.037 10.323 7.994 10.245 8.067 10.123C8.14 10 8.26 10 8.5 10H9.5Z" stroke="#CFF500" stroke-linecap="round"/>
</g>
<path d="M15.5 10C15.74 10 15.86 10 15.933 10.123C16.006 10.245 15.963 10.323 15.878 10.479C15.792 10.6368 15.6651 10.7684 15.5106 10.8602C15.3561 10.9519 15.1797 11.0003 15 11.0003C14.8203 11.0003 14.6439 10.9519 14.4894 10.8602C14.3349 10.7684 14.208 10.6368 14.122 10.479C14.037 10.323 13.994 10.245 14.067 10.123C14.14 10 14.26 10 14.5 10H15.5Z" fill="#CFF500"/>
<mask id="mask1_1902_4813" style="mask-type:luminance" maskUnits="userSpaceOnUse" x="13" y="9" width="4" height="3">
<path d="M13 9H17V12H13V9Z" fill="white"/>
<path d="M15.5 10C15.74 10 15.86 10 15.933 10.123C16.006 10.245 15.963 10.323 15.878 10.479C15.792 10.6368 15.6651 10.7684 15.5106 10.8602C15.3561 10.9519 15.1797 11.0003 15 11.0003C14.8203 11.0003 14.6439 10.9519 14.4894 10.8602C14.3349 10.7684 14.208 10.6368 14.122 10.479C14.037 10.323 13.994 10.245 14.067 10.123C14.14 10 14.26 10 14.5 10H15.5Z" fill="black"/>
</mask>
<g mask="url(#mask1_1902_4813)">
<path d="M15.5 10C15.74 10 15.86 10 15.933 10.123C16.006 10.245 15.963 10.323 15.878 10.479C15.792 10.6368 15.6651 10.7684 15.5106 10.8602C15.3561 10.9519 15.1797 11.0003 15 11.0003C14.8203 11.0003 14.6439 10.9519 14.4894 10.8602C14.3349 10.7684 14.208 10.6368 14.122 10.479C14.037 10.323 13.994 10.245 14.067 10.123C14.14 10 14.26 10 14.5 10H15.5Z" stroke="#CFF500" stroke-linecap="round"/>
</g>
</svg>
