<svg width="18" height="18" viewBox="0 0 18 18" fill="none" xmlns="http://www.w3.org/2000/svg">
<path d="M1 17L17 0.999994M5.268 1.73199C5.7369 2.2009 6.00033 2.83687 6.00033 3.49999C6.00033 4.16312 5.7369 4.79909 5.268 5.26799C4.7991 5.7369 4.16313 6.00032 3.5 6.00032C2.83687 6.00032 2.2009 5.7369 1.732 5.26799C1.2631 4.79909 0.999672 4.16312 0.999672 3.49999C0.999672 2.83687 1.2631 2.2009 1.732 1.73199C2.2009 1.26309 2.83687 0.999664 3.5 0.999664C4.16313 0.999664 4.7991 1.26309 5.268 1.73199ZM16.268 12.732C16.5002 12.9642 16.6844 13.2398 16.81 13.5432C16.9357 13.8465 17.0003 14.1716 17.0003 14.5C17.0003 14.8283 16.9357 15.1535 16.81 15.4568C16.6844 15.7602 16.5002 16.0358 16.268 16.268C16.0358 16.5002 15.7602 16.6843 15.4568 16.81C15.1535 16.9357 14.8283 17.0003 14.5 17.0003C14.1717 17.0003 13.8465 16.9357 13.5432 16.81C13.2398 16.6843 12.9642 16.5002 12.732 16.268C12.2631 15.7991 11.9997 15.1631 11.9997 14.5C11.9997 13.8369 12.2631 13.2009 12.732 12.732C13.2009 12.2631 13.8369 11.9997 14.5 11.9997C15.1631 11.9997 15.7991 12.2631 16.268 12.732Z" stroke="#A66CFE" stroke-width="1.5" stroke-linecap="round" stroke-linejoin="round"/>
</svg>
