<svg width="24" height="24" viewBox="0 0 24 24" fill="none" xmlns="http://www.w3.org/2000/svg">
<path d="M21.75 18.75H20.25V17.25H21V14.25H18V15H16.5V13.5C16.5 13.3011 16.579 13.1103 16.7197 12.9697C16.8603 12.829 17.0511 12.75 17.25 12.75H21.75C21.9489 12.75 22.1397 12.829 22.2803 12.9697C22.421 13.1103 22.5 13.3011 22.5 13.5V18C22.5 18.1989 22.421 18.3897 22.2803 18.5303C22.1397 18.671 21.9489 18.75 21.75 18.75Z" fill="#A66CFE"/>
<path d="M18 22.5H13.5C13.3011 22.5 13.1103 22.421 12.9697 22.2804C12.829 22.1397 12.75 21.949 12.75 21.75V17.25C12.75 17.0511 12.829 16.8604 12.9697 16.7197C13.1103 16.5791 13.3011 16.5 13.5 16.5H18C18.1989 16.5 18.3897 16.5791 18.5303 16.7197C18.671 16.8604 18.75 17.0511 18.75 17.25V21.75C18.75 21.949 18.671 22.1397 18.5303 22.2804C18.3897 22.421 18.1989 22.5 18 22.5ZM14.25 21H17.25V18H14.25V21ZM11.25 14.8935C10.7081 14.7523 10.2166 14.462 9.83142 14.0554C9.44623 13.6489 9.18274 13.1426 9.07086 12.5938C8.95899 12.0451 9.00322 11.476 9.19853 10.9511C9.39385 10.4263 9.73242 9.96671 10.1758 9.6246C10.6192 9.28249 11.1496 9.07156 11.7068 9.01575C12.2641 8.95994 12.8258 9.0615 13.3282 9.30889C13.8306 9.55628 14.2536 9.93959 14.5491 10.4153C14.8446 10.891 15.0008 11.44 15 12H16.5C16.5009 11.1419 16.2563 10.3014 15.7953 9.57764C15.3342 8.85389 14.6758 8.27706 13.8977 7.91518C13.1195 7.5533 12.2542 7.42145 11.4036 7.53518C10.553 7.64891 9.75271 8.00348 9.097 8.55708C8.4413 9.11068 7.95757 9.84023 7.70283 10.6597C7.4481 11.4792 7.43299 12.3544 7.65928 13.1822C7.88558 14.0099 8.34384 14.7557 8.98005 15.3316C9.61625 15.9075 10.4039 16.2895 11.25 16.4325V14.8935Z" fill="#A66CFE"/>
<path d="M21.6675 10.1625L19.935 11.685L18.87 10.62L20.6775 9.03L18.9075 5.97L16.3275 6.84C15.7229 6.33732 15.0384 5.93933 14.3025 5.6625L13.77 3H10.23L9.6975 5.6625C8.95572 5.93177 8.26757 6.33044 7.665 6.84L5.0925 5.97L3.3225 9.03L5.3625 10.8225C5.22382 11.5989 5.22382 12.3936 5.3625 13.17L3.3225 14.97L5.0925 18.03L7.6725 17.16C8.27711 17.6627 8.96156 18.0607 9.6975 18.3375L10.23 21H11.25V22.5H10.23C9.88315 22.4997 9.54712 22.3792 9.2791 22.1591C9.01108 21.9389 8.82764 21.6327 8.76 21.2925L8.3775 19.4025C8.03751 19.2377 7.70923 19.0498 7.395 18.84L5.5725 19.455C5.41764 19.5059 5.25551 19.5312 5.0925 19.53C4.829 19.5321 4.56974 19.4636 4.3416 19.3317C4.11346 19.1998 3.92474 19.0094 3.795 18.78L2.025 15.72C1.84994 15.4193 1.78489 15.067 1.84099 14.7236C1.89709 14.3801 2.07084 14.0669 2.3325 13.8375L3.7725 12.5775C3.7575 12.3825 3.75 12.195 3.75 12C3.75 11.805 3.765 11.6175 3.78 11.43L2.3325 10.1625C2.07084 9.93309 1.89709 9.61985 1.84099 9.27642C1.78489 8.93299 1.84994 8.58074 2.025 8.28L3.795 5.22C3.92474 4.99064 4.11346 4.80015 4.3416 4.66828C4.56974 4.53641 4.829 4.46795 5.0925 4.47C5.25551 4.46875 5.41764 4.49408 5.5725 4.545L7.3875 5.16C7.7053 4.95179 8.03596 4.76392 8.3775 4.5975L8.76 2.7075C8.82764 2.36731 9.01108 2.06107 9.2791 1.84091C9.54712 1.62075 9.88315 1.50028 10.23 1.5H13.77C14.1169 1.50028 14.4529 1.62075 14.7209 1.84091C14.9889 2.06107 15.1724 2.36731 15.24 2.7075L15.6225 4.5975C15.9625 4.76228 16.2908 4.95022 16.605 5.16L18.4275 4.545C18.5824 4.49408 18.7445 4.46875 18.9075 4.47C19.171 4.46795 19.4303 4.53641 19.6584 4.66828C19.8865 4.80015 20.0753 4.99064 20.205 5.22L21.975 8.28C22.1501 8.58074 22.2151 8.93299 22.159 9.27642C22.1029 9.61985 21.9292 9.93309 21.6675 10.1625Z" fill="#A66CFE"/>
</svg>
