<svg width="33" height="31" viewBox="0 0 33 31" fill="none" xmlns="http://www.w3.org/2000/svg">
<rect x="0.474609" width="32" height="31" rx="15.5" fill="#A66CFE"/>
<path fill-rule="evenodd" clip-rule="evenodd" d="M16.4744 6.07227C16.9476 6.07227 17.4118 6.10639 17.8671 6.17463L18.5513 8.24743C19.1506 8.41848 19.7203 8.66226 20.2483 8.96934L22.2147 8.02116C22.911 8.55586 23.5306 9.18618 24.0531 9.89193L23.07 11.8408C23.369 12.376 23.5997 12.9461 23.7622 13.5513L25.8229 14.2692C25.9376 15.1405 25.9299 16.0236 25.8 16.8929L23.7272 17.5771C23.5569 18.1701 23.3144 18.7401 23.0053 19.2741L23.9535 21.2405C23.4186 21.9375 22.7889 22.5563 22.0827 23.0789L20.1338 22.0957C19.5947 22.3969 19.0201 22.6295 18.4233 22.788L17.7054 24.8487C16.8341 24.9634 15.951 24.9557 15.0818 24.8258L14.3976 22.753C13.8045 22.5827 13.2346 22.3402 12.7006 22.0311L10.7342 22.9793C10.0372 22.4444 9.41836 21.8147 8.8957 21.1085L9.8789 19.1596C9.579 18.6199 9.3465 18.0455 9.18662 17.4491L7.12594 16.7299C7.01138 15.859 7.01908 14.9763 7.14884 14.1076L9.22164 13.4234C9.39269 12.824 9.63647 12.2543 9.94355 11.7263L8.99537 9.75994C9.53025 9.06295 10.1599 8.44415 10.8661 7.92149L12.815 8.90469C13.3541 8.60354 13.9287 8.37098 14.5255 8.21241L15.2448 6.15173C15.6479 6.09875 16.0578 6.07227 16.4744 6.07227Z" stroke="white" stroke-width="1.5" stroke-linecap="round" stroke-linejoin="round"/>
<path d="M16.4746 19.5401C18.7062 19.5401 20.5152 17.7311 20.5152 15.4995C20.5152 13.268 18.7062 11.459 16.4746 11.459C14.2431 11.459 12.4341 13.268 12.4341 15.4995C12.4341 17.7311 14.2431 19.5401 16.4746 19.5401Z" stroke="white" stroke-width="1.5" stroke-linecap="round" stroke-linejoin="round"/>
</svg>
