<svg width="33" height="33" viewBox="0 0 33 33" fill="none" xmlns="http://www.w3.org/2000/svg">
<path d="M21.5193 0.83562C22.5446 -0.193968 24.2885 0.690064 24.0641 2.12572L22.6483 11.1847C22.548 11.8268 22.8724 12.4604 23.4521 12.7542L31.6302 16.9001C32.9262 17.5572 32.6244 19.4888 31.1896 19.7191L22.1365 21.172C21.4949 21.2749 20.9925 21.7794 20.8922 22.4214L19.4764 31.4804C19.252 32.9161 17.3216 33.2259 16.6592 31.9325L12.4799 23.7714C12.1837 23.193 11.5487 22.8711 10.9071 22.9741L1.85397 24.427C0.419242 24.6572 -0.471928 22.917 0.553451 21.8875L7.02361 15.3908C7.48217 14.9303 7.5921 14.227 7.29589 13.6485L3.11654 5.48747C2.45421 4.19412 3.83385 2.80882 5.1299 3.46585L13.308 7.61174C13.8876 7.90557 14.5905 7.79277 15.0491 7.33233L21.5193 0.83562Z" fill="#A66CFE"/>
</svg>
