<svg width="47" height="47" viewBox="0 0 47 47" fill="none" xmlns="http://www.w3.org/2000/svg">
<path d="M31.4455 1.23837C32.8127 -0.134413 35.1378 1.0443 34.8387 2.95851L32.779 16.1375C32.6452 16.9935 33.0778 17.8384 33.8507 18.2301L45.7481 24.2615C47.4762 25.1376 47.0736 27.7131 45.1607 28.0201L31.9903 30.1338C31.1348 30.2711 30.465 30.9436 30.3312 31.7997L28.2715 44.9786C27.9723 46.8928 25.3985 47.3059 24.5153 45.5814L18.4353 33.7088C18.0403 32.9376 17.1937 32.5084 16.3382 32.6457L3.16781 34.7593C1.25484 35.0663 0.0666154 32.7461 1.43379 31.3733L10.8465 21.9219C11.4579 21.308 11.6045 20.3702 11.2095 19.599L5.12947 7.72636C4.24636 6.00189 6.08588 4.15482 7.81395 5.03087L19.7114 11.0623C20.4842 11.454 21.4214 11.3036 22.0328 10.6897L31.4455 1.23837Z" fill="#A66CFE"/>
</svg>
