<svg width="45" height="47" viewBox="0 0 45 47" fill="none" xmlns="http://www.w3.org/2000/svg">
<path d="M31.5128 1.39804C32.88 0.0252552 35.2051 1.20397 34.9059 3.11818L32.8462 16.2971C32.7124 17.1532 33.1451 17.998 33.9179 18.3898L45.8154 24.4212C47.5434 25.2973 47.1409 27.8728 45.2279 28.1798L32.0575 30.2934C31.202 30.4307 30.5322 31.1033 30.3984 31.9594L28.3388 45.1383C28.0396 47.0525 25.4657 47.4656 24.5826 45.7411L18.5025 33.8685C18.1076 33.0973 17.261 32.6681 16.4055 32.8054L3.23507 34.919C1.3221 35.226 0.133876 32.9057 1.50105 31.5329L10.9138 22.0816C11.5252 21.4677 11.6717 20.5299 11.2768 19.7587L5.19673 7.88603C4.31362 6.16156 6.15314 4.31449 7.88121 5.19053L19.7787 11.2219C20.5515 11.6137 21.4887 11.4633 22.1001 10.8494L31.5128 1.39804Z" fill="#CFF500"/>
</svg>
