<svg width="33" height="33" viewBox="0 0 33 33" fill="none" xmlns="http://www.w3.org/2000/svg">
<path d="M21.6974 0.528735C22.7227 -0.500853 24.4666 0.383179 24.2422 1.81884L22.8264 10.8778C22.7261 11.5199 23.0506 12.1535 23.6302 12.4474L31.8083 16.5933C33.1043 17.2503 32.8025 19.182 31.3677 19.4122L22.3146 20.8651C21.673 20.9681 21.1706 21.4725 21.0703 22.1145L19.6545 31.1735C19.4301 32.6092 17.4997 32.919 16.8373 31.6256L12.658 23.4646C12.3618 22.8862 11.7268 22.5643 11.0852 22.6672L2.03207 24.1201C0.597343 24.3504 -0.293827 22.6102 0.731552 21.5806L7.20171 15.0839C7.66027 14.6234 7.7702 13.9201 7.47399 13.3417L3.29464 5.18059C2.63231 3.88723 4.01195 2.50193 5.308 3.15897L13.4861 7.30486C14.0657 7.59869 14.7686 7.48589 15.2272 7.02544L21.6974 0.528735Z" fill="#CFF500"/>
</svg>
