<svg width="63" height="70" viewBox="0 0 63 70" fill="none" xmlns="http://www.w3.org/2000/svg">
<path d="M51.9091 1.79387C53.9598 -0.265309 57.4475 1.50276 56.9988 4.37407L53.4882 26.8362C53.2876 28.1203 53.9365 29.3876 55.0958 29.9753L75.3737 40.2552C77.9658 41.5692 77.3621 45.4326 74.4926 45.8931L52.045 49.4955C50.7618 49.7015 49.757 50.7103 49.5564 51.9944L46.0458 74.4566C45.5971 77.3279 41.7363 77.9475 40.4116 75.3608L30.0487 55.1251C29.4563 53.9683 28.1864 53.3245 26.9032 53.5304L4.45556 57.1329C1.58611 57.5934 -0.196229 54.113 1.85453 52.0538L17.8975 35.945C18.8147 35.0241 19.0345 33.6174 18.4421 32.4606L8.07924 12.2249C6.75457 9.63817 9.51385 6.86757 12.106 8.18163L32.3839 18.4615C33.5432 19.0492 34.949 18.8236 35.8661 17.9027L51.9091 1.79387Z" fill="#A66CFE"/>
</svg>
