<svg width="32" height="32" viewBox="0 0 32 32" fill="none" xmlns="http://www.w3.org/2000/svg">
<path d="M1.33252 24.6415L6.91881 29.2975C7.74031 29.9815 8.77554 30.356 9.84452 30.3558H24.5714C25.6228 30.3558 26.4754 29.5032 26.4754 28.4518C26.4754 26.3489 24.7702 24.6415 22.6651 24.6415H12.4274M19.0057 2.3558C18.7026 2.3558 18.4119 2.47621 18.1975 2.69054C17.9832 2.90486 17.8628 3.19555 17.8628 3.49866V6.71466H14.6491C14.346 6.71466 14.0553 6.83507 13.841 7.04939C13.6266 7.26372 13.5062 7.55441 13.5062 7.85752V11.5718C13.5062 11.8749 13.6266 12.1656 13.841 12.3799C14.0553 12.5943 14.346 12.7147 14.6491 12.7147H17.8628V15.9284C17.8628 16.2315 17.9832 16.5222 18.1975 16.7365C18.4119 16.9508 18.7026 17.0712 19.0057 17.0712H22.7199C23.0231 17.0712 23.3137 16.9508 23.5281 16.7365C23.7424 16.5222 23.8628 16.2315 23.8628 15.9284V12.7147H27.0765C27.3796 12.7147 27.6703 12.5943 27.8846 12.3799C28.099 12.1656 28.2194 11.8749 28.2194 11.5718V7.85752C28.2194 7.55441 28.099 7.26372 27.8846 7.04939C27.6703 6.83507 27.3796 6.71466 27.0765 6.71466H23.8628V3.49637C23.8628 3.19327 23.7424 2.90258 23.5281 2.68825C23.3137 2.47392 23.0231 2.35352 22.7199 2.35352L19.0057 2.3558Z" stroke="#A66CFE" stroke-width="1.5" stroke-linecap="round" stroke-linejoin="round"/>
<path d="M8.18966 22.3549L9.90395 24.0692C10.1291 24.2943 10.3963 24.4729 10.6905 24.5947C10.9846 24.7166 11.2999 24.7793 11.6182 24.7793C11.9366 24.7793 12.2519 24.7166 12.546 24.5947C12.8401 24.4729 13.1074 24.2943 13.3325 24.0692C13.5576 23.8441 13.7362 23.5768 13.8581 23.2827C13.9799 22.9885 14.0426 22.6733 14.0426 22.3549C14.0426 22.0365 13.9799 21.7213 13.8581 21.4271C13.7362 21.133 13.5576 20.8657 13.3325 20.6406L10.6719 17.9801C9.81484 17.1227 8.65227 16.6409 7.43995 16.6406H1.33252" stroke="#A66CFE" stroke-width="1.5" stroke-linecap="round" stroke-linejoin="round"/>
</svg>
