<svg width="32" height="32" viewBox="0 0 32 32" fill="none" xmlns="http://www.w3.org/2000/svg">
<path d="M27.276 19.4528C27.8706 17.5368 29.2106 10.4528 19.3693 4.13278C19.2025 4.02551 19.0033 3.98011 18.8065 4.00447C18.6097 4.02883 18.4276 4.12141 18.292 4.26611C18.1585 4.40738 18.0817 4.59288 18.0763 4.78718C18.0709 4.98148 18.1372 5.17097 18.2626 5.31945C18.3026 5.36745 21.9293 9.78611 20.64 14.8328C18.4093 13.2981 9.54131 6.26878 9.54131 6.26878L14.6666 14.6661L5.14931 8.53278C5.14931 8.53278 11.8773 16.7928 15.9946 19.9008C14.0013 20.6154 9.67064 21.3728 3.95064 17.8181C3.79205 17.72 3.60567 17.6765 3.42002 17.6943C3.23437 17.7121 3.05966 17.7903 2.92264 17.9168C2.78778 18.0399 2.69993 18.206 2.67415 18.3867C2.64836 18.5675 2.68625 18.7516 2.78131 18.9074C2.97197 19.2261 7.55731 26.6661 17.252 26.6661C19.912 26.6661 21.4653 25.9088 22.716 25.3008C23.484 24.9288 24.0906 24.6328 24.7533 24.6328C26.4013 24.6328 27.4826 26.2688 27.492 26.2834C27.5749 26.4114 27.691 26.5143 27.828 26.5812C27.9649 26.6482 28.1175 26.6766 28.2693 26.6634C28.4201 26.6532 28.5653 26.6018 28.6889 26.5148C28.8126 26.4278 28.91 26.3086 28.9706 26.1701C30.1613 23.4048 28.1106 20.4781 27.276 19.4514" stroke="white" stroke-width="1.5" stroke-linecap="round" stroke-linejoin="round"/>
</svg>
