<svg width="44" height="45" viewBox="0 0 44 45" fill="none" xmlns="http://www.w3.org/2000/svg">
<rect x="43.25" y="1.70984" width="42.5" height="42.5" rx="21.25" transform="rotate(90 43.25 1.70984)" stroke="white" stroke-width="1.5"/>
<path d="M31.8836 25.2528C32.0746 25.4404 32.1819 25.6947 32.1819 25.9598C32.1819 26.225 32.0746 26.4793 31.8836 26.6668L27.8083 30.6668C27.6173 30.8543 27.3582 30.9596 27.088 30.9596C26.8179 30.9596 26.5588 30.8543 26.3677 30.6668L22.2924 26.6668C22.1068 26.4782 22.0042 26.2256 22.0065 25.9634C22.0088 25.7012 22.1159 25.4504 22.3048 25.265C22.4937 25.0796 22.7493 24.9744 23.0164 24.9722C23.2835 24.9699 23.5409 25.0707 23.733 25.2528L26.0692 27.5458L26.0692 15.9598C26.0692 15.6946 26.1765 15.4403 26.3676 15.2527C26.5587 15.0652 26.8178 14.9598 27.088 14.9598C27.3582 14.9598 27.6174 15.0652 27.8084 15.2527C27.9995 15.4403 28.1068 15.6946 28.1068 15.9598L28.1068 27.5458L30.443 25.2528C30.634 25.0654 30.8931 24.9601 31.1633 24.9601C31.4334 24.9601 31.6925 25.0654 31.8836 25.2528ZM21.6954 20.6668C21.5043 20.8543 21.2453 20.9596 20.9751 20.9596C20.7049 20.9596 20.4459 20.8543 20.2548 20.6668L17.9186 18.3738L17.9186 29.9598C17.9186 30.2251 17.8113 30.4794 17.6202 30.6669C17.4292 30.8545 17.17 30.9598 16.8998 30.9598C16.6296 30.9598 16.3705 30.8545 16.1794 30.6669C15.9883 30.4794 15.881 30.2251 15.881 29.9598L15.881 18.3738L13.5449 20.6668C13.3527 20.849 13.0953 20.9498 12.8282 20.9475C12.5611 20.9452 12.3056 20.8401 12.1167 20.6547C11.9278 20.4692 11.8206 20.2184 11.8183 19.9562C11.816 19.694 11.9187 19.4414 12.1042 19.2528L16.1795 15.2528C16.3706 15.0654 16.6297 14.9601 16.8998 14.9601C17.17 14.9601 17.4291 15.0654 17.6201 15.2528L21.6954 19.2528C21.8864 19.4404 21.9937 19.6947 21.9937 19.9598C21.9937 20.225 21.8864 20.4793 21.6954 20.6668Z" fill="white"/>
</svg>
