<svg width="44" height="45" viewBox="0 0 44 45" fill="none" xmlns="http://www.w3.org/2000/svg">
<rect x="43.25" y="1.70984" width="42.5" height="42.5" rx="21.25" transform="rotate(90 43.25 1.70984)" stroke="black" stroke-width="1.5"/>
<path d="M31.8835 25.2528C32.0745 25.4404 32.1818 25.6947 32.1818 25.9598C32.1818 26.225 32.0745 26.4793 31.8835 26.6668L27.8082 30.6668C27.6171 30.8543 27.358 30.9596 27.0879 30.9596C26.8177 30.9596 26.5586 30.8543 26.3676 30.6668L22.2923 26.6668C22.1067 26.4782 22.004 26.2256 22.0064 25.9634C22.0087 25.7012 22.1158 25.4504 22.3047 25.265C22.4936 25.0796 22.7491 24.9744 23.0163 24.9722C23.2834 24.9699 23.5408 25.0707 23.7329 25.2528L26.0691 27.5458L26.0691 15.9598C26.0691 15.6946 26.1764 15.4403 26.3675 15.2527C26.5585 15.0652 26.8177 14.9598 27.0879 14.9598C27.3581 14.9598 27.6172 15.0652 27.8083 15.2527C27.9994 15.4403 28.1067 15.6946 28.1067 15.9598L28.1067 27.5458L30.4429 25.2528C30.6339 25.0654 30.893 24.9601 31.1632 24.9601C31.4333 24.9601 31.6924 25.0654 31.8835 25.2528ZM21.6953 20.6668C21.5042 20.8543 21.2451 20.9596 20.975 20.9596C20.7048 20.9596 20.4457 20.8543 20.2547 20.6668L17.9185 18.3738L17.9185 29.9598C17.9185 30.2251 17.8112 30.4794 17.6201 30.6669C17.4291 30.8545 17.1699 30.9598 16.8997 30.9598C16.6295 30.9598 16.3704 30.8545 16.1793 30.6669C15.9882 30.4794 15.8809 30.2251 15.8809 29.9598L15.8809 18.3738L13.5447 20.6668C13.3526 20.849 13.0952 20.9498 12.8281 20.9475C12.561 20.9452 12.3054 20.8401 12.1165 20.6547C11.9276 20.4692 11.8205 20.2184 11.8182 19.9562C11.8158 19.694 11.9185 19.4414 12.1041 19.2528L16.1794 15.2528C16.3705 15.0654 16.6295 14.9601 16.8997 14.9601C17.1699 14.9601 17.429 15.0654 17.62 15.2528L21.6953 19.2528C21.8863 19.4404 21.9936 19.6947 21.9936 19.9598C21.9936 20.225 21.8863 20.4793 21.6953 20.6668Z" fill="black"/>
</svg>
