<svg width="32" height="32" viewBox="0 0 32 32" fill="none" xmlns="http://www.w3.org/2000/svg">
<path d="M7.05664 8.00014C5.11614 10.1674 4.02971 12.9662 3.99977 15.8751C3.92602 22.522 9.35289 27.9876 15.9998 28.0001C22.6373 28.0126 27.9998 22.6358 27.9998 16.0001C27.9998 9.46639 22.7779 4.14952 16.281 4.00014C16.2444 3.99897 16.208 4.00517 16.1739 4.01837C16.1398 4.03158 16.1087 4.05152 16.0824 4.07701C16.0562 4.1025 16.0353 4.13301 16.0211 4.16673C16.0069 4.20045 15.9997 4.23668 15.9998 4.27327V9.50014" stroke="white" stroke-width="1.5" stroke-linecap="round" stroke-linejoin="round"/>
<path d="M14.5861 17.4142L9.6486 10.3517C9.5803 10.2539 9.54861 10.1351 9.5591 10.0162C9.56958 9.89734 9.62157 9.78595 9.70596 9.70156C9.79034 9.61718 9.90173 9.56519 10.0206 9.5547C10.1395 9.54421 10.2583 9.5759 10.3561 9.64421L17.4186 14.5817C17.8518 14.8937 18.1448 15.3637 18.2341 15.89C18.3234 16.4163 18.202 16.9567 17.896 17.3941C17.5901 17.8316 17.1242 18.131 16.5991 18.2277C16.0741 18.3243 15.5321 18.2103 15.0905 17.9105C14.8952 17.7751 14.7246 17.6073 14.5861 17.4142Z" fill="white"/>
</svg>
