<svg width="84" height="93" viewBox="0 0 84 93" fill="none" xmlns="http://www.w3.org/2000/svg">
<path fill-rule="evenodd" clip-rule="evenodd" d="M0.145833 14.4076C3.77083 14.4041 7.39583 14.4076 11.0208 14.418C12.1824 14.4894 13.033 15.0346 13.5729 16.0534C13.6742 16.274 13.7506 16.5032 13.8021 16.7409C14.7188 21.5603 15.6354 26.3798 16.5521 31.1992C18.7639 25.609 20.9756 20.0187 23.1875 14.4284C25.4167 14.4006 27.6458 14.4006 29.875 14.4284C26.4375 22.6506 23 30.8728 19.5625 39.0951C17.3195 39.1159 15.0764 39.1228 12.8333 39.1159C11.1115 32.4259 9.37881 25.7384 7.63542 19.0534C7.42296 18.2509 6.95421 17.6502 6.22917 17.2513C4.24471 16.2947 2.16831 15.6107 0 15.1992C0.0442146 14.9339 0.092825 14.67 0.145833 14.4076Z" fill="white"/>
<path fill-rule="evenodd" clip-rule="evenodd" d="M35.1042 14.4062C37.2223 14.4062 39.3402 14.4062 41.4583 14.4062C39.725 22.6429 37.9887 30.879 36.25 39.1146C34.125 39.1146 32 39.1146 29.875 39.1146C31.6181 30.8785 33.361 22.6424 35.1042 14.4062Z" fill="white"/>
<path fill-rule="evenodd" clip-rule="evenodd" d="M54.2291 14.0035C56.3397 13.9624 58.4093 14.2853 60.4374 14.9722C60.558 15.0083 60.6691 15.0604 60.7708 15.1285C60.392 16.859 60.0099 18.5882 59.6249 20.316C57.7139 19.4274 55.7208 19.0489 53.6458 19.1806C52.9041 19.2403 52.2166 19.4625 51.5833 19.8472C51.2008 20.1047 50.9264 20.4485 50.7603 20.8785C50.6497 21.2708 50.6983 21.6458 50.9062 22.0035C51.0876 22.2753 51.3064 22.5149 51.5624 22.7222C51.8845 22.9608 52.2178 23.183 52.5624 23.3889C53.441 23.8733 54.323 24.3525 55.2083 24.8264C56.1958 25.3762 57.0951 26.0464 57.9062 26.8368C59.2668 28.3083 59.8085 30.0443 59.5312 32.0451C59.217 34.3937 58.0816 36.2237 56.1249 37.5347C54.9078 38.3166 53.5885 38.8583 52.1666 39.1597C50.008 39.5962 47.8414 39.6378 45.6666 39.2847C44.2276 39.0666 42.8318 38.6916 41.4791 38.1597C41.4683 38.1481 41.4612 38.1341 41.4583 38.1181C41.8355 36.3256 42.2243 34.5374 42.6249 32.7535C44.5074 33.7614 46.5178 34.3031 48.6562 34.3785C49.313 34.3918 49.9762 34.3189 50.6458 34.1597C51.3712 33.9864 51.9858 33.6287 52.4895 33.0868C53.1416 32.1778 53.0687 31.3308 52.2708 30.5451C51.9358 30.2353 51.5747 29.9612 51.1874 29.7222C50.208 29.1631 49.222 28.6145 48.2291 28.0764C47.2947 27.5551 46.4439 26.9197 45.677 26.1701C44.4335 24.8564 43.9126 23.2939 44.1145 21.4826C44.3118 19.5723 45.1208 17.9786 46.5416 16.7014C47.7714 15.6558 49.1741 14.9267 50.7499 14.5139C51.8935 14.2121 53.0533 14.042 54.2291 14.0035Z" fill="white"/>
<path fill-rule="evenodd" clip-rule="evenodd" d="M72.8124 14.4062C74.6874 14.4062 76.5624 14.4062 78.4374 14.4062C80.1447 22.6371 81.8599 30.8663 83.5833 39.0938C81.618 39.1181 79.6528 39.1215 77.6874 39.1042C77.4197 37.8729 77.1558 36.6402 76.8958 35.4062C74.1737 35.3854 71.4514 35.3785 68.7291 35.3854C68.3139 36.624 67.8903 37.86 67.4583 39.0938C65.2291 39.1215 62.9999 39.1215 60.7708 39.0938C63.927 31.5173 67.0833 23.941 70.2395 16.3646C70.481 15.8317 70.8178 15.3699 71.2499 14.9792C71.7128 14.6293 72.2337 14.4383 72.8124 14.4062ZM73.9166 21.0938C74.5945 24.1778 75.2543 27.2681 75.8958 30.3646C74.1318 30.3715 72.3678 30.3646 70.6041 30.3438C71.7085 27.26 72.8126 24.1766 73.9166 21.0938Z" fill="white"/>
<path d="M31.0317 74.5234L26.9517 63.5634H28.6317L31.9117 72.6674L35.1757 63.5634H36.8237L32.7437 74.5234H31.0317ZM37.5392 64.9714V63.5634H38.9472V64.9714H37.5392ZM37.5392 74.5234V66.4274H38.9472V74.5234H37.5392ZM41.3665 72.0114C41.3878 72.2141 41.4412 72.4061 41.5265 72.5874C41.6225 72.7688 41.7505 72.9288 41.9105 73.0674C42.0812 73.2061 42.2945 73.3181 42.5505 73.4034C42.8065 73.4888 43.1105 73.5314 43.4625 73.5314C44.0705 73.5314 44.5185 73.4141 44.8065 73.1794C45.1052 72.9448 45.2545 72.6568 45.2545 72.3154C45.2545 72.1021 45.1958 71.9261 45.0785 71.7874C44.9718 71.6488 44.8278 71.5368 44.6465 71.4514C44.4652 71.3661 44.2518 71.2968 44.0065 71.2434C43.7612 71.1901 43.5052 71.1421 43.2385 71.0994C42.8865 71.0354 42.5238 70.9661 42.1505 70.8914C41.7878 70.8168 41.4572 70.6994 41.1585 70.5394C40.8598 70.3794 40.6145 70.1608 40.4225 69.8834C40.2412 69.5954 40.1505 69.2168 40.1505 68.7474C40.1505 68.3954 40.2198 68.0754 40.3585 67.7874C40.5078 67.4888 40.7158 67.2328 40.9825 67.0194C41.2492 66.8061 41.5692 66.6408 41.9425 66.5234C42.3265 66.3954 42.7532 66.3314 43.2225 66.3314C44.1932 66.3314 44.9612 66.5608 45.5265 67.0194C46.1025 67.4781 46.4172 68.0914 46.4705 68.8594H45.0465C45.0358 68.6994 44.9985 68.5394 44.9345 68.3794C44.8812 68.2088 44.7852 68.0594 44.6465 67.9314C44.5078 67.8034 44.3265 67.6968 44.1025 67.6114C43.8785 67.5261 43.6012 67.4834 43.2705 67.4834C42.7585 67.4834 42.3478 67.5794 42.0385 67.7714C41.7398 67.9528 41.5905 68.2248 41.5905 68.5874C41.5905 68.8008 41.6438 68.9768 41.7505 69.1154C41.8678 69.2541 42.0225 69.3661 42.2145 69.4514C42.4065 69.5368 42.6252 69.6114 42.8705 69.6754C43.1265 69.7288 43.3932 69.7768 43.6705 69.8194C44.0332 69.8834 44.3958 69.9581 44.7585 70.0434C45.1212 70.1181 45.4518 70.2354 45.7505 70.3954C46.0492 70.5554 46.2892 70.7688 46.4705 71.0354C46.6625 71.3021 46.7585 71.6594 46.7585 72.1074C46.7585 72.5234 46.6732 72.8914 46.5025 73.2114C46.3425 73.5314 46.1132 73.7981 45.8145 74.0114C45.5158 74.2248 45.1585 74.3901 44.7425 74.5074C44.3372 74.6141 43.8892 74.6674 43.3985 74.6674C42.3638 74.6674 41.5372 74.4328 40.9185 73.9634C40.3105 73.4834 39.9745 72.8328 39.9105 72.0114H41.3665ZM51.6642 67.6274C51.2589 67.6274 50.8856 67.7021 50.5442 67.8514C50.2029 68.0008 49.9042 68.2034 49.6482 68.4594C49.4029 68.7154 49.2056 69.0194 49.0562 69.3714C48.9176 69.7234 48.8482 70.0968 48.8482 70.4914C48.8482 70.8968 48.9176 71.2754 49.0562 71.6274C49.2056 71.9688 49.4029 72.2674 49.6482 72.5234C49.9042 72.7794 50.2029 72.9821 50.5442 73.1314C50.8856 73.2808 51.2589 73.3554 51.6642 73.3554C52.0696 73.3554 52.4482 73.2808 52.8002 73.1314C53.1522 72.9821 53.4562 72.7794 53.7122 72.5234C53.9682 72.2674 54.1656 71.9688 54.3042 71.6274C54.4536 71.2754 54.5282 70.8968 54.5282 70.4914C54.5282 70.0968 54.4536 69.7234 54.3042 69.3714C54.1549 69.0194 53.9522 68.7154 53.6962 68.4594C53.4402 68.2034 53.1362 68.0008 52.7842 67.8514C52.4429 67.7021 52.0696 67.6274 51.6642 67.6274ZM54.4962 73.4354C54.1869 73.7768 53.7869 74.0648 53.2962 74.2994C52.8162 74.5341 52.2456 74.6514 51.5842 74.6514C51.0189 74.6514 50.4856 74.5448 49.9842 74.3314C49.4936 74.1181 49.0616 73.8248 48.6882 73.4514C48.3149 73.0781 48.0162 72.6408 47.7922 72.1394C47.5789 71.6274 47.4722 71.0781 47.4722 70.4914C47.4722 69.9048 47.5789 69.3608 47.7922 68.8594C48.0162 68.3474 48.3149 67.9048 48.6882 67.5314C49.0616 67.1581 49.4936 66.8648 49.9842 66.6514C50.4856 66.4274 51.0189 66.3154 51.5842 66.3154C52.2349 66.3154 52.8002 66.4328 53.2802 66.6674C53.7709 66.8914 54.1762 67.1688 54.4962 67.4994V66.4274H55.8882V74.5234H54.4962V73.4354Z" fill="white"/>
</svg>
