<svg width="39" height="13" viewBox="0 0 39 13" fill="none" xmlns="http://www.w3.org/2000/svg">
<path d="M24.9217 0.300781C22.2286 0.300781 19.82 1.69212 19.82 4.26308C19.82 7.21212 24.0891 7.4144 24.0891 8.89459C24.0891 9.51843 23.3722 10.078 22.149 10.078C21.0869 10.071 20.0438 9.80274 19.1107 9.29725L18.555 11.8909C18.555 11.8909 20.0533 12.5506 22.039 12.5506C24.9824 12.5506 27.3 11.0912 27.3 8.47681C27.3 5.36141 23.0138 5.16292 23.0138 3.78859C23.0138 3.29898 23.6017 2.76399 24.8231 2.76399C26.2019 2.76399 27.3265 3.33111 27.3265 3.33111L27.869 0.826315C27.869 0.826315 26.6457 0.300781 24.9217 0.300781ZM0.279808 0.489819L0.215332 0.867903C0.215332 0.867903 1.34758 1.07585 2.36982 1.48607C3.68223 1.95867 3.77706 2.23467 3.99706 3.08913L6.40947 12.3559H9.6412L14.6215 0.489819H11.3974L8.19602 8.5581L6.89119 1.71859C6.77171 0.935959 6.16482 0.489819 5.42137 0.489819H0.279808ZM15.9188 0.489819L13.3888 12.3559H16.465L18.9855 0.489819H15.9188ZM33.0712 0.489819C32.3316 0.489819 31.9371 0.886807 31.6488 1.57681L27.1426 12.3559H30.3667L30.9926 10.56H34.9203L35.2996 12.3559H38.1464L35.6638 0.489819H33.0712ZM33.4903 3.69596L34.4462 8.14788H31.8877L33.4903 3.69596Z" fill="black"/>
</svg>
