<svg width="24" height="24" viewBox="0 0 24 24" fill="none" xmlns="http://www.w3.org/2000/svg">
<g clip-path="url(#clip0_1330_3910)">
<path d="M12 1.25C14.1261 1.25 16.2046 1.88048 17.9724 3.0617C19.7402 4.24293 21.1181 5.92185 21.9317 7.88615C22.7453 9.85046 22.9582 12.0119 22.5434 14.0972C22.1287 16.1825 21.1048 18.098 19.6014 19.6014C18.098 21.1048 16.1825 22.1287 14.0972 22.5434C12.0119 22.9582 9.85046 22.7453 7.88615 21.9317C5.92185 21.1181 4.24293 19.7402 3.0617 17.9724C1.88048 16.2046 1.25 14.1261 1.25 12C1.25132 9.14933 2.38434 6.41579 4.40007 4.40007C6.41579 2.38434 9.14933 1.25132 12 1.25Z" stroke="#CFF500" stroke-width="1.5" stroke-linecap="round" stroke-linejoin="round"/>
<path d="M12.895 6.70406C12.9077 6.49437 12.9603 6.28902 13.05 6.09906C13.595 4.82906 15.5 2.95406 16.935 2.45406V2.41406C10.2 2.41406 6.63501 6.58906 6.63501 11.9991C6.63375 13.0246 6.92589 14.0291 7.47695 14.894C8.02802 15.7588 8.81501 16.448 9.74504 16.8802C10.6751 17.3123 11.7093 17.4694 12.7257 17.3328C13.7421 17.1963 14.6982 16.7718 15.4812 16.1095C16.2642 15.4472 16.8414 14.5748 17.1446 13.5951C17.4479 12.6154 17.4646 11.5695 17.1927 10.5806C16.9208 9.59182 16.3717 8.70141 15.6102 8.01452C14.8487 7.32763 13.9065 6.87292 12.895 6.70406Z" stroke="#CFF500" stroke-width="1.5" stroke-linecap="round" stroke-linejoin="round"/>
</g>
<defs>
<clipPath id="clip0_1330_3910">
<rect width="24" height="24" fill="white"/>
</clipPath>
</defs>
</svg>
