<svg width="32" height="32" viewBox="0 0 32 32" fill="none" xmlns="http://www.w3.org/2000/svg">
<path d="M7.42864 9.1423C7.42864 7.88059 8.23436 6.61544 9.79321 5.6223C11.3418 4.63716 13.5338 3.99944 16.0001 3.99944C18.4664 3.99944 20.6584 4.63716 22.2069 5.6223C23.7658 6.61659 24.5715 7.88059 24.5715 9.1423C24.5715 10.404 23.7658 11.6692 22.2069 12.6623C20.6584 13.6474 18.4664 14.2852 16.0001 14.2852C13.5338 14.2852 11.3418 13.6474 9.79321 12.6623C8.23436 11.668 7.42864 10.404 7.42864 9.1423ZM16.0001 2.28516C13.2584 2.28516 10.7361 2.9903 8.87321 4.17658C7.0195 5.35601 5.71436 7.09087 5.71436 9.1423C5.71436 11.1937 7.0195 12.9286 8.87321 14.108C10.7361 15.2943 13.2572 15.9994 16.0001 15.9994C18.7429 15.9994 21.2641 15.2943 23.1269 14.108C24.9806 12.9286 26.2858 11.1937 26.2858 9.1423C26.2858 7.09087 24.9806 5.35601 23.1269 4.17658C21.2641 2.9903 18.7429 2.28516 16.0001 2.28516ZM7.42864 15.9994C7.42864 15.5629 7.52464 15.1263 7.71436 14.7012C7.23626 14.3533 6.79304 13.9598 6.39093 13.5263C5.95053 14.2763 5.71706 15.1297 5.71436 15.9994C5.71436 18.0509 7.0195 19.7857 8.87321 20.9652C10.7361 22.1514 13.2572 22.8566 16.0001 22.8566C18.7429 22.8566 21.2641 22.1514 23.1269 20.9652C24.9806 19.7857 26.2858 18.0509 26.2858 15.9994C26.2858 15.108 26.0401 14.2783 25.6092 13.5263C25.2104 13.9583 24.7635 14.3514 24.2846 14.7012C24.4755 15.1263 24.5715 15.5629 24.5715 15.9994C24.5715 17.2623 23.7658 18.5274 22.2069 19.5194C20.6584 20.5046 18.4664 21.1423 16.0001 21.1423C13.5338 21.1423 11.3418 20.5046 9.79321 19.5194C8.23436 18.5274 7.42864 17.2623 7.42864 15.9994ZM7.42864 22.8566C7.42864 22.42 7.52464 21.9834 7.71436 21.5583C7.23626 21.2104 6.79304 20.8169 6.39093 20.3834C5.95053 21.1334 5.71706 21.9869 5.71436 22.8566C5.71436 24.908 7.0195 26.6429 8.87321 27.8223C10.7361 29.0086 13.2572 29.7137 16.0001 29.7137C18.7429 29.7137 21.2641 29.0086 23.1269 27.8223C24.9806 26.6429 26.2858 24.908 26.2858 22.8566C26.2858 21.9652 26.0401 21.1354 25.6092 20.3834C25.2104 20.8154 24.7635 21.2086 24.2846 21.5583C24.4755 21.9834 24.5715 22.42 24.5715 22.8566C24.5715 24.1183 23.7658 25.3834 22.2069 26.3766C20.6584 27.3617 18.4664 27.9994 16.0001 27.9994C13.5338 27.9994 11.3418 27.3617 9.79321 26.3766C8.23436 25.3823 7.42864 24.1183 7.42864 22.8566Z" fill="white"/>
</svg>
